<?xml version="1.0" encoding="UTF-8" standalone="no"?><svg xmlns="http://www.w3.org/2000/svg" xmlns:xlink="http://www.w3.org/1999/xlink" contentScriptType="application/ecmascript" contentStyleType="text/css" height="994px" preserveAspectRatio="none" style="width:492px;height:994px;" version="1.1" viewBox="0 0 492 994" width="492px" zoomAndPan="magnify"><defs><filter height="300%" id="fh5nalh671ijb" width="300%" x="-1" y="-1"><feGaussianBlur result="blurOut" stdDeviation="2.0"/><feColorMatrix in="blurOut" result="blurOut2" type="matrix" values="0 0 0 0 0 0 0 0 0 0 0 0 0 0 0 0 0 0 .4 0"/><feOffset dx="4.0" dy="4.0" in="blurOut2" result="blurOut3"/><feBlend in="SourceGraphic" in2="blurOut3" mode="normal"/></filter></defs><g><ellipse cx="245" cy="20" fill="#000000" filter="url(#fh5nalh671ijb)" rx="10" ry="10" style="stroke: none; stroke-width: 1.0;"/><rect fill="#FEFECE" filter="url(#fh5nalh671ijb)" height="52.6882" rx="12.5" ry="12.5" style="stroke: #A80036; stroke-width: 1.5;" width="131" x="179.5" y="50"/><text fill="#000000" font-family="sans-serif" font-size="12" lengthAdjust="spacingAndGlyphs" textLength="111" x="189.5" y="72.8281">Exception caught by</text><text fill="#000000" font-family="sans-serif" font-size="12" lengthAdjust="spacingAndGlyphs" textLength="102" x="189.5" y="89.1722">AllExceptionsFilter</text><polygon fill="#FEFECE" filter="url(#fh5nalh671ijb)" points="177,122.6882,313,122.6882,325,134.6882,313,146.6882,177,146.6882,165,134.6882,177,122.6882" style="stroke: #A80036; stroke-width: 1.5;"/><text fill="#000000" font-family="sans-serif" font-size="11" lengthAdjust="spacingAndGlyphs" textLength="136" x="177" y="138.9562">instanceof HttpException?</text><text fill="#000000" font-family="sans-serif" font-size="11" lengthAdjust="spacingAndGlyphs" textLength="17" x="148" y="131.4653">yes</text><text fill="#000000" font-family="sans-serif" font-size="11" lengthAdjust="spacingAndGlyphs" textLength="14" x="325" y="131.4653">no</text><rect fill="#FEFECE" filter="url(#fh5nalh671ijb)" height="36.3441" rx="12.5" ry="12.5" style="stroke: #A80036; stroke-width: 1.5;" width="185" x="52.75" y="156.6882"/><text fill="#000000" font-family="sans-serif" font-size="12" lengthAdjust="spacingAndGlyphs" textLength="165" x="62.75" y="179.5163">status = exception.getStatus()</text><rect fill="#FEFECE" filter="url(#fh5nalh671ijb)" height="52.6882" rx="12.5" ry="12.5" style="stroke: #A80036; stroke-width: 1.5;" width="174" x="257.75" y="156.6882"/><text fill="#000000" font-family="sans-serif" font-size="12" lengthAdjust="spacingAndGlyphs" textLength="68" x="267.75" y="179.5163">status = 500</text><text fill="#000000" font-family="sans-serif" font-size="12" lengthAdjust="spacingAndGlyphs" textLength="154" x="267.75" y="195.8604">(INTERNAL_SERVER_ERROR)</text><polygon fill="#FEFECE" filter="url(#fh5nalh671ijb)" points="245,215.3765,257,227.3765,245,239.3765,233,227.3765,245,215.3765" style="stroke: #A80036; stroke-width: 1.5;"/><polygon fill="#FEFECE" filter="url(#fh5nalh671ijb)" points="158,259.3765,332,259.3765,344,271.3765,332,283.3765,158,283.3765,146,271.3765,158,259.3765" style="stroke: #A80036; stroke-width: 1.5;"/><text fill="#000000" font-family="sans-serif" font-size="11" lengthAdjust="spacingAndGlyphs" textLength="174" x="158" y="275.6444">instanceof BaseServiceException?</text><text fill="#000000" font-family="sans-serif" font-size="11" lengthAdjust="spacingAndGlyphs" textLength="17" x="129" y="268.1535">yes</text><text fill="#000000" font-family="sans-serif" font-size="11" lengthAdjust="spacingAndGlyphs" textLength="136" x="344" y="268.1535">instanceof HttpException?</text><rect fill="#FEFECE" filter="url(#fh5nalh671ijb)" height="36.3441" rx="12.5" ry="12.5" style="stroke: #A80036; stroke-width: 1.5;" width="232" x="10" y="293.3765"/><text fill="#000000" font-family="sans-serif" font-size="12" lengthAdjust="spacingAndGlyphs" textLength="212" x="20" y="316.2045">errorCode = exception.getErrorCode()</text><rect fill="#FEFECE" filter="url(#fh5nalh671ijb)" height="52.6882" rx="12.5" ry="12.5" style="stroke: #A80036; stroke-width: 1.5;" width="204" x="262" y="293.3765"/><text fill="#000000" font-family="sans-serif" font-size="12" lengthAdjust="spacingAndGlyphs" textLength="184" x="272" y="316.2045">errorCode = response.errorCode</text><text fill="#000000" font-family="sans-serif" font-size="12" lengthAdjust="spacingAndGlyphs" textLength="122" x="272" y="332.5487">|| 'INTERNAL_ERROR'</text><polygon fill="#FEFECE" filter="url(#fh5nalh671ijb)" points="245,352.0647,257,364.0647,245,376.0647,233,364.0647,245,352.0647" style="stroke: #A80036; stroke-width: 1.5;"/><rect fill="#FEFECE" filter="url(#fh5nalh671ijb)" height="52.6882" rx="12.5" ry="12.5" style="stroke: #A80036; stroke-width: 1.5;" width="151" x="169.5" y="396.0647"/><text fill="#000000" font-family="sans-serif" font-size="12" lengthAdjust="spacingAndGlyphs" textLength="119" x="179.5" y="418.8928">Traverse cause chain</text><text fill="#000000" font-family="sans-serif" font-size="12" lengthAdjust="spacingAndGlyphs" textLength="131" x="179.5" y="435.2369">(getDeepestErrorCode)</text><polygon fill="#FEFECE" filter="url(#fh5nalh671ijb)" points="178,468.7529,312,468.7529,324,480.7529,312,492.7529,178,492.7529,166,480.7529,178,468.7529" style="stroke: #A80036; stroke-width: 1.5;"/><text fill="#000000" font-family="sans-serif" font-size="11" lengthAdjust="spacingAndGlyphs" textLength="134" x="178" y="485.0209">causeCode == errorCode?</text><text fill="#000000" font-family="sans-serif" font-size="11" lengthAdjust="spacingAndGlyphs" textLength="17" x="149" y="477.5299">yes</text><text fill="#000000" font-family="sans-serif" font-size="11" lengthAdjust="spacingAndGlyphs" textLength="14" x="324" y="477.5299">no</text><rect fill="#FEFECE" filter="url(#fh5nalh671ijb)" height="52.6882" rx="12.5" ry="12.5" style="stroke: #A80036; stroke-width: 1.5;" width="151" x="80.5" y="502.7529"/><text fill="#000000" font-family="sans-serif" font-size="12" lengthAdjust="spacingAndGlyphs" textLength="131" x="90.5" y="525.581">causeCode = undefined</text><text fill="#000000" font-family="sans-serif" font-size="12" lengthAdjust="spacingAndGlyphs" textLength="118" x="90.5" y="541.9251">(omit from response)</text><rect fill="#FEFECE" filter="url(#fh5nalh671ijb)" height="52.6882" rx="12.5" ry="12.5" style="stroke: #A80036; stroke-width: 1.5;" width="126" x="271" y="502.7529"/><text fill="#000000" font-family="sans-serif" font-size="12" lengthAdjust="spacingAndGlyphs" textLength="106" x="281" y="525.581">Include causeCode</text><text fill="#000000" font-family="sans-serif" font-size="12" lengthAdjust="spacingAndGlyphs" textLength="65" x="281" y="541.9251">in response</text><polygon fill="#FEFECE" filter="url(#fh5nalh671ijb)" points="245,561.4411,257,573.4411,245,585.4411,233,573.4411,245,561.4411" style="stroke: #A80036; stroke-width: 1.5;"/><rect fill="#FEFECE" filter="url(#fh5nalh671ijb)" height="69.0323" rx="12.5" ry="12.5" style="stroke: #A80036; stroke-width: 1.5;" width="311" x="89.5" y="605.4411"/><text fill="#000000" font-family="sans-serif" font-size="12" lengthAdjust="spacingAndGlyphs" textLength="291" x="99.5" y="628.2692">userMessage = getDeepestHttpExceptionMessage()</text><text fill="#000000" font-family="sans-serif" font-size="12" lengthAdjust="spacingAndGlyphs" textLength="170" x="99.5" y="644.6133">→ most specific message from</text><text fill="#000000" font-family="sans-serif" font-size="12" lengthAdjust="spacingAndGlyphs" textLength="172" x="99.5" y="660.9575">deepest HttpException in chain</text><rect fill="#FEFECE" filter="url(#fh5nalh671ijb)" height="101.7206" style="stroke: #A80036; stroke-width: 1.5;" width="153" x="168.5" y="694.4735"/><text fill="#000000" font-family="sans-serif" font-size="12" lengthAdjust="spacingAndGlyphs" textLength="85" x="178.5" y="717.3016">Log to Winston:</text><text fill="#000000" font-family="sans-serif" font-size="12" lengthAdjust="spacingAndGlyphs" textLength="88" x="178.5" y="733.6457">- exceptionType</text><text fill="#000000" font-family="sans-serif" font-size="12" lengthAdjust="spacingAndGlyphs" textLength="87" x="178.5" y="749.9898">- method, url, ip</text><text fill="#000000" font-family="sans-serif" font-size="12" lengthAdjust="spacingAndGlyphs" textLength="133" x="178.5" y="766.3339">- errorCode, causeCode</text><text fill="#000000" font-family="sans-serif" font-size="12" lengthAdjust="spacingAndGlyphs" textLength="76" x="178.5" y="782.678">- causeChain[</text><rect fill="#FEFECE" filter="url(#fh5nalh671ijb)" height="36.3441" rx="12.5" ry="12.5" style="stroke: #A80036; stroke-width: 1.5;" width="87" x="201.5" y="816.1941"/><text fill="#000000" font-family="sans-serif" font-size="12" lengthAdjust="spacingAndGlyphs" textLength="64" x="214.5" y="839.0221">stack trace;</text><rect fill="#FEFECE" filter="url(#fh5nalh671ijb)" height="69.0323" rx="12.5" ry="12.5" style="stroke: #A80036; stroke-width: 1.5;" width="216" x="137" y="872.5382"/><text fill="#000000" font-family="sans-serif" font-size="12" lengthAdjust="spacingAndGlyphs" textLength="126" x="147" y="895.3663">Return JSON response:</text><text fill="#000000" font-family="sans-serif" font-size="12" lengthAdjust="spacingAndGlyphs" textLength="168" x="147" y="911.7104">{statusCode, timestamp, path,</text><text fill="#000000" font-family="sans-serif" font-size="12" lengthAdjust="spacingAndGlyphs" textLength="193" x="150" y="928.0545">errorCode, causeCode?, message}</text><ellipse cx="245" cy="972.5705" fill="#FFFFFF" filter="url(#fh5nalh671ijb)" rx="11" ry="11" style="stroke: #000000; stroke-width: 1.0;"/><ellipse cx="245" cy="972.5705" fill="#000000" rx="6" ry="6" style="stroke: #7F7F7F; stroke-width: 1.0;"/><line style="stroke: #A80036; stroke-width: 1.5;" x1="245" x2="245" y1="30" y2="50"/><polygon fill="#A80036" points="241,40,245,50,249,40,245,44" style="stroke: #A80036; stroke-width: 1.0;"/><line style="stroke: #A80036; stroke-width: 1.5;" x1="165" x2="145.25" y1="134.6882" y2="134.6882"/><line style="stroke: #A80036; stroke-width: 1.5;" x1="145.25" x2="145.25" y1="134.6882" y2="156.6882"/><polygon fill="#A80036" points="141.25,146.6882,145.25,156.6882,149.25,146.6882,145.25,150.6882" style="stroke: #A80036; stroke-width: 1.0;"/><line style="stroke: #A80036; stroke-width: 1.5;" x1="325" x2="344.75" y1="134.6882" y2="134.6882"/><line style="stroke: #A80036; stroke-width: 1.5;" x1="344.75" x2="344.75" y1="134.6882" y2="156.6882"/><polygon fill="#A80036" points="340.75,146.6882,344.75,156.6882,348.75,146.6882,344.75,150.6882" style="stroke: #A80036; stroke-width: 1.0;"/><line style="stroke: #A80036; stroke-width: 1.5;" x1="145.25" x2="145.25" y1="193.0323" y2="227.3765"/><line style="stroke: #A80036; stroke-width: 1.5;" x1="145.25" x2="233" y1="227.3765" y2="227.3765"/><polygon fill="#A80036" points="223,223.3765,233,227.3765,223,231.3765,227,227.3765" style="stroke: #A80036; stroke-width: 1.0;"/><line style="stroke: #A80036; stroke-width: 1.5;" x1="344.75" x2="344.75" y1="209.3765" y2="227.3765"/><line style="stroke: #A80036; stroke-width: 1.5;" x1="344.75" x2="257" y1="227.3765" y2="227.3765"/><polygon fill="#A80036" points="267,223.3765,257,227.3765,267,231.3765,263,227.3765" style="stroke: #A80036; stroke-width: 1.0;"/><line style="stroke: #A80036; stroke-width: 1.5;" x1="245" x2="245" y1="102.6882" y2="122.6882"/><polygon fill="#A80036" points="241,112.6882,245,122.6882,249,112.6882,245,116.6882" style="stroke: #A80036; stroke-width: 1.0;"/><line style="stroke: #A80036; stroke-width: 1.5;" x1="146" x2="126" y1="271.3765" y2="271.3765"/><line style="stroke: #A80036; stroke-width: 1.5;" x1="126" x2="126" y1="271.3765" y2="293.3765"/><polygon fill="#A80036" points="122,283.3765,126,293.3765,130,283.3765,126,287.3765" style="stroke: #A80036; stroke-width: 1.0;"/><line style="stroke: #A80036; stroke-width: 1.5;" x1="344" x2="364" y1="271.3765" y2="271.3765"/><line style="stroke: #A80036; stroke-width: 1.5;" x1="364" x2="364" y1="271.3765" y2="293.3765"/><polygon fill="#A80036" points="360,283.3765,364,293.3765,368,283.3765,364,287.3765" style="stroke: #A80036; stroke-width: 1.0;"/><line style="stroke: #A80036; stroke-width: 1.5;" x1="126" x2="126" y1="329.7206" y2="364.0647"/><line style="stroke: #A80036; stroke-width: 1.5;" x1="126" x2="233" y1="364.0647" y2="364.0647"/><polygon fill="#A80036" points="223,360.0647,233,364.0647,223,368.0647,227,364.0647" style="stroke: #A80036; stroke-width: 1.0;"/><line style="stroke: #A80036; stroke-width: 1.5;" x1="364" x2="364" y1="346.0647" y2="364.0647"/><line style="stroke: #A80036; stroke-width: 1.5;" x1="364" x2="257" y1="364.0647" y2="364.0647"/><polygon fill="#A80036" points="267,360.0647,257,364.0647,267,368.0647,263,364.0647" style="stroke: #A80036; stroke-width: 1.0;"/><line style="stroke: #A80036; stroke-width: 1.5;" x1="245" x2="245" y1="239.3765" y2="259.3765"/><polygon fill="#A80036" points="241,249.3765,245,259.3765,249,249.3765,245,253.3765" style="stroke: #A80036; stroke-width: 1.0;"/><line style="stroke: #A80036; stroke-width: 1.5;" x1="245" x2="245" y1="376.0647" y2="396.0647"/><polygon fill="#A80036" points="241,386.0647,245,396.0647,249,386.0647,245,390.0647" style="stroke: #A80036; stroke-width: 1.0;"/><line style="stroke: #A80036; stroke-width: 1.5;" x1="166" x2="156" y1="480.7529" y2="480.7529"/><line style="stroke: #A80036; stroke-width: 1.5;" x1="156" x2="156" y1="480.7529" y2="502.7529"/><polygon fill="#A80036" points="152,492.7529,156,502.7529,160,492.7529,156,496.7529" style="stroke: #A80036; stroke-width: 1.0;"/><line style="stroke: #A80036; stroke-width: 1.5;" x1="324" x2="334" y1="480.7529" y2="480.7529"/><line style="stroke: #A80036; stroke-width: 1.5;" x1="334" x2="334" y1="480.7529" y2="502.7529"/><polygon fill="#A80036" points="330,492.7529,334,502.7529,338,492.7529,334,496.7529" style="stroke: #A80036; stroke-width: 1.0;"/><line style="stroke: #A80036; stroke-width: 1.5;" x1="156" x2="156" y1="555.4411" y2="573.4411"/><line style="stroke: #A80036; stroke-width: 1.5;" x1="156" x2="233" y1="573.4411" y2="573.4411"/><polygon fill="#A80036" points="223,569.4411,233,573.4411,223,577.4411,227,573.4411" style="stroke: #A80036; stroke-width: 1.0;"/><line style="stroke: #A80036; stroke-width: 1.5;" x1="334" x2="334" y1="555.4411" y2="573.4411"/><line style="stroke: #A80036; stroke-width: 1.5;" x1="334" x2="257" y1="573.4411" y2="573.4411"/><polygon fill="#A80036" points="267,569.4411,257,573.4411,267,577.4411,263,573.4411" style="stroke: #A80036; stroke-width: 1.0;"/><line style="stroke: #A80036; stroke-width: 1.5;" x1="245" x2="245" y1="448.7529" y2="468.7529"/><polygon fill="#A80036" points="241,458.7529,245,468.7529,249,458.7529,245,462.7529" style="stroke: #A80036; stroke-width: 1.0;"/><line style="stroke: #A80036; stroke-width: 1.5;" x1="245" x2="245" y1="585.4411" y2="605.4411"/><polygon fill="#A80036" points="241,595.4411,245,605.4411,249,595.4411,245,599.4411" style="stroke: #A80036; stroke-width: 1.0;"/><line style="stroke: #A80036; stroke-width: 1.5;" x1="245" x2="245" y1="674.4735" y2="694.4735"/><polygon fill="#A80036" points="241,684.4735,245,694.4735,249,684.4735,245,688.4735" style="stroke: #A80036; stroke-width: 1.0;"/><line style="stroke: #A80036; stroke-width: 1.5;" x1="245" x2="245" y1="796.1941" y2="816.1941"/><polygon fill="#A80036" points="241,806.1941,245,816.1941,249,806.1941,245,810.1941" style="stroke: #A80036; stroke-width: 1.0;"/><line style="stroke: #A80036; stroke-width: 1.5;" x1="245" x2="245" y1="852.5382" y2="872.5382"/><polygon fill="#A80036" points="241,862.5382,245,872.5382,249,862.5382,245,866.5382" style="stroke: #A80036; stroke-width: 1.0;"/><line style="stroke: #A80036; stroke-width: 1.5;" x1="245" x2="245" y1="941.5705" y2="961.5705"/><polygon fill="#A80036" points="241,951.5705,245,961.5705,249,951.5705,245,955.5705" style="stroke: #A80036; stroke-width: 1.0;"/><!--MD5=[b4678c7bd1d989d3f9270058d181fe4a]
@startuml AllExceptionsFilter Processing
skinparam backgroundColor white
skinparam activityArrowThickness 2

start
:Exception caught by\nAllExceptionsFilter;

if (instanceof HttpException?) then (yes)
  :status = exception.getStatus();
else (no)
  :status = 500\n(INTERNAL_SERVER_ERROR);
endif

if (instanceof BaseServiceException?) then (yes)
  :errorCode = exception.getErrorCode();
else (instanceof HttpException?)
  :errorCode = response.errorCode\n|| 'INTERNAL_ERROR';
endif

:Traverse cause chain\n(getDeepestErrorCode);
if (causeCode == errorCode?) then (yes)
  :causeCode = undefined\n(omit from response);
else (no)
  :Include causeCode\nin response;
endif

:userMessage = getDeepestHttpExceptionMessage()\n→ most specific message from\ndeepest HttpException in chain;

:Log to Winston:
- exceptionType
- method, url, ip
- errorCode, causeCode
- causeChain[]
- stack trace;

:Return JSON response:
{statusCode, timestamp, path,
 errorCode, causeCode?, message};
stop
@enduml

PlantUML version 1.2020.02(Sun Mar 01 07:22:07 ART 2020)
(GPL source distribution)
Java Runtime: OpenJDK Runtime Environment
JVM: OpenJDK 64-Bit Server VM
Java Version: 21.0.11-ea+5-[Ubuntu-1]
Operating System: Linux
Default Encoding: UTF-8
Language: en
Country: US
--></g></svg>