<?xml version="1.0" encoding="UTF-8" standalone="no"?><svg xmlns="http://www.w3.org/2000/svg" xmlns:xlink="http://www.w3.org/1999/xlink" contentScriptType="application/ecmascript" contentStyleType="text/css" height="820px" preserveAspectRatio="none" style="width:578px;height:820px;" version="1.1" viewBox="0 0 578 820" width="578px" zoomAndPan="magnify"><defs><filter height="300%" id="f1jol0r1tvphvm" width="300%" x="-1" y="-1"><feGaussianBlur result="blurOut" stdDeviation="2.0"/><feColorMatrix in="blurOut" result="blurOut2" type="matrix" values="0 0 0 0 0 0 0 0 0 0 0 0 0 0 0 0 0 0 .4 0"/><feOffset dx="4.0" dy="4.0" in="blurOut2" result="blurOut3"/><feBlend in="SourceGraphic" in2="blurOut3" mode="normal"/></filter></defs><g><rect fill="#FFFFFF" filter="url(#f1jol0r1tvphvm)" height="572.4143" style="stroke: #A80036; stroke-width: 1.0;" width="10" x="173.5" y="140.4799"/><rect fill="#FFFFFF" filter="url(#f1jol0r1tvphvm)" height="31.706" style="stroke: #A80036; stroke-width: 1.0;" width="10" x="375.5" y="234.598"/><rect fill="#FFFFFF" filter="url(#f1jol0r1tvphvm)" height="31.706" style="stroke: #A80036; stroke-width: 1.0;" width="10" x="450" y="298.01"/><rect fill="#FFFFFF" filter="url(#f1jol0r1tvphvm)" height="31.706" style="stroke: #A80036; stroke-width: 1.0;" width="10" x="450" y="548.3642"/><rect fill="#FFFFFF" filter="url(#f1jol0r1tvphvm)" height="31.706" style="stroke: #A80036; stroke-width: 1.0;" width="10" x="524" y="681.1882"/><rect fill="#ADD8E6" filter="url(#f1jol0r1tvphvm)" height="207.9421" style="stroke: #000000; stroke-width: 2.0;" width="364" x="122.5" y="442.5401"/><line style="stroke: #A80036; stroke-width: 1.0; stroke-dasharray: 5.0,5.0;" x1="38" x2="38" y1="89.0679" y2="730.8943"/><line style="stroke: #A80036; stroke-width: 1.0; stroke-dasharray: 5.0,5.0;" x1="178.5" x2="178.5" y1="89.0679" y2="730.8943"/><line style="stroke: #A80036; stroke-width: 1.0; stroke-dasharray: 5.0,5.0;" x1="380.5" x2="380.5" y1="89.0679" y2="730.8943"/><line style="stroke: #A80036; stroke-width: 1.0; stroke-dasharray: 5.0,5.0;" x1="454.5" x2="454.5" y1="89.0679" y2="730.8943"/><line style="stroke: #A80036; stroke-width: 1.0; stroke-dasharray: 5.0,5.0;" x1="528.5" x2="528.5" y1="89.0679" y2="730.8943"/><text fill="#000000" font-family="sans-serif" font-size="14" lengthAdjust="spacingAndGlyphs" textLength="55" x="8" y="84.9659">Browser</text><ellipse cx="38.5" cy="13" fill="#FEFECE" filter="url(#f1jol0r1tvphvm)" rx="8" ry="8" style="stroke: #A80036; stroke-width: 2.0;"/><path d="M38.5,21 L38.5,48 M25.5,29 L51.5,29 M38.5,48 L25.5,63 M38.5,48 L51.5,63 " fill="none" filter="url(#f1jol0r1tvphvm)" style="stroke: #A80036; stroke-width: 2.0;"/><text fill="#000000" font-family="sans-serif" font-size="14" lengthAdjust="spacingAndGlyphs" textLength="55" x="8" y="744.8602">Browser</text><ellipse cx="38.5" cy="758.9622" fill="#FEFECE" filter="url(#f1jol0r1tvphvm)" rx="8" ry="8" style="stroke: #A80036; stroke-width: 2.0;"/><path d="M38.5,766.9622 L38.5,793.9622 M25.5,774.9622 L51.5,774.9622 M38.5,793.9622 L25.5,808.9622 M38.5,793.9622 L51.5,808.9622 " fill="none" filter="url(#f1jol0r1tvphvm)" style="stroke: #A80036; stroke-width: 2.0;"/><rect fill="#FEFECE" filter="url(#f1jol0r1tvphvm)" height="33.0679" style="stroke: #A80036; stroke-width: 1.5;" width="88" x="132.5" y="51"/><text fill="#000000" font-family="sans-serif" font-size="14" lengthAdjust="spacingAndGlyphs" textLength="74" x="139.5" y="72.9659">AuthGuard</text><rect fill="#FEFECE" filter="url(#f1jol0r1tvphvm)" height="33.0679" style="stroke: #A80036; stroke-width: 1.5;" width="88" x="132.5" y="729.8943"/><text fill="#000000" font-family="sans-serif" font-size="14" lengthAdjust="spacingAndGlyphs" textLength="74" x="139.5" y="751.8602">AuthGuard</text><rect fill="#FEFECE" filter="url(#f1jol0r1tvphvm)" height="33.0679" style="stroke: #A80036; stroke-width: 1.5;" width="82" x="337.5" y="51"/><text fill="#000000" font-family="sans-serif" font-size="14" lengthAdjust="spacingAndGlyphs" textLength="68" x="344.5" y="72.9659">JwtService</text><rect fill="#FEFECE" filter="url(#f1jol0r1tvphvm)" height="33.0679" style="stroke: #A80036; stroke-width: 1.5;" width="82" x="337.5" y="729.8943"/><text fill="#000000" font-family="sans-serif" font-size="14" lengthAdjust="spacingAndGlyphs" textLength="68" x="344.5" y="751.8602">JwtService</text><text fill="#000000" font-family="sans-serif" font-size="14" lengthAdjust="spacingAndGlyphs" textLength="37" x="433.5" y="84.9659">Redis</text><path d="M437,34 C437,24 455,24 455,24 C455,24 473,24 473,34 L473,60 C473,70 455,70 455,70 C455,70 437,70 437,60 L437,34 " fill="#FEFECE" filter="url(#f1jol0r1tvphvm)" style="stroke: #000000; stroke-width: 1.5;"/><path d="M437,34 C437,44 455,44 455,44 C455,44 473,44 473,34 " fill="none" style="stroke: #000000; stroke-width: 1.5;"/><text fill="#000000" font-family="sans-serif" font-size="14" lengthAdjust="spacingAndGlyphs" textLength="37" x="433.5" y="744.8602">Redis</text><path d="M437,758.9622 C437,748.9622 455,748.9622 455,748.9622 C455,748.9622 473,748.9622 473,758.9622 L473,784.9622 C473,794.9622 455,794.9622 455,794.9622 C455,794.9622 437,794.9622 437,784.9622 L437,758.9622 " fill="#FEFECE" filter="url(#f1jol0r1tvphvm)" style="stroke: #000000; stroke-width: 1.5;"/><path d="M437,758.9622 C437,768.9622 455,768.9622 455,768.9622 C455,768.9622 473,768.9622 473,758.9622 " fill="none" style="stroke: #000000; stroke-width: 1.5;"/><rect fill="#FEFECE" filter="url(#f1jol0r1tvphvm)" height="33.0679" style="stroke: #A80036; stroke-width: 1.5;" width="81" x="486.5" y="51"/><text fill="#000000" font-family="sans-serif" font-size="14" lengthAdjust="spacingAndGlyphs" textLength="67" x="493.5" y="72.9659">Controller</text><rect fill="#FEFECE" filter="url(#f1jol0r1tvphvm)" height="33.0679" style="stroke: #A80036; stroke-width: 1.5;" width="81" x="486.5" y="729.8943"/><text fill="#000000" font-family="sans-serif" font-size="14" lengthAdjust="spacingAndGlyphs" textLength="67" x="493.5" y="751.8602">Controller</text><rect fill="#FFFFFF" filter="url(#f1jol0r1tvphvm)" height="572.4143" style="stroke: #A80036; stroke-width: 1.0;" width="10" x="173.5" y="140.4799"/><rect fill="#FFFFFF" filter="url(#f1jol0r1tvphvm)" height="31.706" style="stroke: #A80036; stroke-width: 1.0;" width="10" x="375.5" y="234.598"/><rect fill="#FFFFFF" filter="url(#f1jol0r1tvphvm)" height="31.706" style="stroke: #A80036; stroke-width: 1.0;" width="10" x="450" y="298.01"/><rect fill="#FFFFFF" filter="url(#f1jol0r1tvphvm)" height="31.706" style="stroke: #A80036; stroke-width: 1.0;" width="10" x="450" y="548.3642"/><rect fill="#FFFFFF" filter="url(#f1jol0r1tvphvm)" height="31.706" style="stroke: #A80036; stroke-width: 1.0;" width="10" x="524" y="681.1882"/><polygon fill="#A80036" points="161.5,136.4799,171.5,140.4799,161.5,144.4799,165.5,140.4799" style="stroke: #A80036; stroke-width: 1.0;"/><line style="stroke: #A80036; stroke-width: 2.0;" x1="38.5" x2="167.5" y1="140.4799" y2="140.4799"/><text fill="#000000" font-family="sans-serif" font-size="13" lengthAdjust="spacingAndGlyphs" textLength="78" x="45.5" y="116.9649">GET /roles/all</text><text fill="#000000" font-family="sans-serif" font-size="13" lengthAdjust="spacingAndGlyphs" textLength="116" x="45.5" y="134.6709">Cookie: auth_token</text><line style="stroke: #A80036; stroke-width: 2.0;" x1="183.5" x2="225.5" y1="189.892" y2="189.892"/><line style="stroke: #A80036; stroke-width: 2.0;" x1="225.5" x2="225.5" y1="189.892" y2="202.892"/><line style="stroke: #A80036; stroke-width: 2.0;" x1="184.5" x2="225.5" y1="202.892" y2="202.892"/><polygon fill="#A80036" points="194.5,198.892,184.5,202.892,194.5,206.892,190.5,202.892" style="stroke: #A80036; stroke-width: 1.0;"/><text fill="#000000" font-family="sans-serif" font-size="13" lengthAdjust="spacingAndGlyphs" textLength="107" x="190.5" y="166.377">extractToken(req)</text><text fill="#000000" font-family="sans-serif" font-size="13" lengthAdjust="spacingAndGlyphs" textLength="151" x="190.5" y="184.083">req.cookies['auth_token']</text><polygon fill="#A80036" points="363.5,230.598,373.5,234.598,363.5,238.598,367.5,234.598" style="stroke: #A80036; stroke-width: 1.0;"/><line style="stroke: #A80036; stroke-width: 2.0;" x1="183.5" x2="369.5" y1="234.598" y2="234.598"/><text fill="#000000" font-family="sans-serif" font-size="13" lengthAdjust="spacingAndGlyphs" textLength="151" x="190.5" y="228.789">getPayload(token, 'auth')</text><polygon fill="#A80036" points="194.5,262.304,184.5,266.304,194.5,270.304,190.5,266.304" style="stroke: #A80036; stroke-width: 1.0;"/><line style="stroke: #A80036; stroke-width: 2.0; stroke-dasharray: 2.0,2.0;" x1="188.5" x2="379.5" y1="266.304" y2="266.304"/><text fill="#000000" font-family="sans-serif" font-size="13" lengthAdjust="spacingAndGlyphs" textLength="80" x="200.5" y="260.495">{email, sid, ...}</text><polygon fill="#A80036" points="438,294.01,448,298.01,438,302.01,442,298.01" style="stroke: #A80036; stroke-width: 1.0;"/><line style="stroke: #A80036; stroke-width: 2.0;" x1="183.5" x2="444" y1="298.01" y2="298.01"/><text fill="#000000" font-family="sans-serif" font-size="13" lengthAdjust="spacingAndGlyphs" textLength="134" x="190.5" y="292.201">GET auth_session:{sid}</text><polygon fill="#A80036" points="194.5,325.716,184.5,329.716,194.5,333.716,190.5,329.716" style="stroke: #A80036; stroke-width: 1.0;"/><line style="stroke: #A80036; stroke-width: 2.0; stroke-dasharray: 2.0,2.0;" x1="188.5" x2="454" y1="329.716" y2="329.716"/><text fill="#000000" font-family="sans-serif" font-size="13" lengthAdjust="spacingAndGlyphs" textLength="78" x="200.5" y="323.907">session JSON</text><line style="stroke: #A80036; stroke-width: 2.0;" x1="183.5" x2="225.5" y1="414.5401" y2="414.5401"/><line style="stroke: #A80036; stroke-width: 2.0;" x1="225.5" x2="225.5" y1="414.5401" y2="427.5401"/><line style="stroke: #A80036; stroke-width: 2.0;" x1="184.5" x2="225.5" y1="427.5401" y2="427.5401"/><polygon fill="#A80036" points="194.5,423.5401,184.5,427.5401,194.5,431.5401,190.5,427.5401" style="stroke: #A80036; stroke-width: 1.0;"/><text fill="#000000" font-family="sans-serif" font-size="13" lengthAdjust="spacingAndGlyphs" textLength="51" x="190.5" y="355.6131">Validate:</text><text fill="#000000" font-family="sans-serif" font-size="13" lengthAdjust="spacingAndGlyphs" textLength="89" x="190.5" y="373.3191">- session.active</text><text fill="#000000" font-family="sans-serif" font-size="13" lengthAdjust="spacingAndGlyphs" textLength="80" x="190.5" y="391.0251">- email match</text><text fill="#000000" font-family="sans-serif" font-size="13" lengthAdjust="spacingAndGlyphs" textLength="105" x="190.5" y="408.7311">- IP subnet match</text><path d="M122.5,442.5401 L306.5,442.5401 L306.5,451.5401 L296.5,461.5401 L122.5,461.5401 L122.5,442.5401 " fill="#EEEEEE" style="stroke: #000000; stroke-width: 1.0;"/><rect fill="none" height="207.9421" style="stroke: #000000; stroke-width: 2.0;" width="364" x="122.5" y="442.5401"/><text fill="#000000" font-family="sans-serif" font-size="13" font-weight="bold" lengthAdjust="spacingAndGlyphs" textLength="139" x="137.5" y="457.4371">Dynamic Permissions</text><line style="stroke: #A80036; stroke-width: 2.0;" x1="183.5" x2="225.5" y1="503.6582" y2="503.6582"/><line style="stroke: #A80036; stroke-width: 2.0;" x1="225.5" x2="225.5" y1="503.6582" y2="516.6582"/><line style="stroke: #A80036; stroke-width: 2.0;" x1="184.5" x2="225.5" y1="516.6582" y2="516.6582"/><polygon fill="#A80036" points="194.5,512.6582,184.5,516.6582,194.5,520.6582,190.5,516.6582" style="stroke: #A80036; stroke-width: 1.0;"/><text fill="#000000" font-family="sans-serif" font-size="13" lengthAdjust="spacingAndGlyphs" textLength="138" x="190.5" y="480.1431">Resolve @EndpointKey</text><text fill="#000000" font-family="sans-serif" font-size="13" lengthAdjust="spacingAndGlyphs" textLength="73" x="190.5" y="497.8492">via Reflector</text><polygon fill="#A80036" points="438,544.3642,448,548.3642,438,552.3642,442,548.3642" style="stroke: #A80036; stroke-width: 1.0;"/><line style="stroke: #A80036; stroke-width: 2.0;" x1="183.5" x2="444" y1="548.3642" y2="548.3642"/><text fill="#000000" font-family="sans-serif" font-size="13" lengthAdjust="spacingAndGlyphs" textLength="136" x="190.5" y="542.5552">GET epr:{endpointKey}</text><polygon fill="#A80036" points="194.5,576.0702,184.5,580.0702,194.5,584.0702,190.5,580.0702" style="stroke: #A80036; stroke-width: 1.0;"/><line style="stroke: #A80036; stroke-width: 2.0; stroke-dasharray: 2.0,2.0;" x1="188.5" x2="454" y1="580.0702" y2="580.0702"/><text fill="#000000" font-family="sans-serif" font-size="13" lengthAdjust="spacingAndGlyphs" textLength="134" x="200.5" y="574.2612">required permissions[]</text><line style="stroke: #A80036; stroke-width: 2.0;" x1="183.5" x2="225.5" y1="629.4822" y2="629.4822"/><line style="stroke: #A80036; stroke-width: 2.0;" x1="225.5" x2="225.5" y1="629.4822" y2="642.4822"/><line style="stroke: #A80036; stroke-width: 2.0;" x1="184.5" x2="225.5" y1="642.4822" y2="642.4822"/><polygon fill="#A80036" points="194.5,638.4822,184.5,642.4822,194.5,646.4822,190.5,642.4822" style="stroke: #A80036; stroke-width: 1.0;"/><text fill="#000000" font-family="sans-serif" font-size="13" lengthAdjust="spacingAndGlyphs" textLength="158" x="190.5" y="605.9672">Check session.permissions</text><text fill="#000000" font-family="sans-serif" font-size="13" lengthAdjust="spacingAndGlyphs" textLength="178" x="190.5" y="623.6732">includes required permissions</text><polygon fill="#A80036" points="512,677.1882,522,681.1882,512,685.1882,516,681.1882" style="stroke: #A80036; stroke-width: 1.0;"/><line style="stroke: #A80036; stroke-width: 2.0;" x1="183.5" x2="518" y1="681.1882" y2="681.1882"/><text fill="#000000" font-family="sans-serif" font-size="13" lengthAdjust="spacingAndGlyphs" textLength="145" x="190.5" y="675.3792">request.user = AuthUser</text><polygon fill="#A80036" points="49.5,708.8943,39.5,712.8943,49.5,716.8943,45.5,712.8943" style="stroke: #A80036; stroke-width: 1.0;"/><line style="stroke: #A80036; stroke-width: 2.0; stroke-dasharray: 2.0,2.0;" x1="43.5" x2="528" y1="712.8943" y2="712.8943"/><text fill="#000000" font-family="sans-serif" font-size="13" lengthAdjust="spacingAndGlyphs" textLength="58" x="55.5" y="707.0853">Response</text><!--MD5=[1442b8723b3d666598b0104aec76c394]
@startuml Authenticated Request Flow
skinparam backgroundColor white
skinparam sequenceArrowThickness 2

actor Browser as browser
participant "AuthGuard" as guard
participant "JwtService" as jwt
database "Redis" as redis
participant "Controller" as ctrl

browser -> guard : GET /roles/all\nCookie: auth_token
activate guard

guard -> guard : extractToken(req)\nreq.cookies['auth_token']

guard -> jwt : getPayload(token, 'auth')
activate jwt
jwt - -> guard : {email, sid, ...}
deactivate jwt

guard -> redis : GET auth_session:{sid}
activate redis
redis - -> guard : session JSON
deactivate redis

guard -> guard : Validate:\n- session.active\n- email match\n- IP subnet match

group #LightBlue Dynamic Permissions
  guard -> guard : Resolve @EndpointKey\nvia Reflector
  guard -> redis : GET epr:{endpointKey}
  activate redis
  redis - -> guard : required permissions[]
  deactivate redis
  guard -> guard : Check session.permissions\nincludes required permissions
end

guard -> ctrl : request.user = AuthUser
activate ctrl
ctrl - -> browser : Response
deactivate ctrl
deactivate guard
@enduml

PlantUML version 1.2020.02(Sun Mar 01 07:22:07 ART 2020)
(GPL source distribution)
Java Runtime: OpenJDK Runtime Environment
JVM: OpenJDK 64-Bit Server VM
Java Version: 21.0.11-ea+5-[Ubuntu-1]
Operating System: Linux
Default Encoding: UTF-8
Language: en
Country: US
--></g></svg>