<?xml version="1.0" encoding="UTF-8" standalone="no"?><svg xmlns="http://www.w3.org/2000/svg" xmlns:xlink="http://www.w3.org/1999/xlink" contentScriptType="application/ecmascript" contentStyleType="text/css" height="949px" preserveAspectRatio="none" style="width:699px;height:949px;" version="1.1" viewBox="0 0 699 949" width="699px" zoomAndPan="magnify"><defs><filter height="300%" id="f1eaa2oxv3t7p0" width="300%" x="-1" y="-1"><feGaussianBlur result="blurOut" stdDeviation="2.0"/><feColorMatrix in="blurOut" result="blurOut2" type="matrix" values="0 0 0 0 0 0 0 0 0 0 0 0 0 0 0 0 0 0 .4 0"/><feOffset dx="4.0" dy="4.0" in="blurOut2" result="blurOut3"/><feBlend in="SourceGraphic" in2="blurOut3" mode="normal"/></filter></defs><g><ellipse cx="436.875" cy="20" fill="#000000" filter="url(#f1eaa2oxv3t7p0)" rx="10" ry="10" style="stroke: none; stroke-width: 1.0;"/><rect fill="#FEFECE" filter="url(#f1eaa2oxv3t7p0)" height="36.3441" rx="12.5" ry="12.5" style="stroke: #A80036; stroke-width: 1.5;" width="190" x="341.875" y="50"/><text fill="#000000" font-family="sans-serif" font-size="12" lengthAdjust="spacingAndGlyphs" textLength="101" x="351.875" y="72.8281">Request arrives at</text><text fill="#000000" font-family="sans-serif" font-size="12" font-weight="bold" lengthAdjust="spacingAndGlyphs" textLength="66" x="455.875" y="72.8281">AuthGuard</text><polygon fill="#FEFECE" filter="url(#f1eaa2oxv3t7p0)" points="378.375,106.3441,495.375,106.3441,507.375,118.3441,495.375,130.3441,378.375,130.3441,366.375,118.3441,378.375,106.3441" style="stroke: #A80036; stroke-width: 1.5;"/><text fill="#000000" font-family="sans-serif" font-size="11" lengthAdjust="spacingAndGlyphs" textLength="117" x="378.375" y="122.6121">@EndpointKey found?</text><text fill="#000000" font-family="sans-serif" font-size="11" lengthAdjust="spacingAndGlyphs" textLength="17" x="349.375" y="115.1211">yes</text><text fill="#000000" font-family="sans-serif" font-size="11" lengthAdjust="spacingAndGlyphs" textLength="14" x="507.375" y="115.1211">no</text><rect fill="#FEFECE" filter="url(#f1eaa2oxv3t7p0)" height="36.3441" rx="12.5" ry="12.5" style="stroke: #A80036; stroke-width: 1.5;" width="138" x="216.5" y="140.3441"/><text fill="#000000" font-family="sans-serif" font-size="12" lengthAdjust="spacingAndGlyphs" textLength="118" x="226.5" y="163.1722">Look up dynamic rule</text><rect fill="#FEFECE" filter="url(#f1eaa2oxv3t7p0)" height="52.6882" rx="12.5" ry="12.5" style="stroke: #A80036; stroke-width: 1.5;" width="130" x="220.5" y="211.6882"/><text fill="#000000" font-family="sans-serif" font-size="12" lengthAdjust="spacingAndGlyphs" textLength="103" x="230.5" y="234.5163">Check Redis cache</text><text fill="#000000" font-family="sans-serif" font-size="12" font-weight="bold" lengthAdjust="spacingAndGlyphs" textLength="110" x="230.5" y="250.8604">epr:{endpointKey}</text><polygon fill="#FEFECE" filter="url(#f1eaa2oxv3t7p0)" points="259,284.3765,312,284.3765,324,296.3765,312,308.3765,259,308.3765,247,296.3765,259,284.3765" style="stroke: #A80036; stroke-width: 1.5;"/><text fill="#000000" font-family="sans-serif" font-size="11" lengthAdjust="spacingAndGlyphs" textLength="53" x="259" y="300.6444">Cache hit?</text><text fill="#000000" font-family="sans-serif" font-size="11" lengthAdjust="spacingAndGlyphs" textLength="17" x="230" y="293.1535">yes</text><text fill="#000000" font-family="sans-serif" font-size="11" lengthAdjust="spacingAndGlyphs" textLength="14" x="324" y="293.1535">no</text><rect fill="#FEFECE" filter="url(#f1eaa2oxv3t7p0)" height="36.3441" rx="12.5" ry="12.5" style="stroke: #A80036; stroke-width: 1.5;" width="156" x="121.25" y="318.3765"/><text fill="#000000" font-family="sans-serif" font-size="12" lengthAdjust="spacingAndGlyphs" textLength="136" x="131.25" y="341.2045">Use cached permissions</text><rect fill="#FEFECE" filter="url(#f1eaa2oxv3t7p0)" height="52.6882" rx="12.5" ry="12.5" style="stroke: #A80036; stroke-width: 1.5;" width="122" x="310.75" y="318.3765"/><text fill="#000000" font-family="sans-serif" font-size="12" lengthAdjust="spacingAndGlyphs" textLength="102" x="320.75" y="341.2045">Query PostgreSQL</text><text fill="#000000" font-family="sans-serif" font-size="12" lengthAdjust="spacingAndGlyphs" textLength="51" x="320.75" y="357.5487">(fallback)</text><rect fill="#FEFECE" filter="url(#f1eaa2oxv3t7p0)" height="36.3441" rx="12.5" ry="12.5" style="stroke: #A80036; stroke-width: 1.5;" width="129" x="307.25" y="440.5556"/><text fill="#000000" font-family="sans-serif" font-size="12" lengthAdjust="spacingAndGlyphs" textLength="109" x="317.25" y="463.3837">Backfill Redis cache</text><polygon fill="#FEFECE" filter="url(#f1eaa2oxv3t7p0)" points="340.25,391.0647,403.25,391.0647,415.25,403.0647,403.25,415.0647,340.25,415.0647,328.25,403.0647,340.25,391.0647" style="stroke: #A80036; stroke-width: 1.5;"/><text fill="#000000" font-family="sans-serif" font-size="11" lengthAdjust="spacingAndGlyphs" textLength="17" x="375.75" y="426.8236">yes</text><text fill="#000000" font-family="sans-serif" font-size="11" lengthAdjust="spacingAndGlyphs" textLength="63" x="340.25" y="407.3327">Rule found?</text><polygon fill="#FEFECE" filter="url(#f1eaa2oxv3t7p0)" points="371.75,496.8997,383.75,508.8997,371.75,520.8997,359.75,508.8997,371.75,496.8997" style="stroke: #A80036; stroke-width: 1.5;"/><polygon fill="#FEFECE" filter="url(#f1eaa2oxv3t7p0)" points="285.5,526.8997,297.5,538.8997,285.5,550.8997,273.5,538.8997,285.5,526.8997" style="stroke: #A80036; stroke-width: 1.5;"/><polygon fill="#FEFECE" filter="url(#f1eaa2oxv3t7p0)" points="226,570.8997,345,570.8997,357,582.8997,345,594.8997,226,594.8997,214,582.8997,226,570.8997" style="stroke: #A80036; stroke-width: 1.5;"/><text fill="#000000" font-family="sans-serif" font-size="11" lengthAdjust="spacingAndGlyphs" textLength="119" x="226" y="587.1677">Rule found &amp; enabled?</text><text fill="#000000" font-family="sans-serif" font-size="11" lengthAdjust="spacingAndGlyphs" textLength="17" x="197" y="579.6768">yes</text><text fill="#000000" font-family="sans-serif" font-size="11" lengthAdjust="spacingAndGlyphs" textLength="92" x="357" y="579.6768">no rule / disabled</text><rect fill="#FEFECE" filter="url(#f1eaa2oxv3t7p0)" height="52.6882" rx="12.5" ry="12.5" style="stroke: #A80036; stroke-width: 1.5;" width="177" x="78" y="604.8997"/><text fill="#000000" font-family="sans-serif" font-size="12" lengthAdjust="spacingAndGlyphs" textLength="114" x="88" y="627.7278">Enforce permissions</text><text fill="#000000" font-family="sans-serif" font-size="12" lengthAdjust="spacingAndGlyphs" textLength="157" x="88" y="644.0719">against session.permissions</text><polygon fill="#FEFECE" filter="url(#f1eaa2oxv3t7p0)" points="86.5,677.588,246.5,677.588,258.5,689.588,246.5,701.588,86.5,701.588,74.5,689.588,86.5,677.588" style="stroke: #A80036; stroke-width: 1.5;"/><text fill="#000000" font-family="sans-serif" font-size="11" lengthAdjust="spacingAndGlyphs" textLength="160" x="86.5" y="693.8559">User has required permission?</text><text fill="#000000" font-family="sans-serif" font-size="11" lengthAdjust="spacingAndGlyphs" textLength="17" x="57.5" y="686.365">yes</text><text fill="#000000" font-family="sans-serif" font-size="11" lengthAdjust="spacingAndGlyphs" textLength="14" x="258.5" y="686.365">no</text><rect fill="#90EE90" filter="url(#f1eaa2oxv3t7p0)" height="36.3441" rx="12.5" ry="12.5" style="stroke: #A80036; stroke-width: 1.5;" width="109" x="10" y="711.588"/><text fill="#000000" font-family="sans-serif" font-size="12" lengthAdjust="spacingAndGlyphs" textLength="39" x="20" y="734.4161">Access</text><text fill="#000000" font-family="sans-serif" font-size="12" font-weight="bold" lengthAdjust="spacingAndGlyphs" textLength="47" x="62" y="734.4161">allowed</text><rect fill="#FA8072" filter="url(#f1eaa2oxv3t7p0)" height="52.6882" rx="12.5" ry="12.5" style="stroke: #A80036; stroke-width: 1.5;" width="108" x="214.5" y="711.588"/><text fill="#000000" font-family="sans-serif" font-size="12" lengthAdjust="spacingAndGlyphs" textLength="39" x="224.5" y="734.4161">Access</text><text fill="#000000" font-family="sans-serif" font-size="12" font-weight="bold" lengthAdjust="spacingAndGlyphs" textLength="42" x="266.5" y="734.4161">denied</text><text fill="#000000" font-family="sans-serif" font-size="12" lengthAdjust="spacingAndGlyphs" textLength="88" x="224.5" y="750.7602">(403 Forbidden)</text><ellipse cx="268.5" cy="795.2762" fill="#FFFFFF" filter="url(#f1eaa2oxv3t7p0)" rx="11" ry="11" style="stroke: #000000; stroke-width: 1.0;"/><ellipse cx="268.5" cy="795.2762" fill="#000000" rx="6" ry="6" style="stroke: #7F7F7F; stroke-width: 1.0;"/><rect fill="#FA8072" filter="url(#f1eaa2oxv3t7p0)" height="52.6882" rx="12.5" ry="12.5" style="stroke: #A80036; stroke-width: 1.5;" width="104" x="352.5" y="604.8997"/><text fill="#000000" font-family="sans-serif" font-size="12" lengthAdjust="spacingAndGlyphs" textLength="39" x="362.5" y="627.7278">Access</text><text fill="#000000" font-family="sans-serif" font-size="12" font-weight="bold" lengthAdjust="spacingAndGlyphs" textLength="42" x="404.5" y="627.7278">denied</text><text fill="#000000" font-family="sans-serif" font-size="12" lengthAdjust="spacingAndGlyphs" textLength="65" x="362.5" y="644.0719">(fail-closed)</text><ellipse cx="404.5" cy="688.588" fill="#FFFFFF" filter="url(#f1eaa2oxv3t7p0)" rx="11" ry="11" style="stroke: #000000; stroke-width: 1.0;"/><ellipse cx="404.5" cy="688.588" fill="#000000" rx="6" ry="6" style="stroke: #7F7F7F; stroke-width: 1.0;"/><rect fill="#90EE90" filter="url(#f1eaa2oxv3t7p0)" height="52.6882" rx="12.5" ry="12.5" style="stroke: #A80036; stroke-width: 1.5;" width="200" x="488.25" y="140.3441"/><text fill="#000000" font-family="sans-serif" font-size="12" lengthAdjust="spacingAndGlyphs" textLength="39" x="498.25" y="163.1722">Access</text><text fill="#000000" font-family="sans-serif" font-size="12" font-weight="bold" lengthAdjust="spacingAndGlyphs" textLength="47" x="540.25" y="163.1722">allowed</text><text fill="#000000" font-family="sans-serif" font-size="12" lengthAdjust="spacingAndGlyphs" textLength="180" x="498.25" y="179.5163">(not protected by dynamic rules)</text><polygon fill="#FEFECE" filter="url(#f1eaa2oxv3t7p0)" points="436.875,816.2762,448.875,828.2762,436.875,840.2762,424.875,828.2762,436.875,816.2762" style="stroke: #A80036; stroke-width: 1.5;"/><rect fill="#FEFECE" filter="url(#f1eaa2oxv3t7p0)" height="36.3441" rx="12.5" ry="12.5" style="stroke: #A80036; stroke-width: 1.5;" width="187" x="343.375" y="860.2762"/><text fill="#000000" font-family="sans-serif" font-size="12" lengthAdjust="spacingAndGlyphs" textLength="167" x="353.375" y="883.1043">Continue to controller handler</text><ellipse cx="436.875" cy="927.6203" fill="#FFFFFF" filter="url(#f1eaa2oxv3t7p0)" rx="11" ry="11" style="stroke: #000000; stroke-width: 1.0;"/><ellipse cx="436.875" cy="927.6203" fill="#000000" rx="6" ry="6" style="stroke: #7F7F7F; stroke-width: 1.0;"/><line style="stroke: #A80036; stroke-width: 1.5;" x1="436.875" x2="436.875" y1="30" y2="50"/><polygon fill="#A80036" points="432.875,40,436.875,50,440.875,40,436.875,44" style="stroke: #A80036; stroke-width: 1.0;"/><line style="stroke: #A80036; stroke-width: 1.5;" x1="285.5" x2="285.5" y1="176.6882" y2="211.6882"/><polygon fill="#A80036" points="281.5,201.6882,285.5,211.6882,289.5,201.6882,285.5,205.6882" style="stroke: #A80036; stroke-width: 1.0;"/><line style="stroke: #A80036; stroke-width: 1.5;" x1="371.75" x2="371.75" y1="415.0647" y2="440.5556"/><polygon fill="#A80036" points="367.75,430.5556,371.75,440.5556,375.75,430.5556,371.75,434.5556" style="stroke: #A80036; stroke-width: 1.0;"/><line style="stroke: #A80036; stroke-width: 1.5;" x1="415.25" x2="446.25" y1="403.0647" y2="403.0647"/><polygon fill="#A80036" points="442.25,448.7277,446.25,458.7277,450.25,448.7277,446.25,452.7277" style="stroke: #A80036; stroke-width: 1.5;"/><line style="stroke: #A80036; stroke-width: 1.5;" x1="446.25" x2="446.25" y1="403.0647" y2="508.8997"/><line style="stroke: #A80036; stroke-width: 1.5;" x1="446.25" x2="383.75" y1="508.8997" y2="508.8997"/><polygon fill="#A80036" points="393.75,504.8997,383.75,508.8997,393.75,512.8997,389.75,508.8997" style="stroke: #A80036; stroke-width: 1.0;"/><line style="stroke: #A80036; stroke-width: 1.5;" x1="371.75" x2="371.75" y1="476.8997" y2="496.8997"/><polygon fill="#A80036" points="367.75,486.8997,371.75,496.8997,375.75,486.8997,371.75,490.8997" style="stroke: #A80036; stroke-width: 1.0;"/><line style="stroke: #A80036; stroke-width: 1.5;" x1="371.75" x2="371.75" y1="371.0647" y2="391.0647"/><polygon fill="#A80036" points="367.75,381.0647,371.75,391.0647,375.75,381.0647,371.75,385.0647" style="stroke: #A80036; stroke-width: 1.0;"/><line style="stroke: #A80036; stroke-width: 1.5;" x1="247" x2="199.25" y1="296.3765" y2="296.3765"/><line style="stroke: #A80036; stroke-width: 1.5;" x1="199.25" x2="199.25" y1="296.3765" y2="318.3765"/><polygon fill="#A80036" points="195.25,308.3765,199.25,318.3765,203.25,308.3765,199.25,312.3765" style="stroke: #A80036; stroke-width: 1.0;"/><line style="stroke: #A80036; stroke-width: 1.5;" x1="324" x2="371.75" y1="296.3765" y2="296.3765"/><line style="stroke: #A80036; stroke-width: 1.5;" x1="371.75" x2="371.75" y1="296.3765" y2="318.3765"/><polygon fill="#A80036" points="367.75,308.3765,371.75,318.3765,375.75,308.3765,371.75,312.3765" style="stroke: #A80036; stroke-width: 1.0;"/><line style="stroke: #A80036; stroke-width: 1.5;" x1="199.25" x2="199.25" y1="354.7206" y2="538.8997"/><line style="stroke: #A80036; stroke-width: 1.5;" x1="199.25" x2="273.5" y1="538.8997" y2="538.8997"/><polygon fill="#A80036" points="263.5,534.8997,273.5,538.8997,263.5,542.8997,267.5,538.8997" style="stroke: #A80036; stroke-width: 1.0;"/><line style="stroke: #A80036; stroke-width: 1.5;" x1="371.75" x2="371.75" y1="520.8997" y2="538.8997"/><line style="stroke: #A80036; stroke-width: 1.5;" x1="371.75" x2="297.5" y1="538.8997" y2="538.8997"/><polygon fill="#A80036" points="307.5,534.8997,297.5,538.8997,307.5,542.8997,303.5,538.8997" style="stroke: #A80036; stroke-width: 1.0;"/><line style="stroke: #A80036; stroke-width: 1.5;" x1="285.5" x2="285.5" y1="264.3765" y2="284.3765"/><polygon fill="#A80036" points="281.5,274.3765,285.5,284.3765,289.5,274.3765,285.5,278.3765" style="stroke: #A80036; stroke-width: 1.0;"/><line style="stroke: #A80036; stroke-width: 1.5;" x1="268.5" x2="268.5" y1="764.2762" y2="784.2762"/><polygon fill="#A80036" points="264.5,774.2762,268.5,784.2762,272.5,774.2762,268.5,778.2762" style="stroke: #A80036; stroke-width: 1.0;"/><line style="stroke: #A80036; stroke-width: 1.5;" x1="74.5" x2="64.5" y1="689.588" y2="689.588"/><line style="stroke: #A80036; stroke-width: 1.5;" x1="64.5" x2="64.5" y1="689.588" y2="711.588"/><polygon fill="#A80036" points="60.5,701.588,64.5,711.588,68.5,701.588,64.5,705.588" style="stroke: #A80036; stroke-width: 1.0;"/><line style="stroke: #A80036; stroke-width: 1.5;" x1="258.5" x2="268.5" y1="689.588" y2="689.588"/><line style="stroke: #A80036; stroke-width: 1.5;" x1="268.5" x2="268.5" y1="689.588" y2="711.588"/><polygon fill="#A80036" points="264.5,701.588,268.5,711.588,272.5,701.588,268.5,705.588" style="stroke: #A80036; stroke-width: 1.0;"/><line style="stroke: #A80036; stroke-width: 1.5;" x1="64.5" x2="64.5" y1="747.9321" y2="828.2762"/><line style="stroke: #A80036; stroke-width: 1.5;" x1="64.5" x2="424.875" y1="828.2762" y2="828.2762"/><polygon fill="#A80036" points="414.875,824.2762,424.875,828.2762,414.875,832.2762,418.875,828.2762" style="stroke: #A80036; stroke-width: 1.0;"/><line style="stroke: #A80036; stroke-width: 1.5;" x1="166.5" x2="166.5" y1="657.588" y2="677.588"/><polygon fill="#A80036" points="162.5,667.588,166.5,677.588,170.5,667.588,166.5,671.588" style="stroke: #A80036; stroke-width: 1.0;"/><line style="stroke: #A80036; stroke-width: 1.5;" x1="404.5" x2="404.5" y1="657.588" y2="677.588"/><polygon fill="#A80036" points="400.5,667.588,404.5,677.588,408.5,667.588,404.5,671.588" style="stroke: #A80036; stroke-width: 1.0;"/><line style="stroke: #A80036; stroke-width: 1.5;" x1="214" x2="166.5" y1="582.8997" y2="582.8997"/><line style="stroke: #A80036; stroke-width: 1.5;" x1="166.5" x2="166.5" y1="582.8997" y2="604.8997"/><polygon fill="#A80036" points="162.5,594.8997,166.5,604.8997,170.5,594.8997,166.5,598.8997" style="stroke: #A80036; stroke-width: 1.0;"/><line style="stroke: #A80036; stroke-width: 1.5;" x1="357" x2="404.5" y1="582.8997" y2="582.8997"/><line style="stroke: #A80036; stroke-width: 1.5;" x1="404.5" x2="404.5" y1="582.8997" y2="604.8997"/><polygon fill="#A80036" points="400.5,594.8997,404.5,604.8997,408.5,594.8997,404.5,598.8997" style="stroke: #A80036; stroke-width: 1.0;"/><line style="stroke: #A80036; stroke-width: 1.5;" x1="285.5" x2="285.5" y1="550.8997" y2="570.8997"/><polygon fill="#A80036" points="281.5,560.8997,285.5,570.8997,289.5,560.8997,285.5,564.8997" style="stroke: #A80036; stroke-width: 1.0;"/><line style="stroke: #A80036; stroke-width: 1.5;" x1="366.375" x2="285.5" y1="118.3441" y2="118.3441"/><line style="stroke: #A80036; stroke-width: 1.5;" x1="285.5" x2="285.5" y1="118.3441" y2="140.3441"/><polygon fill="#A80036" points="281.5,130.3441,285.5,140.3441,289.5,130.3441,285.5,134.3441" style="stroke: #A80036; stroke-width: 1.0;"/><line style="stroke: #A80036; stroke-width: 1.5;" x1="507.375" x2="588.25" y1="118.3441" y2="118.3441"/><line style="stroke: #A80036; stroke-width: 1.5;" x1="588.25" x2="588.25" y1="118.3441" y2="140.3441"/><polygon fill="#A80036" points="584.25,130.3441,588.25,140.3441,592.25,130.3441,588.25,134.3441" style="stroke: #A80036; stroke-width: 1.0;"/><line style="stroke: #A80036; stroke-width: 1.5;" x1="588.25" x2="588.25" y1="193.0323" y2="828.2762"/><line style="stroke: #A80036; stroke-width: 1.5;" x1="588.25" x2="448.875" y1="828.2762" y2="828.2762"/><polygon fill="#A80036" points="458.875,824.2762,448.875,828.2762,458.875,832.2762,454.875,828.2762" style="stroke: #A80036; stroke-width: 1.0;"/><line style="stroke: #A80036; stroke-width: 1.5;" x1="436.875" x2="436.875" y1="86.3441" y2="106.3441"/><polygon fill="#A80036" points="432.875,96.3441,436.875,106.3441,440.875,96.3441,436.875,100.3441" style="stroke: #A80036; stroke-width: 1.0;"/><line style="stroke: #A80036; stroke-width: 1.5;" x1="436.875" x2="436.875" y1="840.2762" y2="860.2762"/><polygon fill="#A80036" points="432.875,850.2762,436.875,860.2762,440.875,850.2762,436.875,854.2762" style="stroke: #A80036; stroke-width: 1.0;"/><line style="stroke: #A80036; stroke-width: 1.5;" x1="436.875" x2="436.875" y1="896.6203" y2="916.6203"/><polygon fill="#A80036" points="432.875,906.6203,436.875,916.6203,440.875,906.6203,436.875,910.6203" style="stroke: #A80036; stroke-width: 1.0;"/><!--MD5=[1959e66f09838f5c9bd85c63c14de33e]
@startuml Dynamic Endpoint Permission Resolution
skinparam backgroundColor white
skinparam activityArrowThickness 2

start

:Request arrives at **AuthGuard**;

if (@EndpointKey found?) then (yes)
  :Look up dynamic rule;

  :Check Redis cache\n**epr:{endpointKey}**;
  if (Cache hit?) then (yes)
    :Use cached permissions;
  else (no)
    :Query PostgreSQL\n(fallback);
    if (Rule found?) then (yes)
      :Backfill Redis cache;
    endif
  endif

  if (Rule found & enabled?) then (yes)
    :Enforce permissions\nagainst session.permissions;
    if (User has required permission?) then (yes)
      #LightGreen:Access **allowed**;
    else (no)
      #Salmon:Access **denied**\n(403 Forbidden);
      stop
    endif
  else (no rule / disabled)
    #Salmon:Access **denied**\n(fail-closed);
    stop
  endif

else (no)
  #LightGreen:Access **allowed**\n(not protected by dynamic rules);
endif

:Continue to controller handler;
stop
@enduml

PlantUML version 1.2020.02(Sun Mar 01 07:22:07 ART 2020)
(GPL source distribution)
Java Runtime: OpenJDK Runtime Environment
JVM: OpenJDK 64-Bit Server VM
Java Version: 21.0.11-ea+5-[Ubuntu-1]
Operating System: Linux
Default Encoding: UTF-8
Language: en
Country: US
--></g></svg>