<?xml version="1.0" encoding="UTF-8" standalone="no"?><svg xmlns="http://www.w3.org/2000/svg" xmlns:xlink="http://www.w3.org/1999/xlink" contentScriptType="application/ecmascript" contentStyleType="text/css" height="577px" preserveAspectRatio="none" style="width:1780px;height:577px;" version="1.1" viewBox="0 0 1780 577" width="1780px" zoomAndPan="magnify"><defs><filter height="300%" id="f1nz4isl5dyc6d" width="300%" x="-1" y="-1"><feGaussianBlur result="blurOut" stdDeviation="2.0"/><feColorMatrix in="blurOut" result="blurOut2" type="matrix" values="0 0 0 0 0 0 0 0 0 0 0 0 0 0 0 0 0 0 .4 0"/><feOffset dx="4.0" dy="4.0" in="blurOut2" result="blurOut3"/><feBlend in="SourceGraphic" in2="blurOut3" mode="normal"/></filter></defs><g><!--MD5=[b8cfd8c4119a3b0a7a46bfc5fc780f85]
class Error--><rect fill="#FEFECE" filter="url(#f1nz4isl5dyc6d)" height="84.9457" id="Error" style="stroke: #A80036; stroke-width: 1.5;" width="108" x="748" y="7.67"/><ellipse cx="784.15" cy="23.67" fill="#ADD1B2" rx="11" ry="11" style="stroke: #A80036; stroke-width: 1.0;"/><path d="M787.1188,29.3106 Q786.5406,29.6075 785.9,29.7481 Q785.2594,29.9044 784.5563,29.9044 Q782.0563,29.9044 780.7281,28.2637 Q779.4156,26.6075 779.4156,23.4825 Q779.4156,20.3575 780.7281,18.7012 Q782.0563,17.045 784.5563,17.045 Q785.2594,17.045 785.9,17.2012 Q786.5563,17.3575 787.1188,17.6544 L787.1188,20.3731 Q786.4938,19.795 785.9,19.5294 Q785.3063,19.2481 784.6813,19.2481 Q783.3375,19.2481 782.65,20.3262 Q781.9625,21.3887 781.9625,23.4825 Q781.9625,25.5762 782.65,26.6544 Q783.3375,27.7169 784.6813,27.7169 Q785.3063,27.7169 785.9,27.4512 Q786.4938,27.17 787.1188,26.5919 L787.1188,29.3106 Z "/><text fill="#000000" font-family="sans-serif" font-size="12" font-weight="bold" lengthAdjust="spacingAndGlyphs" textLength="29" x="802.85" y="28.326">Error</text><line style="stroke: #A80036; stroke-width: 1.5;" x1="749" x2="855" y1="39.67" y2="39.67"/><ellipse cx="759" cy="50.67" fill="none" rx="3" ry="3" style="stroke: #038048; stroke-width: 1.0;"/><text fill="#000000" font-family="sans-serif" font-size="11" lengthAdjust="spacingAndGlyphs" textLength="82" x="768" y="55.4289">message: string</text><ellipse cx="759" cy="65.6519" fill="none" rx="3" ry="3" style="stroke: #038048; stroke-width: 1.0;"/><text fill="#000000" font-family="sans-serif" font-size="11" lengthAdjust="spacingAndGlyphs" textLength="68" x="768" y="70.4108">cause?: Error</text><ellipse cx="759" cy="80.6338" fill="none" rx="3" ry="3" style="stroke: #038048; stroke-width: 1.0;"/><text fill="#000000" font-family="sans-serif" font-size="11" lengthAdjust="spacingAndGlyphs" textLength="63" x="768" y="85.3927">stack: string</text><!--MD5=[46b7ed722cc9e0494b8857eeea536895]
class HttpException--><rect fill="#FEFECE" filter="url(#f1nz4isl5dyc6d)" height="103.6339" id="HttpException" style="stroke: #A80036; stroke-width: 1.5;" width="118" x="743" y="152.61"/><ellipse cx="758" cy="173.9541" fill="#ADD1B2" rx="11" ry="11" style="stroke: #A80036; stroke-width: 1.0;"/><path d="M760.9688,179.5947 Q760.3906,179.8916 759.75,180.0322 Q759.1094,180.1885 758.4063,180.1885 Q755.9063,180.1885 754.5781,178.5479 Q753.2656,176.8916 753.2656,173.7666 Q753.2656,170.6416 754.5781,168.9854 Q755.9063,167.3291 758.4063,167.3291 Q759.1094,167.3291 759.75,167.4854 Q760.4063,167.6416 760.9688,167.9385 L760.9688,170.6572 Q760.3438,170.0791 759.75,169.8135 Q759.1563,169.5322 758.5313,169.5322 Q757.1875,169.5322 756.5,170.6104 Q755.8125,171.6729 755.8125,173.7666 Q755.8125,175.8604 756.5,176.9385 Q757.1875,178.001 758.5313,178.001 Q759.1563,178.001 759.75,177.7354 Q760.3438,177.4541 760.9688,176.876 L760.9688,179.5947 Z "/><text fill="#000000" font-family="sans-serif" font-size="12" font-style="italic" lengthAdjust="spacingAndGlyphs" textLength="44" x="793" y="170.4381">«NestJS»</text><text fill="#000000" font-family="sans-serif" font-size="12" font-weight="bold" lengthAdjust="spacingAndGlyphs" textLength="86" x="772" y="186.7822">HttpException</text><line style="stroke: #A80036; stroke-width: 1.5;" x1="744" x2="860" y1="195.2982" y2="195.2982"/><ellipse cx="754" cy="206.2982" fill="none" rx="3" ry="3" style="stroke: #038048; stroke-width: 1.0;"/><text fill="#000000" font-family="sans-serif" font-size="11" lengthAdjust="spacingAndGlyphs" textLength="79" x="763" y="211.0571">status: number</text><line style="stroke: #A80036; stroke-width: 1.5;" x1="744" x2="860" y1="218.2801" y2="218.2801"/><ellipse cx="754" cy="229.2801" fill="#84BE84" rx="3" ry="3" style="stroke: #038048; stroke-width: 1.0;"/><text fill="#000000" font-family="sans-serif" font-size="11" lengthAdjust="spacingAndGlyphs" textLength="73" x="763" y="234.039">getResponse()</text><ellipse cx="754" cy="244.262" fill="#84BE84" rx="3" ry="3" style="stroke: #038048; stroke-width: 1.0;"/><text fill="#000000" font-family="sans-serif" font-size="11" lengthAdjust="spacingAndGlyphs" textLength="55" x="763" y="249.0209">getStatus()</text><!--MD5=[54199be648239569337b4d7b59b7623b]
class BaseServiceException--><rect fill="#FEFECE" filter="url(#f1nz4isl5dyc6d)" height="107.9276" id="BaseServiceException" style="stroke: #A80036; stroke-width: 1.5;" width="275" x="664.5" y="316.25"/><ellipse cx="735.75" cy="332.25" fill="#A9DCDF" rx="11" ry="11" style="stroke: #A80036; stroke-width: 1.0;"/><path d="M735.8594,327.5938 L734.7031,332.6719 L737.0313,332.6719 L735.8594,327.5938 Z M734.375,325.3594 L737.3594,325.3594 L740.7188,337.75 L738.2656,337.75 L737.5,334.6875 L734.2188,334.6875 L733.4688,337.75 L731.0313,337.75 L734.375,325.3594 Z "/><text fill="#000000" font-family="sans-serif" font-size="12" font-style="italic" font-weight="bold" lengthAdjust="spacingAndGlyphs" textLength="124" x="756.25" y="336.906">BaseServiceException</text><line style="stroke: #A80036; stroke-width: 1.5;" x1="665.5" x2="938.5" y1="348.25" y2="348.25"/><line style="stroke: #A80036; stroke-width: 1.5;" x1="665.5" x2="938.5" y1="356.25" y2="356.25"/><ellipse cx="675.5" cy="367.25" fill="#84BE84" rx="3" ry="3" style="stroke: #038048; stroke-width: 1.0;"/><text fill="#000000" font-family="sans-serif" font-size="11" lengthAdjust="spacingAndGlyphs" textLength="115" x="684.5" y="372.0089">getErrorCode(): string</text><ellipse cx="675.5" cy="382.2319" fill="#84BE84" rx="3" ry="3" style="stroke: #038048; stroke-width: 1.0;"/><text fill="#000000" font-family="sans-serif" font-size="11" lengthAdjust="spacingAndGlyphs" text-decoration="underline" textLength="249" x="684.5" y="386.9908">getDeepestHttpExceptionMessage(error): string</text><ellipse cx="675.5" cy="397.2138" fill="#84BE84" rx="3" ry="3" style="stroke: #038048; stroke-width: 1.0;"/><text fill="#000000" font-family="sans-serif" font-size="11" lengthAdjust="spacingAndGlyphs" text-decoration="underline" textLength="147" x="684.5" y="401.9727">getCauseChain(error): Array</text><ellipse cx="675.5" cy="412.1957" fill="#84BE84" rx="3" ry="3" style="stroke: #038048; stroke-width: 1.0;"/><text fill="#000000" font-family="sans-serif" font-size="11" lengthAdjust="spacingAndGlyphs" text-decoration="underline" textLength="185" x="684.5" y="416.9546">getDeepestErrorCode(error): string</text><!--MD5=[b7f4dfa4c16498d4f39208e1a5aa2878]
class UsersException--><rect fill="#FEFECE" filter="url(#f1nz4isl5dyc6d)" height="54.9819" id="UsersException" style="stroke: #A80036; stroke-width: 1.5;" width="162" x="6" y="497.1"/><ellipse cx="38.1" cy="513.1" fill="#ADD1B2" rx="11" ry="11" style="stroke: #A80036; stroke-width: 1.0;"/><path d="M41.0688,518.7406 Q40.4906,519.0375 39.85,519.1781 Q39.2094,519.3344 38.5063,519.3344 Q36.0063,519.3344 34.6781,517.6938 Q33.3656,516.0375 33.3656,512.9125 Q33.3656,509.7875 34.6781,508.1313 Q36.0063,506.475 38.5063,506.475 Q39.2094,506.475 39.85,506.6313 Q40.5063,506.7875 41.0688,507.0844 L41.0688,509.8031 Q40.4438,509.225 39.85,508.9594 Q39.2563,508.6781 38.6313,508.6781 Q37.2875,508.6781 36.6,509.7563 Q35.9125,510.8188 35.9125,512.9125 Q35.9125,515.0063 36.6,516.0844 Q37.2875,517.1469 38.6313,517.1469 Q39.2563,517.1469 39.85,516.8813 Q40.4438,516.6 41.0688,516.0219 L41.0688,518.7406 Z "/><text fill="#000000" font-family="sans-serif" font-size="12" font-weight="bold" lengthAdjust="spacingAndGlyphs" textLength="92" x="55.9" y="517.756">UsersException</text><line style="stroke: #A80036; stroke-width: 1.5;" x1="7" x2="167" y1="529.1" y2="529.1"/><text fill="#000000" font-family="sans-serif" font-size="11" lengthAdjust="spacingAndGlyphs" textLength="150" x="12" y="544.8589">errorCode: UsersErrorCodes</text><!--MD5=[5722b747edfe9d014b054d138c87bdbc]
class RolesException--><rect fill="#FEFECE" filter="url(#f1nz4isl5dyc6d)" height="54.9819" id="RolesException" style="stroke: #A80036; stroke-width: 1.5;" width="161" x="202.5" y="497.1"/><ellipse cx="234.6" cy="513.1" fill="#ADD1B2" rx="11" ry="11" style="stroke: #A80036; stroke-width: 1.0;"/><path d="M237.5688,518.7406 Q236.9906,519.0375 236.35,519.1781 Q235.7094,519.3344 235.0063,519.3344 Q232.5063,519.3344 231.1781,517.6938 Q229.8656,516.0375 229.8656,512.9125 Q229.8656,509.7875 231.1781,508.1313 Q232.5063,506.475 235.0063,506.475 Q235.7094,506.475 236.35,506.6313 Q237.0063,506.7875 237.5688,507.0844 L237.5688,509.8031 Q236.9438,509.225 236.35,508.9594 Q235.7563,508.6781 235.1313,508.6781 Q233.7875,508.6781 233.1,509.7563 Q232.4125,510.8188 232.4125,512.9125 Q232.4125,515.0063 233.1,516.0844 Q233.7875,517.1469 235.1313,517.1469 Q235.7563,517.1469 236.35,516.8813 Q236.9438,516.6 237.5688,516.0219 L237.5688,518.7406 Z "/><text fill="#000000" font-family="sans-serif" font-size="12" font-weight="bold" lengthAdjust="spacingAndGlyphs" textLength="91" x="252.4" y="517.756">RolesException</text><line style="stroke: #A80036; stroke-width: 1.5;" x1="203.5" x2="362.5" y1="529.1" y2="529.1"/><text fill="#000000" font-family="sans-serif" font-size="11" lengthAdjust="spacingAndGlyphs" textLength="149" x="208.5" y="544.8589">errorCode: RolesErrorCodes</text><!--MD5=[92f0c17c414e3cb0889ecb9c1b503707]
class PermissionsException--><rect fill="#FEFECE" filter="url(#f1nz4isl5dyc6d)" height="54.9819" id="PermissionsException" style="stroke: #A80036; stroke-width: 1.5;" width="196" x="398" y="497.1"/><ellipse cx="427.4" cy="513.1" fill="#ADD1B2" rx="11" ry="11" style="stroke: #A80036; stroke-width: 1.0;"/><path d="M430.3688,518.7406 Q429.7906,519.0375 429.15,519.1781 Q428.5094,519.3344 427.8063,519.3344 Q425.3063,519.3344 423.9781,517.6938 Q422.6656,516.0375 422.6656,512.9125 Q422.6656,509.7875 423.9781,508.1313 Q425.3063,506.475 427.8063,506.475 Q428.5094,506.475 429.15,506.6313 Q429.8063,506.7875 430.3688,507.0844 L430.3688,509.8031 Q429.7438,509.225 429.15,508.9594 Q428.5563,508.6781 427.9313,508.6781 Q426.5875,508.6781 425.9,509.7563 Q425.2125,510.8188 425.2125,512.9125 Q425.2125,515.0063 425.9,516.0844 Q426.5875,517.1469 427.9313,517.1469 Q428.5563,517.1469 429.15,516.8813 Q429.7438,516.6 430.3688,516.0219 L430.3688,518.7406 Z "/><text fill="#000000" font-family="sans-serif" font-size="12" font-weight="bold" lengthAdjust="spacingAndGlyphs" textLength="132" x="444.6" y="517.756">PermissionsException</text><line style="stroke: #A80036; stroke-width: 1.5;" x1="399" x2="593" y1="529.1" y2="529.1"/><text fill="#000000" font-family="sans-serif" font-size="11" lengthAdjust="spacingAndGlyphs" textLength="184" x="404" y="544.8589">errorCode: PermissionsErrorCodes</text><!--MD5=[3a64723c7311ab3c89ecb1636d154326]
class AuthException--><rect fill="#FEFECE" filter="url(#f1nz4isl5dyc6d)" height="54.9819" id="AuthException" style="stroke: #A80036; stroke-width: 1.5;" width="158" x="629" y="497.1"/><ellipse cx="661.1" cy="513.1" fill="#ADD1B2" rx="11" ry="11" style="stroke: #A80036; stroke-width: 1.0;"/><path d="M664.0688,518.7406 Q663.4906,519.0375 662.85,519.1781 Q662.2094,519.3344 661.5063,519.3344 Q659.0063,519.3344 657.6781,517.6938 Q656.3656,516.0375 656.3656,512.9125 Q656.3656,509.7875 657.6781,508.1313 Q659.0063,506.475 661.5063,506.475 Q662.2094,506.475 662.85,506.6313 Q663.5063,506.7875 664.0688,507.0844 L664.0688,509.8031 Q663.4438,509.225 662.85,508.9594 Q662.2563,508.6781 661.6313,508.6781 Q660.2875,508.6781 659.6,509.7563 Q658.9125,510.8188 658.9125,512.9125 Q658.9125,515.0063 659.6,516.0844 Q660.2875,517.1469 661.6313,517.1469 Q662.2563,517.1469 662.85,516.8813 Q663.4438,516.6 664.0688,516.0219 L664.0688,518.7406 Z "/><text fill="#000000" font-family="sans-serif" font-size="12" font-weight="bold" lengthAdjust="spacingAndGlyphs" textLength="88" x="678.9" y="517.756">AuthException</text><line style="stroke: #A80036; stroke-width: 1.5;" x1="630" x2="786" y1="529.1" y2="529.1"/><text fill="#000000" font-family="sans-serif" font-size="11" lengthAdjust="spacingAndGlyphs" textLength="146" x="635" y="544.8589">errorCode: AuthErrorCodes</text><!--MD5=[8c9033c10e6115ba7ff61717afb7d49e]
class JwtException--><rect fill="#FEFECE" filter="url(#f1nz4isl5dyc6d)" height="54.9819" id="JwtException" style="stroke: #A80036; stroke-width: 1.5;" width="149" x="821.5" y="497.1"/><ellipse cx="854.05" cy="513.1" fill="#ADD1B2" rx="11" ry="11" style="stroke: #A80036; stroke-width: 1.0;"/><path d="M857.0188,518.7406 Q856.4406,519.0375 855.8,519.1781 Q855.1594,519.3344 854.4563,519.3344 Q851.9563,519.3344 850.6281,517.6938 Q849.3156,516.0375 849.3156,512.9125 Q849.3156,509.7875 850.6281,508.1313 Q851.9563,506.475 854.4563,506.475 Q855.1594,506.475 855.8,506.6313 Q856.4563,506.7875 857.0188,507.0844 L857.0188,509.8031 Q856.3938,509.225 855.8,508.9594 Q855.2063,508.6781 854.5813,508.6781 Q853.2375,508.6781 852.55,509.7563 Q851.8625,510.8188 851.8625,512.9125 Q851.8625,515.0063 852.55,516.0844 Q853.2375,517.1469 854.5813,517.1469 Q855.2063,517.1469 855.8,516.8813 Q856.3938,516.6 857.0188,516.0219 L857.0188,518.7406 Z "/><text fill="#000000" font-family="sans-serif" font-size="12" font-weight="bold" lengthAdjust="spacingAndGlyphs" textLength="78" x="871.95" y="517.756">JwtException</text><line style="stroke: #A80036; stroke-width: 1.5;" x1="822.5" x2="969.5" y1="529.1" y2="529.1"/><text fill="#000000" font-family="sans-serif" font-size="11" lengthAdjust="spacingAndGlyphs" textLength="137" x="827.5" y="544.8589">errorCode: JwtErrorCodes</text><!--MD5=[8926f2d16fa52c7f5be372bbf8877b43]
class ApiKeyException--><rect fill="#FEFECE" filter="url(#f1nz4isl5dyc6d)" height="54.9819" id="ApiKeyException" style="stroke: #A80036; stroke-width: 1.5;" width="169" x="1005.5" y="497.1"/><ellipse cx="1036.7" cy="513.1" fill="#ADD1B2" rx="11" ry="11" style="stroke: #A80036; stroke-width: 1.0;"/><path d="M1039.6688,518.7406 Q1039.0906,519.0375 1038.45,519.1781 Q1037.8094,519.3344 1037.1063,519.3344 Q1034.6063,519.3344 1033.2781,517.6938 Q1031.9656,516.0375 1031.9656,512.9125 Q1031.9656,509.7875 1033.2781,508.1313 Q1034.6063,506.475 1037.1063,506.475 Q1037.8094,506.475 1038.45,506.6313 Q1039.1063,506.7875 1039.6688,507.0844 L1039.6688,509.8031 Q1039.0438,509.225 1038.45,508.9594 Q1037.8563,508.6781 1037.2313,508.6781 Q1035.8875,508.6781 1035.2,509.7563 Q1034.5125,510.8188 1034.5125,512.9125 Q1034.5125,515.0063 1035.2,516.0844 Q1035.8875,517.1469 1037.2313,517.1469 Q1037.8563,517.1469 1038.45,516.8813 Q1039.0438,516.6 1039.6688,516.0219 L1039.6688,518.7406 Z "/><text fill="#000000" font-family="sans-serif" font-size="12" font-weight="bold" lengthAdjust="spacingAndGlyphs" textLength="101" x="1054.3" y="517.756">ApiKeyException</text><line style="stroke: #A80036; stroke-width: 1.5;" x1="1006.5" x2="1173.5" y1="529.1" y2="529.1"/><text fill="#000000" font-family="sans-serif" font-size="11" lengthAdjust="spacingAndGlyphs" textLength="157" x="1011.5" y="544.8589">errorCode: ApiKeyErrorCodes</text><!--MD5=[c3847304368db2167f917f485567465b]
class EndpointPRException--><rect fill="#FEFECE" filter="url(#f1nz4isl5dyc6d)" height="54.9819" id="EndpointPRException" style="stroke: #A80036; stroke-width: 1.5;" width="267" x="1209.5" y="497.1"/><ellipse cx="1273.75" cy="513.1" fill="#ADD1B2" rx="11" ry="11" style="stroke: #A80036; stroke-width: 1.0;"/><path d="M1276.7188,518.7406 Q1276.1406,519.0375 1275.5,519.1781 Q1274.8594,519.3344 1274.1563,519.3344 Q1271.6563,519.3344 1270.3281,517.6938 Q1269.0156,516.0375 1269.0156,512.9125 Q1269.0156,509.7875 1270.3281,508.1313 Q1271.6563,506.475 1274.1563,506.475 Q1274.8594,506.475 1275.5,506.6313 Q1276.1563,506.7875 1276.7188,507.0844 L1276.7188,509.8031 Q1276.0938,509.225 1275.5,508.9594 Q1274.9063,508.6781 1274.2813,508.6781 Q1272.9375,508.6781 1272.25,509.7563 Q1271.5625,510.8188 1271.5625,512.9125 Q1271.5625,515.0063 1272.25,516.0844 Q1272.9375,517.1469 1274.2813,517.1469 Q1274.9063,517.1469 1275.5,516.8813 Q1276.0938,516.6 1276.7188,516.0219 L1276.7188,518.7406 Z "/><text fill="#000000" font-family="sans-serif" font-size="12" font-weight="bold" lengthAdjust="spacingAndGlyphs" textLength="130" x="1294.25" y="517.756">EndpointPRException</text><line style="stroke: #A80036; stroke-width: 1.5;" x1="1210.5" x2="1475.5" y1="529.1" y2="529.1"/><text fill="#000000" font-family="sans-serif" font-size="11" lengthAdjust="spacingAndGlyphs" textLength="255" x="1215.5" y="544.8589">errorCode: EndpointPermissionRulesErrorCodes</text><path d="M1511.5,484.18 L1511.5,565.0041 L1768.5,565.0041 L1768.5,494.18 L1758.5,484.18 L1511.5,484.18 " fill="#FBFB77" filter="url(#f1nz4isl5dyc6d)" style="stroke: #A80036; stroke-width: 1.0;"/><path d="M1758.5,484.18 L1758.5,494.18 L1768.5,494.18 L1758.5,484.18 " fill="#FBFB77" style="stroke: #A80036; stroke-width: 1.0;"/><text fill="#000000" font-family="sans-serif" font-size="13" lengthAdjust="spacingAndGlyphs" textLength="214" x="1517.5" y="503.077">Every service exception uses ES2022</text><text fill="#000000" font-family="sans-serif" font-size="13" font-weight="bold" lengthAdjust="spacingAndGlyphs" textLength="75" x="1517.5" y="520.783">Error.cause</text><text fill="#000000" font-family="sans-serif" font-size="13" lengthAdjust="spacingAndGlyphs" textLength="110" x="1595.5" y="520.783">for chain traversal.</text><text fill="#000000" font-family="sans-serif" font-size="13" lengthAdjust="spacingAndGlyphs" textLength="215" x="1517.5" y="538.489">The AllExceptionsFilter traverses the</text><text fill="#000000" font-family="sans-serif" font-size="13" lengthAdjust="spacingAndGlyphs" textLength="236" x="1517.5" y="556.1951">chain to find the most specific message.</text><!--MD5=[c632c97f570199a9d4d9748117491200]
reverse link Error to HttpException--><path d="M802,114.12 C802,126.86 802,140.1 802,152.36 " fill="none" id="Error&lt;-HttpException" style="stroke: #A80036; stroke-width: 2.0;"/><polygon fill="none" points="795,114.27,802,94.27,809,114.27,795,114.27" style="stroke: #A80036; stroke-width: 2.0;"/><!--MD5=[32c5b52c0a29fbd629e3197c85f0017a]
reverse link HttpException to BaseServiceException--><path d="M802,277.47 C802,290.34 802,303.54 802,315.77 " fill="none" id="HttpException&lt;-BaseServiceException" style="stroke: #A80036; stroke-width: 2.0;"/><polygon fill="none" points="795,277.87,802,257.87,809,277.87,795,277.87" style="stroke: #A80036; stroke-width: 2.0;"/><!--MD5=[af359a057d7ab40207fc8a0b890f7915]
reverse link BaseServiceException to UsersException--><path d="M642.87,391.36 C517.06,409.43 337.78,439.96 185,484.18 C173.02,487.64 160.49,492.05 148.55,496.65 " fill="none" id="BaseServiceException&lt;-UsersException" style="stroke: #A80036; stroke-width: 2.0;"/><polygon fill="none" points="641.87,384.43,662.65,388.56,643.83,398.29,641.87,384.43" style="stroke: #A80036; stroke-width: 2.0;"/><!--MD5=[0c6f1a557758036ec55cc86bb94c7b82]
reverse link BaseServiceException to RolesException--><path d="M643.4,408.97 C563.94,429.09 466.66,455.57 381,484.18 C369.87,487.89 358.18,492.21 346.9,496.61 " fill="none" id="BaseServiceException&lt;-RolesException" style="stroke: #A80036; stroke-width: 2.0;"/><polygon fill="none" points="641.68,402.18,662.78,404.1,645.09,415.76,641.68,402.18" style="stroke: #A80036; stroke-width: 2.0;"/><!--MD5=[d068c7f760cc124c14656605aa730c2c]
reverse link BaseServiceException to PermissionsException--><path d="M675.75,434.08 C631.89,455.92 585,479.27 550.11,496.64 " fill="none" id="BaseServiceException&lt;-PermissionsException" style="stroke: #A80036; stroke-width: 2.0;"/><polygon fill="none" points="672.6,427.83,693.62,425.18,678.84,440.36,672.6,427.83" style="stroke: #A80036; stroke-width: 2.0;"/><!--MD5=[b2ee30b027d1239c85d97dae1ef40913]
reverse link BaseServiceException to AuthException--><path d="M757.92,442.66 C746.06,461.89 733.95,481.53 724.62,496.64 " fill="none" id="BaseServiceException&lt;-AuthException" style="stroke: #A80036; stroke-width: 2.0;"/><polygon fill="none" points="751.87,439.14,768.33,425.79,763.79,446.49,751.87,439.14" style="stroke: #A80036; stroke-width: 2.0;"/><!--MD5=[6e2eda98658ca57a50d661597d5cbb31]
reverse link BaseServiceException to JwtException--><path d="M846.08,442.66 C857.94,461.89 870.05,481.53 879.38,496.64 " fill="none" id="BaseServiceException&lt;-JwtException" style="stroke: #A80036; stroke-width: 2.0;"/><polygon fill="none" points="840.21,446.49,835.67,425.79,852.13,439.14,840.21,446.49" style="stroke: #A80036; stroke-width: 2.0;"/><!--MD5=[6e7662f0cf1ba83240fdfd1e0b280177]
reverse link BaseServiceException to ApiKeyException--><path d="M921.66,434.52 C962.7,456.23 1006.46,479.39 1039.07,496.64 " fill="none" id="BaseServiceException&lt;-ApiKeyException" style="stroke: #A80036; stroke-width: 2.0;"/><polygon fill="none" points="918.47,440.75,904.07,425.21,925.02,428.38,918.47,440.75" style="stroke: #A80036; stroke-width: 2.0;"/><!--MD5=[9e295b51caa31700ef46f1db498b91fe]
reverse link BaseServiceException to EndpointPRException--><path d="M960.35,415.81 C1053.46,442.04 1168.12,474.33 1247.53,496.7 " fill="none" id="BaseServiceException&lt;-EndpointPRException" style="stroke: #A80036; stroke-width: 2.0;"/><polygon fill="none" points="958.73,422.63,941.37,410.47,962.52,409.15,958.73,422.63" style="stroke: #A80036; stroke-width: 2.0;"/><!--MD5=[ff3fa1bf1d1fd441236bb444042d9439]
link BaseServiceException to GMN21--><path d="M939.98,389.51 C1080.21,409.1 1303.33,442.99 1494,484.18 C1499.65,485.4 1505.4,486.7 1511.2,488.06 " fill="none" id="BaseServiceException-GMN21" style="stroke: #A80036; stroke-width: 2.0; stroke-dasharray: 7.0,7.0;"/><!--MD5=[604484669ff89a5637b7fe76e1b11ff3]
@startuml Exception Hierarchy
skinparam backgroundColor white
skinparam classArrowThickness 2
skinparam classFontStyle bold
hide empty methods

class Error {
  +message: string
  +cause?: Error
  +stack: string
}

class HttpException <<NestJS>> {
  +status: number
  +getResponse()
  +getStatus()
}

abstract class BaseServiceException {
  +getErrorCode(): string
  {static} +getDeepestHttpExceptionMessage(error): string
  {static} +getCauseChain(error): Array
  {static} +getDeepestErrorCode(error): string
}

class UsersException {
  errorCode: UsersErrorCodes
}

class RolesException {
  errorCode: RolesErrorCodes
}

class PermissionsException {
  errorCode: PermissionsErrorCodes
}

class AuthException {
  errorCode: AuthErrorCodes
}

class JwtException {
  errorCode: JwtErrorCodes
}

class ApiKeyException {
  errorCode: ApiKeyErrorCodes
}

class EndpointPRException {
  errorCode: EndpointPermissionRulesErrorCodes
}

Error <|- - HttpException
HttpException <|- - BaseServiceException

BaseServiceException <|- - UsersException
BaseServiceException <|- - RolesException
BaseServiceException <|- - PermissionsException
BaseServiceException <|- - AuthException
BaseServiceException <|- - JwtException
BaseServiceException <|- - ApiKeyException
BaseServiceException <|- - EndpointPRException

note bottom of BaseServiceException
  Every service exception uses ES2022
  **Error.cause** for chain traversal.
  The AllExceptionsFilter traverses the
  chain to find the most specific message.
end note
@enduml

PlantUML version 1.2020.02(Sun Mar 01 07:22:07 ART 2020)
(GPL source distribution)
Java Runtime: OpenJDK Runtime Environment
JVM: OpenJDK 64-Bit Server VM
Java Version: 21.0.11-ea+5-[Ubuntu-1]
Operating System: Linux
Default Encoding: UTF-8
Language: en
Country: US
--></g></svg>