<?xml version="1.0" encoding="UTF-8" standalone="no"?><svg xmlns="http://www.w3.org/2000/svg" xmlns:xlink="http://www.w3.org/1999/xlink" contentScriptType="application/ecmascript" contentStyleType="text/css" height="487px" preserveAspectRatio="none" style="width:1871px;height:487px;" version="1.1" viewBox="0 0 1871 487" width="1871px" zoomAndPan="magnify"><defs><filter height="300%" id="f1ufaoca3rzkdl" width="300%" x="-1" y="-1"><feGaussianBlur result="blurOut" stdDeviation="2.0"/><feColorMatrix in="blurOut" result="blurOut2" type="matrix" values="0 0 0 0 0 0 0 0 0 0 0 0 0 0 0 0 0 0 .4 0"/><feOffset dx="4.0" dy="4.0" in="blurOut2" result="blurOut3"/><feBlend in="SourceGraphic" in2="blurOut3" mode="normal"/></filter></defs><g><!--MD5=[d5ac3844f66b12d9e08170e47495e096]
cluster app--><polygon fill="#FFFFFF" filter="url(#f1ufaoca3rzkdl)" points="22,24.14,154,24.14,161,49.2079,1403,49.2079,1403,146.28,22,146.28,22,24.14" style="stroke: #000000; stroke-width: 1.5;"/><line style="stroke: #000000; stroke-width: 1.5;" x1="22" x2="161" y1="49.2079" y2="49.2079"/><text fill="#000000" font-family="sans-serif" font-size="14" font-weight="bold" lengthAdjust="spacingAndGlyphs" textLength="126" x="26" y="41.1059">Auth-Microservice</text><!--MD5=[f3f841fcee64ca3144be68779af6ef67]
cluster pg--><path d="M35,215.28 C35,205.28 379.5,205.28 379.5,205.28 C379.5,205.28 724,205.28 724,215.28 L724,338.35 C724,348.35 379.5,348.35 379.5,348.35 C379.5,348.35 35,348.35 35,338.35 L35,215.28 " fill="#FFFFFF" filter="url(#f1ufaoca3rzkdl)" style="stroke: #000000; stroke-width: 1.5;"/><path d="M35,215.28 C35,225.28 379.5,225.28 379.5,225.28 C379.5,225.28 724,225.28 724,215.28 " fill="none" style="stroke: #000000; stroke-width: 1.5;"/><text fill="#000000" font-family="sans-serif" font-size="14" font-weight="bold" lengthAdjust="spacingAndGlyphs" textLength="81" x="339" y="242.2459">PostgreSQL</text><text fill="#000000" font-family="sans-serif" font-size="14" font-weight="bold" lengthAdjust="spacingAndGlyphs" textLength="76" x="341.5" y="261.3139">(TypeORM)</text><!--MD5=[2af96f7f65f84c32f13caa729cd2c4db]
cluster redis--><path d="M764,224.75 C764,214.75 1157,214.75 1157,214.75 C1157,214.75 1550,214.75 1550,224.75 L1550,347.88 C1550,357.88 1157,357.88 1157,357.88 C1157,357.88 764,357.88 764,347.88 L764,224.75 " fill="#FFFFFF" filter="url(#f1ufaoca3rzkdl)" style="stroke: #000000; stroke-width: 1.5;"/><path d="M764,224.75 C764,234.75 1157,234.75 1157,234.75 C1157,234.75 1550,234.75 1550,224.75 " fill="none" style="stroke: #000000; stroke-width: 1.5;"/><text fill="#000000" font-family="sans-serif" font-size="14" font-weight="bold" lengthAdjust="spacingAndGlyphs" textLength="37" x="1138.5" y="251.7159">Redis</text><!--MD5=[156c132080773447297973e56f437c26]
cluster rmq--><path d="M1587,247.28 L1854,247.28 C1859,247.28 1859,293.815 1859,293.815 C1859,293.815 1859,340.35 1854,340.35 L1587,340.35 C1582,340.35 1582,293.815 1582,293.815 C1582,293.815 1582,247.28 1587,247.28 " fill="#FFFFFF" filter="url(#f1ufaoca3rzkdl)" style="stroke: #000000; stroke-width: 1.5;"/><path d="M1854,247.28 C1849,247.28 1849,293.815 1849,293.815 C1849,340.35 1854,340.35 1854,340.35 " fill="none" style="stroke: #000000; stroke-width: 1.5;"/><text fill="#000000" font-family="sans-serif" font-size="14" font-weight="bold" lengthAdjust="spacingAndGlyphs" textLength="69" x="1686" y="264.2459">RabbitMQ</text><!--MD5=[5f2f9dbbee692058d60489180693f774]
entity users--><rect fill="#FEFECE" filter="url(#f1ufaoca3rzkdl)" height="49.0679" style="stroke: #A80036; stroke-width: 1.5;" width="126" x="38" y="71.68"/><rect fill="#FEFECE" height="10" style="stroke: #A80036; stroke-width: 1.5;" width="15" x="144" y="76.68"/><rect fill="#FEFECE" height="2" style="stroke: #A80036; stroke-width: 1.5;" width="4" x="142" y="78.68"/><rect fill="#FEFECE" height="2" style="stroke: #A80036; stroke-width: 1.5;" width="4" x="142" y="82.68"/><text fill="#000000" font-family="sans-serif" font-size="14" lengthAdjust="spacingAndGlyphs" textLength="86" x="53" y="106.6459">UsersService</text><!--MD5=[d2097561727c6d3072e4a5e40536f297]
entity roles--><rect fill="#FEFECE" filter="url(#f1ufaoca3rzkdl)" height="49.0679" style="stroke: #A80036; stroke-width: 1.5;" width="124" x="199" y="71.68"/><rect fill="#FEFECE" height="10" style="stroke: #A80036; stroke-width: 1.5;" width="15" x="303" y="76.68"/><rect fill="#FEFECE" height="2" style="stroke: #A80036; stroke-width: 1.5;" width="4" x="301" y="78.68"/><rect fill="#FEFECE" height="2" style="stroke: #A80036; stroke-width: 1.5;" width="4" x="301" y="82.68"/><text fill="#000000" font-family="sans-serif" font-size="14" lengthAdjust="spacingAndGlyphs" textLength="84" x="214" y="106.6459">RolesService</text><!--MD5=[29ecbd4ef1c6c02f33bba4999578bb34]
entity perms--><rect fill="#FEFECE" filter="url(#f1ufaoca3rzkdl)" height="49.0679" style="stroke: #A80036; stroke-width: 1.5;" width="169" x="357.5" y="71.68"/><rect fill="#FEFECE" height="10" style="stroke: #A80036; stroke-width: 1.5;" width="15" x="506.5" y="76.68"/><rect fill="#FEFECE" height="2" style="stroke: #A80036; stroke-width: 1.5;" width="4" x="504.5" y="78.68"/><rect fill="#FEFECE" height="2" style="stroke: #A80036; stroke-width: 1.5;" width="4" x="504.5" y="82.68"/><text fill="#000000" font-family="sans-serif" font-size="14" lengthAdjust="spacingAndGlyphs" textLength="129" x="372.5" y="106.6459">PermissionsService</text><!--MD5=[2adfa71d87a869f6def50c930288aa4c]
entity apiKeys--><rect fill="#FEFECE" filter="url(#f1ufaoca3rzkdl)" height="49.0679" style="stroke: #A80036; stroke-width: 1.5;" width="141" x="561.5" y="71.68"/><rect fill="#FEFECE" height="10" style="stroke: #A80036; stroke-width: 1.5;" width="15" x="682.5" y="76.68"/><rect fill="#FEFECE" height="2" style="stroke: #A80036; stroke-width: 1.5;" width="4" x="680.5" y="78.68"/><rect fill="#FEFECE" height="2" style="stroke: #A80036; stroke-width: 1.5;" width="4" x="680.5" y="82.68"/><text fill="#000000" font-family="sans-serif" font-size="14" lengthAdjust="spacingAndGlyphs" textLength="101" x="576.5" y="106.6459">ApiKeysService</text><!--MD5=[853f148258f3492b777f181caf578766]
entity sessions--><rect fill="#FEFECE" filter="url(#f1ufaoca3rzkdl)" height="49.0679" style="stroke: #A80036; stroke-width: 1.5;" width="146" x="737" y="71.68"/><rect fill="#FEFECE" height="10" style="stroke: #A80036; stroke-width: 1.5;" width="15" x="863" y="76.68"/><rect fill="#FEFECE" height="2" style="stroke: #A80036; stroke-width: 1.5;" width="4" x="861" y="78.68"/><rect fill="#FEFECE" height="2" style="stroke: #A80036; stroke-width: 1.5;" width="4" x="861" y="82.68"/><text fill="#000000" font-family="sans-serif" font-size="14" lengthAdjust="spacingAndGlyphs" textLength="106" x="752" y="106.6459">SessionsService</text><!--MD5=[0b073ca8531318b9869ad39ab02d2189]
entity epr--><rect fill="#FEFECE" filter="url(#f1ufaoca3rzkdl)" height="49.0679" style="stroke: #A80036; stroke-width: 1.5;" width="117" x="918.5" y="71.68"/><rect fill="#FEFECE" height="10" style="stroke: #A80036; stroke-width: 1.5;" width="15" x="1015.5" y="76.68"/><rect fill="#FEFECE" height="2" style="stroke: #A80036; stroke-width: 1.5;" width="4" x="1013.5" y="78.68"/><rect fill="#FEFECE" height="2" style="stroke: #A80036; stroke-width: 1.5;" width="4" x="1013.5" y="82.68"/><text fill="#000000" font-family="sans-serif" font-size="14" lengthAdjust="spacingAndGlyphs" textLength="77" x="933.5" y="106.6459">EPR Service</text><!--MD5=[ea7a1c341d347d9cf6412a519c4070a5]
entity outbox--><rect fill="#FEFECE" filter="url(#f1ufaoca3rzkdl)" height="68.1358" style="stroke: #A80036; stroke-width: 1.5;" width="153" x="1070.5" y="62.14"/><rect fill="#FEFECE" height="10" style="stroke: #A80036; stroke-width: 1.5;" width="15" x="1203.5" y="67.14"/><rect fill="#FEFECE" height="2" style="stroke: #A80036; stroke-width: 1.5;" width="4" x="1201.5" y="69.14"/><rect fill="#FEFECE" height="2" style="stroke: #A80036; stroke-width: 1.5;" width="4" x="1201.5" y="73.14"/><text fill="#000000" font-family="sans-serif" font-size="14" lengthAdjust="spacingAndGlyphs" textLength="113" x="1085.5" y="97.1059">OutboxPublisher</text><text fill="#000000" font-family="sans-serif" font-size="14" lengthAdjust="spacingAndGlyphs" textLength="40" x="1085.5" y="116.1739">(Cron)</text><!--MD5=[d112aecbd7ccc75573a6ee2503a173b3]
entity email--><rect fill="#FEFECE" filter="url(#f1ufaoca3rzkdl)" height="49.0679" style="stroke: #A80036; stroke-width: 1.5;" width="128" x="1259" y="71.68"/><rect fill="#FEFECE" height="10" style="stroke: #A80036; stroke-width: 1.5;" width="15" x="1367" y="76.68"/><rect fill="#FEFECE" height="2" style="stroke: #A80036; stroke-width: 1.5;" width="4" x="1365" y="78.68"/><rect fill="#FEFECE" height="2" style="stroke: #A80036; stroke-width: 1.5;" width="4" x="1365" y="82.68"/><text fill="#000000" font-family="sans-serif" font-size="14" lengthAdjust="spacingAndGlyphs" textLength="88" x="1274" y="106.6459">EmailModule</text><!--MD5=[59691cb316862e9845a48facc91b4b82]
entity pgUsers--><rect fill="#FEFECE" filter="url(#f1ufaoca3rzkdl)" height="35.0679" style="stroke: #000000; stroke-width: 1.5;" width="54" x="63" y="289.28"/><rect fill="#FEFECE" height="35.0679" style="stroke: #000000; stroke-width: 1.5;" width="54" x="59" y="285.28"/><text fill="#000000" font-family="sans-serif" font-size="14" lengthAdjust="spacingAndGlyphs" textLength="38" x="67" y="308.2459">Users</text><!--MD5=[6de4931955eb0d005b87d7bf9a37f019]
entity pgRoles--><rect fill="#FEFECE" filter="url(#f1ufaoca3rzkdl)" height="35.0679" style="stroke: #000000; stroke-width: 1.5;" width="52" x="156" y="289.28"/><rect fill="#FEFECE" height="35.0679" style="stroke: #000000; stroke-width: 1.5;" width="52" x="152" y="285.28"/><text fill="#000000" font-family="sans-serif" font-size="14" lengthAdjust="spacingAndGlyphs" textLength="36" x="160" y="308.2459">Roles</text><!--MD5=[2c906bb7a53e13c9ec12b0ebd8f90817]
entity pgPerms--><rect fill="#FEFECE" filter="url(#f1ufaoca3rzkdl)" height="35.0679" style="stroke: #000000; stroke-width: 1.5;" width="97" x="247.5" y="289.28"/><rect fill="#FEFECE" height="35.0679" style="stroke: #000000; stroke-width: 1.5;" width="97" x="243.5" y="285.28"/><text fill="#000000" font-family="sans-serif" font-size="14" lengthAdjust="spacingAndGlyphs" textLength="81" x="251.5" y="308.2459">Permissions</text><!--MD5=[39441b0ad8d5712fd6dee6adcb28e252]
entity pgKeys--><rect fill="#FEFECE" filter="url(#f1ufaoca3rzkdl)" height="35.0679" style="stroke: #000000; stroke-width: 1.5;" width="73" x="383.5" y="289.28"/><rect fill="#FEFECE" height="35.0679" style="stroke: #000000; stroke-width: 1.5;" width="73" x="379.5" y="285.28"/><text fill="#000000" font-family="sans-serif" font-size="14" lengthAdjust="spacingAndGlyphs" textLength="57" x="387.5" y="308.2459">API Keys</text><!--MD5=[3045e2011595b99fbc957e790900c007]
entity pgEpr--><rect fill="#FEFECE" filter="url(#f1ufaoca3rzkdl)" height="35.0679" style="stroke: #000000; stroke-width: 1.5;" width="82" x="495" y="289.28"/><rect fill="#FEFECE" height="35.0679" style="stroke: #000000; stroke-width: 1.5;" width="82" x="491" y="285.28"/><text fill="#000000" font-family="sans-serif" font-size="14" lengthAdjust="spacingAndGlyphs" textLength="66" x="499" y="308.2459">EPR Rules</text><!--MD5=[829c94e2071755a8269a21e0d524c06a]
entity pgOutbox--><rect fill="#FEFECE" filter="url(#f1ufaoca3rzkdl)" height="35.0679" style="stroke: #000000; stroke-width: 1.5;" width="65" x="615.5" y="289.28"/><rect fill="#FEFECE" height="35.0679" style="stroke: #000000; stroke-width: 1.5;" width="65" x="611.5" y="285.28"/><text fill="#000000" font-family="sans-serif" font-size="14" lengthAdjust="spacingAndGlyphs" textLength="49" x="619.5" y="308.2459">Outbox</text><!--MD5=[3df9e1d0522ce7c4e0d434feb1dddeb5]
entity rSess--><rect fill="#FEFECE" filter="url(#f1ufaoca3rzkdl)" height="54.1358" style="stroke: #000000; stroke-width: 1.5;" width="152" x="792" y="279.75"/><rect fill="#FEFECE" height="54.1358" style="stroke: #000000; stroke-width: 1.5;" width="152" x="788" y="275.75"/><text fill="#000000" font-family="sans-serif" font-size="14" lengthAdjust="spacingAndGlyphs" textLength="121" x="796" y="298.7159">auth_session:{sid}</text><text fill="#000000" font-family="sans-serif" font-size="14" lengthAdjust="spacingAndGlyphs" textLength="136" x="796" y="317.7839">(Session JSON + TTL)</text><!--MD5=[262d777fb778afcf212c29babb381e38]
entity rUserSess--><rect fill="#FEFECE" filter="url(#f1ufaoca3rzkdl)" height="54.1358" style="stroke: #000000; stroke-width: 1.5;" width="167" x="983.5" y="279.75"/><rect fill="#FEFECE" height="54.1358" style="stroke: #000000; stroke-width: 1.5;" width="167" x="979.5" y="275.75"/><text fill="#000000" font-family="sans-serif" font-size="14" lengthAdjust="spacingAndGlyphs" textLength="151" x="987.5" y="298.7159">user_sessions:{userId}</text><text fill="#000000" font-family="sans-serif" font-size="14" lengthAdjust="spacingAndGlyphs" textLength="103" x="987.5" y="317.7839">(Session ID Set)</text><!--MD5=[4b15be336050b0dff28e9b392cafcf34]
entity rEpr--><rect fill="#FEFECE" filter="url(#f1ufaoca3rzkdl)" height="54.1358" style="stroke: #000000; stroke-width: 1.5;" width="143" x="1363.5" y="279.75"/><rect fill="#FEFECE" height="54.1358" style="stroke: #000000; stroke-width: 1.5;" width="143" x="1359.5" y="275.75"/><text fill="#000000" font-family="sans-serif" font-size="14" lengthAdjust="spacingAndGlyphs" textLength="126" x="1367.5" y="298.7159">epr:{endpoint_key}</text><text fill="#000000" font-family="sans-serif" font-size="14" lengthAdjust="spacingAndGlyphs" textLength="127" x="1367.5" y="317.7839">(Permission Codes)</text><!--MD5=[8d0d2d9f9af09298e05b0e5c075e5fb8]
entity rEprKeys--><rect fill="#FEFECE" filter="url(#f1ufaoca3rzkdl)" height="54.1358" style="stroke: #000000; stroke-width: 1.5;" width="135" x="1189.5" y="279.75"/><rect fill="#FEFECE" height="54.1358" style="stroke: #000000; stroke-width: 1.5;" width="135" x="1185.5" y="275.75"/><text fill="#000000" font-family="sans-serif" font-size="14" lengthAdjust="spacingAndGlyphs" textLength="58" x="1193.5" y="298.7159">epr_keys</text><text fill="#000000" font-family="sans-serif" font-size="14" lengthAdjust="spacingAndGlyphs" textLength="119" x="1193.5" y="317.7839">(Key Tracking Set)</text><!--MD5=[2dcc4f82873b76ceb86c0260192e16d3]
entity rmqAudit--><rect fill="#FEFECE" filter="url(#f1ufaoca3rzkdl)" height="35.0679" style="stroke: #000000; stroke-width: 1.5;" width="100" x="1602" y="289.28"/><rect fill="#FEFECE" height="35.0679" style="stroke: #000000; stroke-width: 1.5;" width="100" x="1598" y="285.28"/><text fill="#000000" font-family="sans-serif" font-size="14" lengthAdjust="spacingAndGlyphs" textLength="84" x="1606" y="308.2459">audit_queue</text><!--MD5=[eead9d8ef644b4d3ae369ec75ab8677a]
entity rmqEmail--><rect fill="#FEFECE" filter="url(#f1ufaoca3rzkdl)" height="35.0679" style="stroke: #000000; stroke-width: 1.5;" width="102" x="1741" y="289.28"/><rect fill="#FEFECE" height="35.0679" style="stroke: #000000; stroke-width: 1.5;" width="102" x="1737" y="285.28"/><text fill="#000000" font-family="sans-serif" font-size="14" lengthAdjust="spacingAndGlyphs" textLength="86" x="1745" y="308.2459">email_queue</text><path d="M601,412.88 L601,475.998 L831,475.998 L831,422.88 L821,412.88 L601,412.88 " fill="#FBFB77" filter="url(#f1ufaoca3rzkdl)" style="stroke: #A80036; stroke-width: 1.0;"/><path d="M821,412.88 L821,422.88 L831,422.88 L821,412.88 " fill="#FBFB77" style="stroke: #A80036; stroke-width: 1.0;"/><text fill="#000000" font-family="sans-serif" font-size="13" lengthAdjust="spacingAndGlyphs" textLength="176" x="607" y="431.777">Source of truth for all entities.</text><text fill="#000000" font-family="sans-serif" font-size="13" lengthAdjust="spacingAndGlyphs" textLength="209" x="607" y="449.483">Outbox table ensures at-least-once</text><text fill="#000000" font-family="sans-serif" font-size="13" lengthAdjust="spacingAndGlyphs" textLength="130" x="607" y="467.189">delivery to RabbitMQ.</text><path d="M1435.5,421.73 L1435.5,467.142 L1648.5,467.142 L1648.5,431.73 L1638.5,421.73 L1435.5,421.73 " fill="#FBFB77" filter="url(#f1ufaoca3rzkdl)" style="stroke: #A80036; stroke-width: 1.0;"/><path d="M1638.5,421.73 L1638.5,431.73 L1648.5,431.73 L1638.5,421.73 " fill="#FBFB77" style="stroke: #A80036; stroke-width: 1.0;"/><text fill="#000000" font-family="sans-serif" font-size="13" lengthAdjust="spacingAndGlyphs" textLength="192" x="1441.5" y="440.627">All Redis operations are resilient.</text><text fill="#000000" font-family="sans-serif" font-size="13" lengthAdjust="spacingAndGlyphs" textLength="190" x="1441.5" y="458.333">Failures fall back to PostgreSQL.</text><!--MD5=[de3b287ef72dfe7cbdff5f99dc7a1969]
link users to pgUsers--><path d="M99.51,120.91 C97.03,160.25 92.1,238.67 89.57,278.83 " fill="none" id="users-&gt;pgUsers" style="stroke: #A80036; stroke-width: 1.0;"/><polygon fill="#A80036" points="89.28,283.43,93.8383,274.6995,89.5946,278.4399,85.8541,274.1962,89.28,283.43" style="stroke: #A80036; stroke-width: 1.0;"/><!--MD5=[fc06deb942604d29a3423420366b53d7]
link roles to pgRoles--><path d="M251.71,120.91 C236.22,160.41 205.29,239.31 189.6,279.33 " fill="none" id="roles-&gt;pgRoles" style="stroke: #A80036; stroke-width: 1.0;"/><polygon fill="#A80036" points="187.95,283.53,194.9626,276.6145,189.7774,278.8759,187.516,273.6907,187.95,283.53" style="stroke: #A80036; stroke-width: 1.0;"/><!--MD5=[d376367309879d46ad21609e783567eb]
link perms to pgPerms--><path d="M419.01,121.22 C402.3,139.24 379.61,164.91 362,189.28 C340.56,218.96 319.64,255.73 306.78,279.47 " fill="none" id="perms-&gt;pgPerms" style="stroke: #A80036; stroke-width: 1.0;"/><polygon fill="#A80036" points="304.57,283.59,312.3611,277.5652,306.9422,279.1886,305.3188,273.7696,304.57,283.59" style="stroke: #A80036; stroke-width: 1.0;"/><!--MD5=[31415bf706ead5eeda3fc4d4fca8eeeb]
link apiKeys to pgKeys--><path d="M597.02,121.18 C581.1,131.75 561.86,144.07 544,154.28 C513.81,171.55 498.49,164.58 474,189.28 C448.86,214.64 433.17,253.52 425,278.81 " fill="none" id="apiKeys-&gt;pgKeys" style="stroke: #A80036; stroke-width: 1.0;"/><polygon fill="#A80036" points="423.53,283.49,430.045,276.1039,425.0295,278.7201,422.4132,273.7047,423.53,283.49" style="stroke: #A80036; stroke-width: 1.0;"/><!--MD5=[d2971f68f1e2bf8393d92c073d339eb7]
link epr to pgEpr--><path d="M952.38,121.05 C938.43,133.09 920.01,146.71 901,154.28 C773.41,205.06 707.27,111.64 594,189.28 C563.32,210.31 547.22,252.11 539.68,278.97 " fill="none" id="epr-&gt;pgEpr" style="stroke: #A80036; stroke-width: 1.0;"/><polygon fill="#A80036" points="538.42,283.67,544.6222,276.0194,539.7199,278.8419,536.8973,273.9396,538.42,283.67" style="stroke: #A80036; stroke-width: 1.0;"/><!--MD5=[dd4ada77e5f1b1e4f6fe57676af61b23]
link outbox to pgOutbox--><path d="M1101.22,130.66 C1086.5,139.83 1069.67,148.75 1053,154.28 C1051.78,154.69 685.01,188.48 684,189.28 C657.11,210.7 649.08,251.72 646.78,278.41 " fill="none" id="outbox-&gt;pgOutbox" style="stroke: #A80036; stroke-width: 1.0;"/><polygon fill="#A80036" points="646.42,283.36,651.0776,274.682,646.7915,278.3738,643.0997,274.0877,646.42,283.36" style="stroke: #A80036; stroke-width: 1.0;"/><!--MD5=[343f315f4bcb81caae00b346ec8878d9]
link sessions to rSess--><path d="M816.42,120.91 C826.29,157.31 845.22,227.15 856.62,269.21 " fill="none" id="sessions-&gt;rSess" style="stroke: #A80036; stroke-width: 1.0;"/><polygon fill="#A80036" points="857.92,274,859.4159,264.2654,856.6068,269.1755,851.6967,266.3665,857.92,274" style="stroke: #A80036; stroke-width: 1.0;"/><!--MD5=[59b514f8b3e172d3292cba68b924967a]
link sessions to rUserSess--><path d="M847.43,121.15 C863.79,131.48 883.25,143.63 901,154.28 C927.8,170.36 937.69,169.63 962,189.28 C991.71,213.29 1020.33,246.16 1039.83,270.53 " fill="none" id="sessions-&gt;rUserSess" style="stroke: #A80036; stroke-width: 1.0;"/><polygon fill="#A80036" points="1042.91,274.41,1040.4367,264.8767,1039.797,270.4973,1034.1764,269.8576,1042.91,274.41" style="stroke: #A80036; stroke-width: 1.0;"/><!--MD5=[07d1bfd02da9b8cb1f601b0001bcca7e]
link epr to rEpr--><path d="M1001.65,120.98 C1015.6,133 1034.02,146.63 1053,154.28 C1080,165.16 1089.85,154.88 1118,162.28 C1139.39,167.9 1142.41,176.49 1164,181.28 C1183.33,185.57 1324.37,180.28 1342,189.28 C1375.79,206.53 1401.13,242.65 1416.37,269.74 " fill="none" id="epr-&gt;rEpr" style="stroke: #A80036; stroke-width: 1.0;"/><polygon fill="#A80036" points="1418.74,274.05,1417.9039,264.2367,1416.3288,269.6698,1410.8956,268.0947,1418.74,274.05" style="stroke: #A80036; stroke-width: 1.0;"/><!--MD5=[dfb991df4849e4fc5da010e355c6b6c8]
link epr to rEprKeys--><path d="M1005.46,121.15 C1019.27,132.08 1036.43,144.7 1053,154.28 C1079.37,169.53 1086.71,172.9 1116,181.28 C1138.48,187.71 1147.91,177.32 1168,189.28 C1199.75,208.18 1223.86,243.5 1238.56,269.94 " fill="none" id="epr-&gt;rEprKeys" style="stroke: #A80036; stroke-width: 1.0;"/><polygon fill="#A80036" points="1240.83,274.11,1240.0565,264.2916,1238.4467,269.7145,1233.0238,268.1048,1240.83,274.11" style="stroke: #A80036; stroke-width: 1.0;"/><!--MD5=[487ae18da4214d9743221345342d53c4]
link outbox to rmqAudit--><path d="M1192.83,130.5 C1207.55,139.66 1224.37,148.63 1241,154.28 C1375.2,199.92 1433.74,121.07 1558,189.28 C1595.36,209.79 1623.15,252.33 1637.94,279.4 " fill="none" id="outbox-&gt;rmqAudit" style="stroke: #A80036; stroke-width: 1.0;"/><polygon fill="#A80036" points="1640.19,283.59,1639.4792,273.7668,1637.8348,279.1794,1632.4222,277.5351,1640.19,283.59" style="stroke: #A80036; stroke-width: 1.0;"/><text fill="#000000" font-family="sans-serif" font-size="13" lengthAdjust="spacingAndGlyphs" textLength="87" x="1537.31" y="177.177">publish events</text><!--MD5=[a8859afedfc95e179bec71a65401fb06]
link email to rmqEmail--><path d="M1387.42,97.44 C1471.28,100.8 1618.91,117.5 1719,189.28 C1750.33,211.75 1770.74,252.75 1781.31,279.11 " fill="none" id="email-&gt;rmqEmail" style="stroke: #A80036; stroke-width: 1.0;"/><polygon fill="#A80036" points="1783.12,283.74,1783.5802,273.9019,1781.305,279.0811,1776.1259,276.8059,1783.12,283.74" style="stroke: #A80036; stroke-width: 1.0;"/><text fill="#000000" font-family="sans-serif" font-size="13" lengthAdjust="spacingAndGlyphs" textLength="134" x="1701.91" y="177.177">publish email requests</text><!--MD5=[af343f5256dfe8d4e73a3a9870c4314e]
link pg to GMN61--><path d="M716,348.3695 C716,348.7087 716,349.0489 716,349.3901 C716,350.7546 716,352.1346 716,353.5273 C716,356.3127 716,359.1492 716,362.0159 C716,367.7492 716,373.6034 716,379.4119 C716,391.0287 716,402.4625 716,412.38 " fill="none" id="pg-GMN61" style="stroke: #A80036; stroke-width: 1.0; stroke-dasharray: 7.0,7.0;"/><!--MD5=[aa17d9da91d0b93fb5bc876b8475e50e]
link redis to GMN64--><path d="M1542,358.4284 C1542,358.8114 1542,359.195 1542,359.5793 C1542,362.6537 1542,365.7702 1542,368.9027 C1542,375.1676 1542,381.4963 1542,387.6792 C1542,400.045 1542,411.8275 1542,421.35 " fill="none" id="redis-GMN64" style="stroke: #A80036; stroke-width: 1.0; stroke-dasharray: 7.0,7.0;"/><!--MD5=[99da3e457ae9d69bb073ff36b8c0de25]
@startuml External Dependencies
skinparam backgroundColor white
skinparam componentStyle uml2

package "Auth-Microservice" as app {
  [UsersService] as users
  [RolesService] as roles
  [PermissionsService] as perms
  [ApiKeysService] as apiKeys
  [SessionsService] as sessions
  [EPR Service] as epr
  [OutboxPublisher\n(Cron)] as outbox
  [EmailModule] as email
}

database "PostgreSQL\n(TypeORM)" as pg {
  collections "Users" as pgUsers
  collections "Roles" as pgRoles
  collections "Permissions" as pgPerms
  collections "API Keys" as pgKeys
  collections "EPR Rules" as pgEpr
  collections "Outbox" as pgOutbox
}

database "Redis" as redis {
  collections "auth_session:{sid}\n(Session JSON + TTL)" as rSess
  collections "user_sessions:{userId}\n(Session ID Set)" as rUserSess
  collections "epr:{endpoint_key}\n(Permission Codes)" as rEpr
  collections "epr_keys\n(Key Tracking Set)" as rEprKeys
}

queue "RabbitMQ" as rmq {
  collections "audit_queue" as rmqAudit
  collections "email_queue" as rmqEmail
}

users - -> pgUsers
roles - -> pgRoles
perms - -> pgPerms
apiKeys - -> pgKeys
epr - -> pgEpr
outbox - -> pgOutbox

sessions - -> rSess
sessions - -> rUserSess
epr - -> rEpr
epr - -> rEprKeys

outbox - -> rmqAudit : publish events
email - -> rmqEmail : publish email requests

note bottom of pg
  Source of truth for all entities.
  Outbox table ensures at-least-once
  delivery to RabbitMQ.
end note

note bottom of redis
  All Redis operations are resilient.
  Failures fall back to PostgreSQL.
end note
@enduml

PlantUML version 1.2020.02(Sun Mar 01 07:22:07 ART 2020)
(GPL source distribution)
Java Runtime: OpenJDK Runtime Environment
JVM: OpenJDK 64-Bit Server VM
Java Version: 21.0.11-ea+5-[Ubuntu-1]
Operating System: Linux
Default Encoding: UTF-8
Language: en
Country: US
--></g></svg>