<?xml version="1.0" encoding="UTF-8" standalone="no"?><svg xmlns="http://www.w3.org/2000/svg" xmlns:xlink="http://www.w3.org/1999/xlink" contentScriptType="application/ecmascript" contentStyleType="text/css" height="432px" preserveAspectRatio="none" style="width:882px;height:432px;" version="1.1" viewBox="0 0 882 432" width="882px" zoomAndPan="magnify"><defs><filter height="300%" id="f29zct3akfvm" width="300%" x="-1" y="-1"><feGaussianBlur result="blurOut" stdDeviation="2.0"/><feColorMatrix in="blurOut" result="blurOut2" type="matrix" values="0 0 0 0 0 0 0 0 0 0 0 0 0 0 0 0 0 0 .4 0"/><feOffset dx="4.0" dy="4.0" in="blurOut2" result="blurOut3"/><feBlend in="SourceGraphic" in2="blurOut3" mode="normal"/></filter></defs><g><!--MD5=[36615843579d932fff2101fcf8e96ac3]
class CanActivate--><rect fill="#FEFECE" filter="url(#f29zct3akfvm)" height="73.6701" id="CanActivate" style="stroke: #A80036; stroke-width: 1.5;" width="234" x="321.5" y="7.61"/><ellipse cx="402.75" cy="28.9541" fill="#B4A7E5" rx="11" ry="11" style="stroke: #A80036; stroke-width: 1.0;"/><path d="M398.6719,24.7197 L398.6719,22.5635 L406.0625,22.5635 L406.0625,24.7197 L403.5938,24.7197 L403.5938,32.7979 L406.0625,32.7979 L406.0625,34.9541 L398.6719,34.9541 L398.6719,32.7979 L401.1406,32.7979 L401.1406,24.7197 L398.6719,24.7197 Z "/><text fill="#000000" font-family="sans-serif" font-size="12" font-style="italic" lengthAdjust="spacingAndGlyphs" textLength="44" x="432.75" y="25.4381">«NestJS»</text><text fill="#000000" font-family="sans-serif" font-size="12" font-style="italic" lengthAdjust="spacingAndGlyphs" textLength="63" x="423.25" y="41.7822">CanActivate</text><line style="stroke: #A80036; stroke-width: 1.5;" x1="322.5" x2="554.5" y1="50.2982" y2="50.2982"/><line style="stroke: #A80036; stroke-width: 1.5;" x1="322.5" x2="554.5" y1="58.2982" y2="58.2982"/><ellipse cx="332.5" cy="69.2982" fill="#84BE84" rx="3" ry="3" style="stroke: #038048; stroke-width: 1.0;"/><text fill="#000000" font-family="sans-serif" font-size="11" lengthAdjust="spacingAndGlyphs" textLength="208" x="341.5" y="74.0571">canActivate(context): Promise&lt;boolean&gt;</text><!--MD5=[37adc4f848eeec8f16deca2e8985544a]
class AuthGuard--><rect fill="#FEFECE" filter="url(#f29zct3akfvm)" height="122.9094" id="AuthGuard" style="stroke: #A80036; stroke-width: 1.5;" width="265" x="6" y="148.78"/><ellipse cx="103.75" cy="164.78" fill="#ADD1B2" rx="11" ry="11" style="stroke: #A80036; stroke-width: 1.0;"/><path d="M106.7188,170.4206 Q106.1406,170.7175 105.5,170.8581 Q104.8594,171.0144 104.1563,171.0144 Q101.6563,171.0144 100.3281,169.3737 Q99.0156,167.7175 99.0156,164.5925 Q99.0156,161.4675 100.3281,159.8112 Q101.6563,158.155 104.1563,158.155 Q104.8594,158.155 105.5,158.3112 Q106.1563,158.4675 106.7188,158.7644 L106.7188,161.4831 Q106.0938,160.905 105.5,160.6394 Q104.9063,160.3581 104.2813,160.3581 Q102.9375,160.3581 102.25,161.4362 Q101.5625,162.4987 101.5625,164.5925 Q101.5625,166.6862 102.25,167.7644 Q102.9375,168.8269 104.2813,168.8269 Q104.9063,168.8269 105.5,168.5612 Q106.0938,168.28 106.7188,167.7019 L106.7188,170.4206 Z "/><text fill="#000000" font-family="sans-serif" font-size="12" lengthAdjust="spacingAndGlyphs" textLength="61" x="124.25" y="169.436">AuthGuard</text><line style="stroke: #A80036; stroke-width: 1.5;" x1="7" x2="270" y1="180.78" y2="180.78"/><rect fill="none" height="6" style="stroke: #C82930; stroke-width: 1.0;" width="6" x="14" y="188.78"/><text fill="#000000" font-family="sans-serif" font-size="11" lengthAdjust="spacingAndGlyphs" textLength="239" x="26" y="196.5389">endpointPermissionRulesService?: EPRService</text><ellipse cx="17" cy="206.7619" fill="#84BE84" rx="3" ry="3" style="stroke: #038048; stroke-width: 1.0;"/><text fill="#000000" font-family="sans-serif" font-size="11" lengthAdjust="spacingAndGlyphs" textLength="208" x="26" y="211.5208">canActivate(context): Promise&lt;boolean&gt;</text><rect fill="#F24D5C" height="6" style="stroke: #C82930; stroke-width: 1.0;" width="6" x="14" y="218.7438"/><text fill="#000000" font-family="sans-serif" font-size="11" lengthAdjust="spacingAndGlyphs" textLength="161" x="26" y="226.5027">extractToken(req): string | null</text><line style="stroke: #A80036; stroke-width: 1.5;" x1="7" x2="270" y1="233.7257" y2="233.7257"/><text fill="#000000" font-family="sans-serif" font-size="11" lengthAdjust="spacingAndGlyphs" textLength="101" x="12" y="249.4846">Cookie: auth_token</text><text fill="#000000" font-family="sans-serif" font-size="11" lengthAdjust="spacingAndGlyphs" textLength="86" x="12" y="264.4665">IP/subnet check:</text><text fill="#000000" font-family="sans-serif" font-size="11" font-weight="bold" lengthAdjust="spacingAndGlyphs" textLength="19" x="101" y="264.4665">Yes</text><!--MD5=[e3a02568de37c06b01f1f85ef9fe9979]
class MicroserviceGuard--><rect fill="#FEFECE" filter="url(#f29zct3akfvm)" height="137.8913" id="MicroserviceGuard" style="stroke: #A80036; stroke-width: 1.5;" width="265" x="306" y="141.28"/><ellipse cx="380.75" cy="157.28" fill="#ADD1B2" rx="11" ry="11" style="stroke: #A80036; stroke-width: 1.0;"/><path d="M383.7188,162.9206 Q383.1406,163.2175 382.5,163.3581 Q381.8594,163.5144 381.1563,163.5144 Q378.6563,163.5144 377.3281,161.8737 Q376.0156,160.2175 376.0156,157.0925 Q376.0156,153.9675 377.3281,152.3112 Q378.6563,150.655 381.1563,150.655 Q381.8594,150.655 382.5,150.8112 Q383.1563,150.9675 383.7188,151.2644 L383.7188,153.9831 Q383.0938,153.405 382.5,153.1394 Q381.9063,152.8581 381.2813,152.8581 Q379.9375,152.8581 379.25,153.9362 Q378.5625,154.9987 378.5625,157.0925 Q378.5625,159.1862 379.25,160.2644 Q379.9375,161.3269 381.2813,161.3269 Q381.9063,161.3269 382.5,161.0612 Q383.0938,160.78 383.7188,160.2019 L383.7188,162.9206 Z "/><text fill="#000000" font-family="sans-serif" font-size="12" lengthAdjust="spacingAndGlyphs" textLength="107" x="401.25" y="161.936">MicroserviceGuard</text><line style="stroke: #A80036; stroke-width: 1.5;" x1="307" x2="570" y1="173.28" y2="173.28"/><rect fill="none" height="6" style="stroke: #C82930; stroke-width: 1.0;" width="6" x="314" y="181.28"/><text fill="#000000" font-family="sans-serif" font-size="11" lengthAdjust="spacingAndGlyphs" textLength="239" x="326" y="189.0389">endpointPermissionRulesService?: EPRService</text><ellipse cx="317" cy="199.2619" fill="#84BE84" rx="3" ry="3" style="stroke: #038048; stroke-width: 1.0;"/><text fill="#000000" font-family="sans-serif" font-size="11" lengthAdjust="spacingAndGlyphs" textLength="208" x="326" y="204.0208">canActivate(context): Promise&lt;boolean&gt;</text><rect fill="#F24D5C" height="6" style="stroke: #C82930; stroke-width: 1.0;" width="6" x="314" y="211.2438"/><text fill="#000000" font-family="sans-serif" font-size="11" lengthAdjust="spacingAndGlyphs" textLength="230" x="326" y="219.0027">validateApiKey(context, req): Promise&lt;void&gt;</text><rect fill="#F24D5C" height="6" style="stroke: #C82930; stroke-width: 1.0;" width="6" x="314" y="226.2257"/><text fill="#000000" font-family="sans-serif" font-size="11" lengthAdjust="spacingAndGlyphs" textLength="205" x="326" y="233.9846">validateUserToken(req): Promise&lt;void&gt;</text><line style="stroke: #A80036; stroke-width: 1.5;" x1="307" x2="570" y1="241.2076" y2="241.2076"/><text fill="#000000" font-family="sans-serif" font-size="11" lengthAdjust="spacingAndGlyphs" textLength="173" x="312" y="256.9665">x-api-key + Authorization: Bearer</text><text fill="#000000" font-family="sans-serif" font-size="11" lengthAdjust="spacingAndGlyphs" textLength="86" x="312" y="271.9484">IP/subnet check:</text><text fill="#000000" font-family="sans-serif" font-size="11" font-weight="bold" lengthAdjust="spacingAndGlyphs" textLength="16" x="401" y="271.9484">No</text><!--MD5=[9892021054df8bafcf6bd67f2bf28669]
class ApiKeyGuard--><rect fill="#FEFECE" filter="url(#f29zct3akfvm)" height="107.9276" id="ApiKeyGuard" style="stroke: #A80036; stroke-width: 1.5;" width="265" x="606" y="156.27"/><ellipse cx="697.75" cy="172.27" fill="#ADD1B2" rx="11" ry="11" style="stroke: #A80036; stroke-width: 1.0;"/><path d="M700.7188,177.9106 Q700.1406,178.2075 699.5,178.3481 Q698.8594,178.5044 698.1563,178.5044 Q695.6563,178.5044 694.3281,176.8637 Q693.0156,175.2075 693.0156,172.0825 Q693.0156,168.9575 694.3281,167.3012 Q695.6563,165.645 698.1563,165.645 Q698.8594,165.645 699.5,165.8012 Q700.1563,165.9575 700.7188,166.2544 L700.7188,168.9731 Q700.0938,168.395 699.5,168.1294 Q698.9063,167.8481 698.2813,167.8481 Q696.9375,167.8481 696.25,168.9262 Q695.5625,169.9887 695.5625,172.0825 Q695.5625,174.1762 696.25,175.2544 Q696.9375,176.3169 698.2813,176.3169 Q698.9063,176.3169 699.5,176.0512 Q700.0938,175.77 700.7188,175.1919 L700.7188,177.9106 Z "/><text fill="#000000" font-family="sans-serif" font-size="12" lengthAdjust="spacingAndGlyphs" textLength="73" x="718.25" y="176.926">ApiKeyGuard</text><line style="stroke: #A80036; stroke-width: 1.5;" x1="607" x2="870" y1="188.27" y2="188.27"/><rect fill="none" height="6" style="stroke: #C82930; stroke-width: 1.0;" width="6" x="614" y="196.27"/><text fill="#000000" font-family="sans-serif" font-size="11" lengthAdjust="spacingAndGlyphs" textLength="239" x="626" y="204.0289">endpointPermissionRulesService?: EPRService</text><ellipse cx="617" cy="214.2519" fill="#84BE84" rx="3" ry="3" style="stroke: #038048; stroke-width: 1.0;"/><text fill="#000000" font-family="sans-serif" font-size="11" lengthAdjust="spacingAndGlyphs" textLength="208" x="626" y="219.0108">canActivate(context): Promise&lt;boolean&gt;</text><line style="stroke: #A80036; stroke-width: 1.5;" x1="607" x2="870" y1="226.2338" y2="226.2338"/><text fill="#000000" font-family="sans-serif" font-size="11" lengthAdjust="spacingAndGlyphs" textLength="88" x="612" y="241.9927">x-api-key header</text><text fill="#000000" font-family="sans-serif" font-size="11" lengthAdjust="spacingAndGlyphs" textLength="86" x="612" y="256.9746">IP/subnet check:</text><text fill="#000000" font-family="sans-serif" font-size="11" font-weight="bold" lengthAdjust="spacingAndGlyphs" textLength="16" x="701" y="256.9746">No</text><path d="M343.5,339.18 L343.5,420.0041 L533.5,420.0041 L533.5,349.18 L523.5,339.18 L343.5,339.18 " fill="#FBFB77" filter="url(#f29zct3akfvm)" style="stroke: #A80036; stroke-width: 1.0;"/><path d="M523.5,339.18 L523.5,349.18 L533.5,349.18 L523.5,339.18 " fill="#FBFB77" style="stroke: #A80036; stroke-width: 1.0;"/><text fill="#000000" font-family="sans-serif" font-size="13" lengthAdjust="spacingAndGlyphs" textLength="105" x="349.5" y="358.077">All guards resolve</text><text fill="#000000" font-family="sans-serif" font-size="13" lengthAdjust="spacingAndGlyphs" textLength="117" x="349.5" y="375.783">EPRService lazily via</text><text fill="#000000" font-family="sans-serif" font-size="13" lengthAdjust="spacingAndGlyphs" textLength="169" x="349.5" y="393.489">ModuleRef.get({strict: false})</text><text fill="#000000" font-family="sans-serif" font-size="13" lengthAdjust="spacingAndGlyphs" textLength="145" x="349.5" y="411.1951">to avoid circular imports</text><!--MD5=[7afd3c910b4ac029a6a6c25d8e794c46]
reverse link CanActivate to AuthGuard--><path d="M353.47,91.87 C321.3,109.44 284.17,129.7 249.93,148.4 " fill="none" id="CanActivate&lt;-AuthGuard" style="stroke: #A80036; stroke-width: 2.0; stroke-dasharray: 7.0,7.0;"/><polygon fill="none" points="350.06,85.76,370.96,82.32,356.76,98.05,350.06,85.76" style="stroke: #A80036; stroke-width: 2.0;"/><!--MD5=[d914c6cf8cd59111e5587d889647e004]
reverse link CanActivate to MicroserviceGuard--><path d="M438.5,102.56 C438.5,114.99 438.5,128.25 438.5,141.05 " fill="none" id="CanActivate&lt;-MicroserviceGuard" style="stroke: #A80036; stroke-width: 2.0; stroke-dasharray: 7.0,7.0;"/><polygon fill="none" points="431.5,102.91,438.5,82.91,445.5,102.91,431.5,102.91" style="stroke: #A80036; stroke-width: 2.0;"/><!--MD5=[f549792b83a2080cfd721dcd9617b99c]
reverse link CanActivate to ApiKeyGuard--><path d="M523.46,91.83 C560.02,111.79 602.98,135.24 640.84,155.92 " fill="none" id="CanActivate&lt;-ApiKeyGuard" style="stroke: #A80036; stroke-width: 2.0; stroke-dasharray: 7.0,7.0;"/><polygon fill="none" points="520.24,98.05,506.04,82.32,526.94,85.76,520.24,98.05" style="stroke: #A80036; stroke-width: 2.0;"/><!--MD5=[dba881ec717e7c42b3c5874216d3be6f]
link AuthGuard to N1--><path d="M247.66,272.12 C287.53,294.37 331.57,318.94 367.29,338.86 " fill="none" id="AuthGuard-N1" style="stroke: #A80036; stroke-width: 2.0; stroke-dasharray: 7.0,7.0;"/><!--MD5=[5a177bb58f22ebc2ca8631bf14103c4a]
link MicroserviceGuard to N1--><path d="M438.5,279.3 C438.5,299.57 438.5,321.11 438.5,338.93 " fill="none" id="MicroserviceGuard-N1" style="stroke: #A80036; stroke-width: 2.0; stroke-dasharray: 7.0,7.0;"/><!--MD5=[308b851ad21c1f6636c4fd62b0dcc7cf]
link ApiKeyGuard to N1--><path d="M642.75,264.64 C599.54,288.75 549.39,316.73 509.59,338.93 " fill="none" id="ApiKeyGuard-N1" style="stroke: #A80036; stroke-width: 2.0; stroke-dasharray: 7.0,7.0;"/><!--MD5=[8b0cd369351b5af961c15945cbdf6991]
@startuml Guard Architecture
skinparam backgroundColor white
skinparam classArrowThickness 2
hide empty methods

interface "CanActivate" <<NestJS>> {
  +canActivate(context): Promise<boolean>
}

class AuthGuard {
  -endpointPermissionRulesService?: EPRService
  +canActivate(context): Promise<boolean>
  -extractToken(req): string | null
  __
  Cookie: auth_token
  IP/subnet check: **Yes**
}

class MicroserviceGuard {
  -endpointPermissionRulesService?: EPRService
  +canActivate(context): Promise<boolean>
  -validateApiKey(context, req): Promise<void>
  -validateUserToken(req): Promise<void>
  __
  x-api-key + Authorization: Bearer
  IP/subnet check: **No**
}

class ApiKeyGuard {
  -endpointPermissionRulesService?: EPRService
  +canActivate(context): Promise<boolean>
  __
  x-api-key header
  IP/subnet check: **No**
}

CanActivate <|.. AuthGuard
CanActivate <|.. MicroserviceGuard
CanActivate <|.. ApiKeyGuard

note "All guards resolve\nEPRService lazily via\nModuleRef.get({strict: false})\nto avoid circular imports" as N1

AuthGuard .. N1
MicroserviceGuard .. N1
ApiKeyGuard .. N1
@enduml

PlantUML version 1.2020.02(Sun Mar 01 07:22:07 ART 2020)
(GPL source distribution)
Java Runtime: OpenJDK Runtime Environment
JVM: OpenJDK 64-Bit Server VM
Java Version: 21.0.11-ea+5-[Ubuntu-1]
Operating System: Linux
Default Encoding: UTF-8
Language: en
Country: US
--></g></svg>