<?xml version="1.0" encoding="UTF-8" standalone="no"?><svg xmlns="http://www.w3.org/2000/svg" xmlns:xlink="http://www.w3.org/1999/xlink" contentScriptType="application/ecmascript" contentStyleType="text/css" height="460px" preserveAspectRatio="none" style="width:1309px;height:460px;" version="1.1" viewBox="0 0 1309 460" width="1309px" zoomAndPan="magnify"><defs><filter height="300%" id="f1tgbtmydpyvk9" width="300%" x="-1" y="-1"><feGaussianBlur result="blurOut" stdDeviation="2.0"/><feColorMatrix in="blurOut" result="blurOut2" type="matrix" values="0 0 0 0 0 0 0 0 0 0 0 0 0 0 0 0 0 0 .4 0"/><feOffset dx="4.0" dy="4.0" in="blurOut2" result="blurOut3"/><feBlend in="SourceGraphic" in2="blurOut3" mode="normal"/></filter></defs><g><!--MD5=[ef8848e93dad7c9d2962c108910fdf4c]
cluster NestJS — Auth-Microservice--><rect fill="#FFFFFF" filter="url(#f1tgbtmydpyvk9)" height="338.27" style="stroke: #000000; stroke-width: 1.5;" width="1252" x="22" y="23.59"/><text fill="#000000" font-family="sans-serif" font-size="14" font-weight="bold" lengthAdjust="spacingAndGlyphs" textLength="193" x="551.5" y="40.5559">NestJS — Auth-Microservice</text><!--MD5=[f4e70ef68289585296b9045165e58692]
cluster controllers--><polygon fill="#FFFFFF" filter="url(#f1tgbtmydpyvk9)" points="46,79.13,129,79.13,136,104.1979,818,104.1979,818,182.19,46,182.19,46,79.13" style="stroke: #000000; stroke-width: 1.5;"/><line style="stroke: #000000; stroke-width: 1.5;" x1="46" x2="136" y1="104.1979" y2="104.1979"/><text fill="#000000" font-family="sans-serif" font-size="14" font-weight="bold" lengthAdjust="spacingAndGlyphs" textLength="77" x="50" y="96.0959">Controllers</text><!--MD5=[03c2ecdfa11f70b38eb496afaf3adc6b]
cluster services--><polygon fill="#FFFFFF" filter="url(#f1tgbtmydpyvk9)" points="77,215.73,139,215.73,146,240.7979,1248,240.7979,1248,337.86,77,337.86,77,215.73" style="stroke: #000000; stroke-width: 1.5;"/><line style="stroke: #000000; stroke-width: 1.5;" x1="77" x2="146" y1="240.7979" y2="240.7979"/><text fill="#000000" font-family="sans-serif" font-size="14" font-weight="bold" lengthAdjust="spacingAndGlyphs" textLength="56" x="81" y="232.6959">Services</text><!--MD5=[6cef1b41c0eeb701ff793dd0245af17b]
cluster cross--><polygon fill="#FFFFFF" filter="url(#f1tgbtmydpyvk9)" points="842,69.59,943,69.59,950,94.6579,1250,94.6579,1250,191.73,842,191.73,842,69.59" style="stroke: #000000; stroke-width: 1.5;"/><line style="stroke: #000000; stroke-width: 1.5;" x1="842" x2="950" y1="94.6579" y2="94.6579"/><text fill="#000000" font-family="sans-serif" font-size="14" font-weight="bold" lengthAdjust="spacingAndGlyphs" textLength="95" x="846" y="86.5559">Cross-Cutting</text><!--MD5=[474708be71670ca966b204c6ac53c565]
entity ucl--><rect fill="#FEFECE" filter="url(#f1tgbtmydpyvk9)" height="49.0679" style="stroke: #A80036; stroke-width: 1.5;" width="145" x="479.5" y="117.13"/><rect fill="#FEFECE" height="10" style="stroke: #A80036; stroke-width: 1.5;" width="15" x="604.5" y="122.13"/><rect fill="#FEFECE" height="2" style="stroke: #A80036; stroke-width: 1.5;" width="4" x="602.5" y="124.13"/><rect fill="#FEFECE" height="2" style="stroke: #A80036; stroke-width: 1.5;" width="4" x="602.5" y="128.13"/><text fill="#000000" font-family="sans-serif" font-size="14" lengthAdjust="spacingAndGlyphs" textLength="105" x="494.5" y="152.0959">UsersController</text><!--MD5=[9297e9ffddb519ab83e551abd6d27132]
entity rcl--><rect fill="#FEFECE" filter="url(#f1tgbtmydpyvk9)" height="49.0679" style="stroke: #A80036; stroke-width: 1.5;" width="143" x="659.5" y="117.13"/><rect fill="#FEFECE" height="10" style="stroke: #A80036; stroke-width: 1.5;" width="15" x="782.5" y="122.13"/><rect fill="#FEFECE" height="2" style="stroke: #A80036; stroke-width: 1.5;" width="4" x="780.5" y="124.13"/><rect fill="#FEFECE" height="2" style="stroke: #A80036; stroke-width: 1.5;" width="4" x="780.5" y="128.13"/><text fill="#000000" font-family="sans-serif" font-size="14" lengthAdjust="spacingAndGlyphs" textLength="103" x="674.5" y="152.0959">RolesController</text><!--MD5=[9093b0238b8443ad9d5ec722131c0785]
entity pcl--><rect fill="#FEFECE" filter="url(#f1tgbtmydpyvk9)" height="49.0679" style="stroke: #A80036; stroke-width: 1.5;" width="188" x="62" y="117.13"/><rect fill="#FEFECE" height="10" style="stroke: #A80036; stroke-width: 1.5;" width="15" x="230" y="122.13"/><rect fill="#FEFECE" height="2" style="stroke: #A80036; stroke-width: 1.5;" width="4" x="228" y="124.13"/><rect fill="#FEFECE" height="2" style="stroke: #A80036; stroke-width: 1.5;" width="4" x="228" y="128.13"/><text fill="#000000" font-family="sans-serif" font-size="14" lengthAdjust="spacingAndGlyphs" textLength="148" x="77" y="152.0959">PermissionsController</text><!--MD5=[998c8c8ab58b1f3f31f84395cb30455f]
entity acl--><rect fill="#FEFECE" filter="url(#f1tgbtmydpyvk9)" height="49.0679" style="stroke: #A80036; stroke-width: 1.5;" width="160" x="285" y="117.13"/><rect fill="#FEFECE" height="10" style="stroke: #A80036; stroke-width: 1.5;" width="15" x="425" y="122.13"/><rect fill="#FEFECE" height="2" style="stroke: #A80036; stroke-width: 1.5;" width="4" x="423" y="124.13"/><rect fill="#FEFECE" height="2" style="stroke: #A80036; stroke-width: 1.5;" width="4" x="423" y="128.13"/><text fill="#000000" font-family="sans-serif" font-size="14" lengthAdjust="spacingAndGlyphs" textLength="120" x="300" y="152.0959">ApiKeysController</text><!--MD5=[150f63aa2cc7191435a4b04f31890950]
entity usvc--><rect fill="#FEFECE" filter="url(#f1tgbtmydpyvk9)" height="49.0679" style="stroke: #A80036; stroke-width: 1.5;" width="126" x="472" y="263.26"/><rect fill="#FEFECE" height="10" style="stroke: #A80036; stroke-width: 1.5;" width="15" x="578" y="268.26"/><rect fill="#FEFECE" height="2" style="stroke: #A80036; stroke-width: 1.5;" width="4" x="576" y="270.26"/><rect fill="#FEFECE" height="2" style="stroke: #A80036; stroke-width: 1.5;" width="4" x="576" y="274.26"/><text fill="#000000" font-family="sans-serif" font-size="14" lengthAdjust="spacingAndGlyphs" textLength="86" x="487" y="298.2259">UsersService</text><!--MD5=[c986b644a9106c3bb95582772414b32b]
entity rsvc--><rect fill="#FEFECE" filter="url(#f1tgbtmydpyvk9)" height="49.0679" style="stroke: #A80036; stroke-width: 1.5;" width="124" x="633" y="263.26"/><rect fill="#FEFECE" height="10" style="stroke: #A80036; stroke-width: 1.5;" width="15" x="737" y="268.26"/><rect fill="#FEFECE" height="2" style="stroke: #A80036; stroke-width: 1.5;" width="4" x="735" y="270.26"/><rect fill="#FEFECE" height="2" style="stroke: #A80036; stroke-width: 1.5;" width="4" x="735" y="274.26"/><text fill="#000000" font-family="sans-serif" font-size="14" lengthAdjust="spacingAndGlyphs" textLength="84" x="648" y="298.2259">RolesService</text><!--MD5=[024ad574ca58ada91c72c28db1b59b6f]
entity psvc--><rect fill="#FEFECE" filter="url(#f1tgbtmydpyvk9)" height="49.0679" style="stroke: #A80036; stroke-width: 1.5;" width="169" x="92.5" y="263.26"/><rect fill="#FEFECE" height="10" style="stroke: #A80036; stroke-width: 1.5;" width="15" x="241.5" y="268.26"/><rect fill="#FEFECE" height="2" style="stroke: #A80036; stroke-width: 1.5;" width="4" x="239.5" y="270.26"/><rect fill="#FEFECE" height="2" style="stroke: #A80036; stroke-width: 1.5;" width="4" x="239.5" y="274.26"/><text fill="#000000" font-family="sans-serif" font-size="14" lengthAdjust="spacingAndGlyphs" textLength="129" x="107.5" y="298.2259">PermissionsService</text><!--MD5=[1feab9f3cdb5989b70010ef6577b19bf]
entity asvc--><rect fill="#FEFECE" filter="url(#f1tgbtmydpyvk9)" height="49.0679" style="stroke: #A80036; stroke-width: 1.5;" width="141" x="296.5" y="263.26"/><rect fill="#FEFECE" height="10" style="stroke: #A80036; stroke-width: 1.5;" width="15" x="417.5" y="268.26"/><rect fill="#FEFECE" height="2" style="stroke: #A80036; stroke-width: 1.5;" width="4" x="415.5" y="270.26"/><rect fill="#FEFECE" height="2" style="stroke: #A80036; stroke-width: 1.5;" width="4" x="415.5" y="274.26"/><text fill="#000000" font-family="sans-serif" font-size="14" lengthAdjust="spacingAndGlyphs" textLength="101" x="311.5" y="298.2259">ApiKeysService</text><!--MD5=[578f7bfce738daf475a9f15848f33646]
entity ssvc--><rect fill="#FEFECE" filter="url(#f1tgbtmydpyvk9)" height="49.0679" style="stroke: #A80036; stroke-width: 1.5;" width="146" x="792" y="263.26"/><rect fill="#FEFECE" height="10" style="stroke: #A80036; stroke-width: 1.5;" width="15" x="918" y="268.26"/><rect fill="#FEFECE" height="2" style="stroke: #A80036; stroke-width: 1.5;" width="4" x="916" y="270.26"/><rect fill="#FEFECE" height="2" style="stroke: #A80036; stroke-width: 1.5;" width="4" x="916" y="274.26"/><text fill="#000000" font-family="sans-serif" font-size="14" lengthAdjust="spacingAndGlyphs" textLength="106" x="807" y="298.2259">SessionsService</text><!--MD5=[ac75ba9b5c2dc144382a9fafd3a0f1f5]
entity jsvc--><rect fill="#FEFECE" filter="url(#f1tgbtmydpyvk9)" height="49.0679" style="stroke: #A80036; stroke-width: 1.5;" width="108" x="973" y="263.26"/><rect fill="#FEFECE" height="10" style="stroke: #A80036; stroke-width: 1.5;" width="15" x="1061" y="268.26"/><rect fill="#FEFECE" height="2" style="stroke: #A80036; stroke-width: 1.5;" width="4" x="1059" y="270.26"/><rect fill="#FEFECE" height="2" style="stroke: #A80036; stroke-width: 1.5;" width="4" x="1059" y="274.26"/><text fill="#000000" font-family="sans-serif" font-size="14" lengthAdjust="spacingAndGlyphs" textLength="68" x="988" y="298.2259">JwtService</text><!--MD5=[b021f62c5bd48ce6d6ee48a185b08d4a]
entity esvc--><rect fill="#FEFECE" filter="url(#f1tgbtmydpyvk9)" height="68.1358" style="stroke: #A80036; stroke-width: 1.5;" width="116" x="1116" y="253.73"/><rect fill="#FEFECE" height="10" style="stroke: #A80036; stroke-width: 1.5;" width="15" x="1212" y="258.73"/><rect fill="#FEFECE" height="2" style="stroke: #A80036; stroke-width: 1.5;" width="4" x="1210" y="260.73"/><rect fill="#FEFECE" height="2" style="stroke: #A80036; stroke-width: 1.5;" width="4" x="1210" y="264.73"/><text fill="#000000" font-family="sans-serif" font-size="14" lengthAdjust="spacingAndGlyphs" textLength="76" x="1131" y="288.6959">EmailClient</text><text fill="#000000" font-family="sans-serif" font-size="14" lengthAdjust="spacingAndGlyphs" textLength="76" x="1131" y="307.7639">(RabbitMQ)</text><!--MD5=[ea7a1c341d347d9cf6412a519c4070a5]
entity outbox--><rect fill="#FEFECE" filter="url(#f1tgbtmydpyvk9)" height="68.1358" style="stroke: #A80036; stroke-width: 1.5;" width="142" x="858" y="107.59"/><rect fill="#FEFECE" height="10" style="stroke: #A80036; stroke-width: 1.5;" width="15" x="980" y="112.59"/><rect fill="#FEFECE" height="2" style="stroke: #A80036; stroke-width: 1.5;" width="4" x="978" y="114.59"/><rect fill="#FEFECE" height="2" style="stroke: #A80036; stroke-width: 1.5;" width="4" x="978" y="118.59"/><text fill="#000000" font-family="sans-serif" font-size="14" lengthAdjust="spacingAndGlyphs" textLength="102" x="873" y="142.5559">Outbox Pattern</text><text fill="#000000" font-family="sans-serif" font-size="14" lengthAdjust="spacingAndGlyphs" textLength="92" x="873" y="161.6239">(Cron → RMQ)</text><!--MD5=[649ed5df2fb94ab59465f112e376ae8e]
entity obs--><rect fill="#FEFECE" filter="url(#f1tgbtmydpyvk9)" height="68.1358" style="stroke: #A80036; stroke-width: 1.5;" width="199" x="1034.5" y="107.59"/><rect fill="#FEFECE" height="10" style="stroke: #A80036; stroke-width: 1.5;" width="15" x="1213.5" y="112.59"/><rect fill="#FEFECE" height="2" style="stroke: #A80036; stroke-width: 1.5;" width="4" x="1211.5" y="114.59"/><rect fill="#FEFECE" height="2" style="stroke: #A80036; stroke-width: 1.5;" width="4" x="1211.5" y="118.59"/><text fill="#000000" font-family="sans-serif" font-size="14" lengthAdjust="spacingAndGlyphs" textLength="89" x="1049.5" y="142.5559">Observability</text><text fill="#000000" font-family="sans-serif" font-size="14" lengthAdjust="spacingAndGlyphs" textLength="159" x="1049.5" y="161.6239">(Prometheus + Grafana)</text><!--MD5=[4819d7e546ed2c2981b8955b82e72e10]
entity pg--><path d="M318.5,391.86 C318.5,381.86 367,381.86 367,381.86 C367,381.86 415.5,381.86 415.5,391.86 L415.5,438.9958 C415.5,448.9958 367,448.9958 367,448.9958 C367,448.9958 318.5,448.9958 318.5,438.9958 L318.5,391.86 " fill="#FEFECE" filter="url(#f1tgbtmydpyvk9)" style="stroke: #000000; stroke-width: 1.5;"/><path d="M318.5,391.86 C318.5,401.86 367,401.86 367,401.86 C367,401.86 415.5,401.86 415.5,391.86 " fill="none" style="stroke: #000000; stroke-width: 1.5;"/><text fill="#000000" font-family="sans-serif" font-size="14" lengthAdjust="spacingAndGlyphs" textLength="77" x="328.5" y="420.8259">PostgreSQL</text><text fill="#000000" font-family="sans-serif" font-size="14" lengthAdjust="spacingAndGlyphs" textLength="73" x="328.5" y="439.8939">(TypeORM)</text><!--MD5=[de5dc476b5cd49b5a92d294ad2af7d70]
entity redis--><path d="M836.5,401.4 C836.5,391.4 865,391.4 865,391.4 C865,391.4 893.5,391.4 893.5,401.4 L893.5,429.4679 C893.5,439.4679 865,439.4679 865,439.4679 C865,439.4679 836.5,439.4679 836.5,429.4679 L836.5,401.4 " fill="#FEFECE" filter="url(#f1tgbtmydpyvk9)" style="stroke: #000000; stroke-width: 1.5;"/><path d="M836.5,401.4 C836.5,411.4 865,411.4 865,411.4 C865,411.4 893.5,411.4 893.5,401.4 " fill="none" style="stroke: #000000; stroke-width: 1.5;"/><text fill="#000000" font-family="sans-serif" font-size="14" lengthAdjust="spacingAndGlyphs" textLength="37" x="846.5" y="430.3659">Redis</text><!--MD5=[1942d284e85e4b44bebc28a0e90a26b7]
entity rmq--><path d="M1190,400.9 L1268,400.9 C1273,400.9 1273,415.434 1273,415.434 C1273,415.434 1273,429.9679 1268,429.9679 L1190,429.9679 C1185,429.9679 1185,415.434 1185,415.434 C1185,415.434 1185,400.9 1190,400.9 " fill="#FEFECE" filter="url(#f1tgbtmydpyvk9)" style="stroke: #A80036; stroke-width: 1.5;"/><path d="M1268,400.9 C1263,400.9 1263,415.434 1263,415.434 C1263,429.9679 1268,429.9679 1268,429.9679 " fill="none" style="stroke: #A80036; stroke-width: 1.5;"/><text fill="#000000" font-family="sans-serif" font-size="14" lengthAdjust="spacingAndGlyphs" textLength="68" x="1190" y="420.8659">RabbitMQ</text><!--MD5=[d2fe3e37a37d5fdcc4c2ea51b2266cb5]
link ucl to usvc--><path d="M549.19,166.46 C546.28,191.19 541.71,229.94 538.54,256.75 " fill="none" id="ucl-&gt;usvc" style="stroke: #A80036; stroke-width: 1.0;"/><polygon fill="#A80036" points="537.99,261.46,543.0184,252.9915,538.5767,256.4945,535.0737,252.0528,537.99,261.46" style="stroke: #A80036; stroke-width: 1.0;"/><!--MD5=[b125cc51db185c1f43a7409f4a971ab1]
link rcl to rsvc--><path d="M725.06,166.46 C718.88,191.19 709.2,229.94 702.5,256.75 " fill="none" id="rcl-&gt;rsvc" style="stroke: #A80036; stroke-width: 1.0;"/><polygon fill="#A80036" points="701.32,261.49,707.3619,253.7121,702.5192,256.6359,699.5954,251.7933,701.32,261.49" style="stroke: #A80036; stroke-width: 1.0;"/><!--MD5=[26a56dbad59e92dddedee205ce58fd11]
link pcl to psvc--><path d="M159.47,166.46 C163.07,191.19 168.72,229.94 172.62,256.75 " fill="none" id="pcl-&gt;psvc" style="stroke: #A80036; stroke-width: 1.0;"/><polygon fill="#A80036" points="173.31,261.46,175.9548,251.9729,172.5809,256.5134,168.0403,253.1395,173.31,261.46" style="stroke: #A80036; stroke-width: 1.0;"/><!--MD5=[9e92d04e7174ef981b9dd5e4fce0e895]
link acl to asvc--><path d="M365.33,166.46 C365.67,191.19 366.21,229.94 366.58,256.75 " fill="none" id="acl-&gt;asvc" style="stroke: #A80036; stroke-width: 1.0;"/><polygon fill="#A80036" points="366.65,261.45,370.521,252.3938,366.5786,256.4505,362.5218,252.5081,366.65,261.45" style="stroke: #A80036; stroke-width: 1.0;"/><!--MD5=[37f41077c97271215b5e3ab995b6b85b]
link usvc to pg--><path d="M515.35,312.49 C500.13,329.85 477.84,353.2 455,369.86 C444.66,377.41 432.85,384.35 421.32,390.4 " fill="none" id="usvc-&gt;pg" style="stroke: #A80036; stroke-width: 1.0;"/><polygon fill="#A80036" points="417.03,392.6,426.8629,392.0396,421.4761,390.3126,423.2031,384.9258,417.03,392.6" style="stroke: #A80036; stroke-width: 1.0;"/><!--MD5=[9a589692ab0bdf7d7742011a798cdcc1]
link rsvc to pg--><path d="M678.4,312.63 C664.08,331.27 641.69,356.23 616,369.86 C554.86,402.3 474.63,411.69 421.99,414.12 " fill="none" id="rsvc-&gt;pg" style="stroke: #A80036; stroke-width: 1.0;"/><polygon fill="#A80036" points="417.22,414.31,426.3835,417.9198,422.2154,414.0953,426.0399,409.9272,417.22,414.31" style="stroke: #A80036; stroke-width: 1.0;"/><!--MD5=[d15c6a7b24d0bb16d98b367484aa9683]
link psvc to pg--><path d="M204,312.75 C223.94,329.8 252.15,352.65 279,369.86 C289.53,376.62 301.22,383.14 312.54,389.03 " fill="none" id="psvc-&gt;pg" style="stroke: #A80036; stroke-width: 1.0;"/><polygon fill="#A80036" points="316.72,391.17,310.5469,383.4958,312.2739,388.8826,306.8871,390.6096,316.72,391.17" style="stroke: #A80036; stroke-width: 1.0;"/><!--MD5=[b4204cbfa57df05d12ad0b17597ad25d]
link asvc to pg--><path d="M367,312.72 C367,330.33 367,354.65 367,375.09 " fill="none" id="asvc-&gt;pg" style="stroke: #A80036; stroke-width: 1.0;"/><polygon fill="#A80036" points="367,380.06,371,371.06,367,375.06,363,371.06,367,380.06" style="stroke: #A80036; stroke-width: 1.0;"/><!--MD5=[5f6655692dfefb50a2e65ada4a63c0e0]
link ssvc to redis--><path d="M865,312.72 C865,333.2 865,362.77 865,384.75 " fill="none" id="ssvc-&gt;redis" style="stroke: #A80036; stroke-width: 1.0;"/><polygon fill="#A80036" points="865,389.51,869,380.51,865,384.51,861,380.51,865,389.51" style="stroke: #A80036; stroke-width: 1.0;"/><!--MD5=[c0d904ccd734bf47a0d708c55ed14a36]
link outbox to pg--><path d="M876.22,176.11 C858.42,185.64 837.98,194.78 818,199.73 C798.02,204.68 91.48,193.09 77,207.73 C26.32,258.96 30.07,315.18 77,369.86 C106.64,404.41 236.24,412.44 311.78,414.14 " fill="none" id="outbox-&gt;pg" style="stroke: #A80036; stroke-width: 1.0;"/><polygon fill="#A80036" points="316.51,414.24,307.5918,410.0608,311.511,414.14,307.4318,418.0592,316.51,414.24" style="stroke: #A80036; stroke-width: 1.0;"/><!--MD5=[a494ea224f8628725c3c7727c53fe47e]
link outbox to rmq--><path d="M970.5,176.12 C984.47,185.53 1000.67,194.59 1017,199.73 C1029.25,203.58 1239.08,198.49 1248,207.73 C1297.4,258.87 1259.37,353.96 1239.33,394.88 " fill="none" id="outbox-&gt;rmq" style="stroke: #A80036; stroke-width: 1.0;"/><polygon fill="#A80036" points="1237.19,399.16,1244.7846,392.8893,1239.4203,394.685,1237.6246,389.3207,1237.19,399.16" style="stroke: #A80036; stroke-width: 1.0;"/><!--MD5=[b721a9007ed79f82ecac82f34781865b]
link esvc to rmq--><path d="M1188.59,322.13 C1198.7,345.22 1211.82,375.19 1220.32,394.61 " fill="none" id="esvc-&gt;rmq" style="stroke: #A80036; stroke-width: 1.0;"/><polygon fill="#A80036" points="1222.3,399.14,1222.3315,389.2912,1220.2839,394.5645,1215.0106,392.5169,1222.3,399.14" style="stroke: #A80036; stroke-width: 1.0;"/><!--MD5=[b8af80f8c15718b82fd1fe68e37961d2]
@startuml High-Level Architecture
skinparam backgroundColor white
skinparam componentStyle uml2
skinparam packageStyle rectangle

rectangle "NestJS — Auth-Microservice" {
  package "Controllers" as controllers {
    [UsersController] as ucl
    [RolesController] as rcl
    [PermissionsController] as pcl
    [ApiKeysController] as acl
  }

  package "Services" as services {
    [UsersService] as usvc
    [RolesService] as rsvc
    [PermissionsService] as psvc
    [ApiKeysService] as asvc
    [SessionsService] as ssvc
    [JwtService] as jsvc
    [EmailClient\n(RabbitMQ)] as esvc
  }

  package "Cross-Cutting" as cross {
    [Outbox Pattern\n(Cron → RMQ)] as outbox
    [Observability\n(Prometheus + Grafana)] as obs
  }

  ucl - -> usvc
  rcl - -> rsvc
  pcl - -> psvc
  acl - -> asvc
}

database "PostgreSQL\n(TypeORM)" as pg
database "Redis" as redis
queue "RabbitMQ" as rmq

usvc - -> pg
rsvc - -> pg
psvc - -> pg
asvc - -> pg

ssvc - -> redis

outbox - -> pg
outbox - -> rmq
esvc - -> rmq
@enduml

PlantUML version 1.2020.02(Sun Mar 01 07:22:07 ART 2020)
(GPL source distribution)
Java Runtime: OpenJDK Runtime Environment
JVM: OpenJDK 64-Bit Server VM
Java Version: 21.0.11-ea+5-[Ubuntu-1]
Operating System: Linux
Default Encoding: UTF-8
Language: en
Country: US
--></g></svg>