<?xml version="1.0" encoding="UTF-8" standalone="no"?><svg xmlns="http://www.w3.org/2000/svg" xmlns:xlink="http://www.w3.org/1999/xlink" contentScriptType="application/ecmascript" contentStyleType="text/css" height="501px" preserveAspectRatio="none" style="width:729px;height:501px;" version="1.1" viewBox="0 0 729 501" width="729px" zoomAndPan="magnify"><defs><filter height="300%" id="fwarhcf76sozp" width="300%" x="-1" y="-1"><feGaussianBlur result="blurOut" stdDeviation="2.0"/><feColorMatrix in="blurOut" result="blurOut2" type="matrix" values="0 0 0 0 0 0 0 0 0 0 0 0 0 0 0 0 0 0 .4 0"/><feOffset dx="4.0" dy="4.0" in="blurOut2" result="blurOut3"/><feBlend in="SourceGraphic" in2="blurOut3" mode="normal"/></filter></defs><g><rect fill="#FFFFFF" filter="url(#fwarhcf76sozp)" height="94.118" style="stroke: #A80036; stroke-width: 1.0;" width="10" x="174.5" y="140.4799"/><rect fill="#FFFFFF" filter="url(#fwarhcf76sozp)" height="158.5301" style="stroke: #A80036; stroke-width: 1.0;" width="10" x="407.5" y="234.598"/><rect fill="#FFFFFF" filter="url(#fwarhcf76sozp)" height="59.706" style="stroke: #A80036; stroke-width: 1.0;" width="10" x="531" y="266.304"/><rect fill="#FFFFFF" filter="url(#fwarhcf76sozp)" height="14" style="stroke: #A80036; stroke-width: 1.0;" width="10" x="694" y="298.01"/><line style="stroke: #A80036; stroke-width: 1.0; stroke-dasharray: 5.0,5.0;" x1="38" x2="38" y1="89.0679" y2="411.1281"/><line style="stroke: #A80036; stroke-width: 1.0; stroke-dasharray: 5.0,5.0;" x1="179.5" x2="179.5" y1="89.0679" y2="411.1281"/><line style="stroke: #A80036; stroke-width: 1.0; stroke-dasharray: 5.0,5.0;" x1="412" x2="412" y1="89.0679" y2="411.1281"/><line style="stroke: #A80036; stroke-width: 1.0; stroke-dasharray: 5.0,5.0;" x1="536" x2="536" y1="89.0679" y2="411.1281"/><line style="stroke: #A80036; stroke-width: 1.0; stroke-dasharray: 5.0,5.0;" x1="698.5" x2="698.5" y1="89.0679" y2="411.1281"/><text fill="#000000" font-family="sans-serif" font-size="14" lengthAdjust="spacingAndGlyphs" textLength="55" x="8" y="84.9659">Browser</text><ellipse cx="38.5" cy="13" fill="#FEFECE" filter="url(#fwarhcf76sozp)" rx="8" ry="8" style="stroke: #A80036; stroke-width: 2.0;"/><path d="M38.5,21 L38.5,48 M25.5,29 L51.5,29 M38.5,48 L25.5,63 M38.5,48 L51.5,63 " fill="none" filter="url(#fwarhcf76sozp)" style="stroke: #A80036; stroke-width: 2.0;"/><text fill="#000000" font-family="sans-serif" font-size="14" lengthAdjust="spacingAndGlyphs" textLength="55" x="8" y="425.094">Browser</text><ellipse cx="38.5" cy="439.196" fill="#FEFECE" filter="url(#fwarhcf76sozp)" rx="8" ry="8" style="stroke: #A80036; stroke-width: 2.0;"/><path d="M38.5,447.196 L38.5,474.196 M25.5,455.196 L51.5,455.196 M38.5,474.196 L25.5,489.196 M38.5,474.196 L51.5,489.196 " fill="none" filter="url(#fwarhcf76sozp)" style="stroke: #A80036; stroke-width: 2.0;"/><rect fill="#FEFECE" filter="url(#fwarhcf76sozp)" height="33.0679" style="stroke: #A80036; stroke-width: 1.5;" width="88" x="133.5" y="51"/><text fill="#000000" font-family="sans-serif" font-size="14" lengthAdjust="spacingAndGlyphs" textLength="74" x="140.5" y="72.9659">AuthGuard</text><rect fill="#FEFECE" filter="url(#fwarhcf76sozp)" height="33.0679" style="stroke: #A80036; stroke-width: 1.5;" width="88" x="133.5" y="410.1281"/><text fill="#000000" font-family="sans-serif" font-size="14" lengthAdjust="spacingAndGlyphs" textLength="74" x="140.5" y="432.094">AuthGuard</text><rect fill="#FEFECE" filter="url(#fwarhcf76sozp)" height="33.0679" style="stroke: #A80036; stroke-width: 1.5;" width="119" x="351" y="51"/><text fill="#000000" font-family="sans-serif" font-size="14" lengthAdjust="spacingAndGlyphs" textLength="105" x="358" y="72.9659">UsersController</text><rect fill="#FEFECE" filter="url(#fwarhcf76sozp)" height="33.0679" style="stroke: #A80036; stroke-width: 1.5;" width="119" x="351" y="410.1281"/><text fill="#000000" font-family="sans-serif" font-size="14" lengthAdjust="spacingAndGlyphs" textLength="105" x="358" y="432.094">UsersController</text><rect fill="#FEFECE" filter="url(#fwarhcf76sozp)" height="33.0679" style="stroke: #A80036; stroke-width: 1.5;" width="100" x="484" y="51"/><text fill="#000000" font-family="sans-serif" font-size="14" lengthAdjust="spacingAndGlyphs" textLength="86" x="491" y="72.9659">UsersService</text><rect fill="#FEFECE" filter="url(#fwarhcf76sozp)" height="33.0679" style="stroke: #A80036; stroke-width: 1.5;" width="100" x="484" y="410.1281"/><text fill="#000000" font-family="sans-serif" font-size="14" lengthAdjust="spacingAndGlyphs" textLength="86" x="491" y="432.094">UsersService</text><text fill="#000000" font-family="sans-serif" font-size="14" lengthAdjust="spacingAndGlyphs" textLength="37" x="677.5" y="84.9659">Redis</text><path d="M681,34 C681,24 699,24 699,24 C699,24 717,24 717,34 L717,60 C717,70 699,70 699,70 C699,70 681,70 681,60 L681,34 " fill="#FEFECE" filter="url(#fwarhcf76sozp)" style="stroke: #000000; stroke-width: 1.5;"/><path d="M681,34 C681,44 699,44 699,44 C699,44 717,44 717,34 " fill="none" style="stroke: #000000; stroke-width: 1.5;"/><text fill="#000000" font-family="sans-serif" font-size="14" lengthAdjust="spacingAndGlyphs" textLength="37" x="677.5" y="425.094">Redis</text><path d="M681,439.196 C681,429.196 699,429.196 699,429.196 C699,429.196 717,429.196 717,439.196 L717,465.196 C717,475.196 699,475.196 699,475.196 C699,475.196 681,475.196 681,465.196 L681,439.196 " fill="#FEFECE" filter="url(#fwarhcf76sozp)" style="stroke: #000000; stroke-width: 1.5;"/><path d="M681,439.196 C681,449.196 699,449.196 699,449.196 C699,449.196 717,449.196 717,439.196 " fill="none" style="stroke: #000000; stroke-width: 1.5;"/><rect fill="#FFFFFF" filter="url(#fwarhcf76sozp)" height="94.118" style="stroke: #A80036; stroke-width: 1.0;" width="10" x="174.5" y="140.4799"/><rect fill="#FFFFFF" filter="url(#fwarhcf76sozp)" height="158.5301" style="stroke: #A80036; stroke-width: 1.0;" width="10" x="407.5" y="234.598"/><rect fill="#FFFFFF" filter="url(#fwarhcf76sozp)" height="59.706" style="stroke: #A80036; stroke-width: 1.0;" width="10" x="531" y="266.304"/><rect fill="#FFFFFF" filter="url(#fwarhcf76sozp)" height="14" style="stroke: #A80036; stroke-width: 1.0;" width="10" x="694" y="298.01"/><polygon fill="#A80036" points="162.5,136.4799,172.5,140.4799,162.5,144.4799,166.5,140.4799" style="stroke: #A80036; stroke-width: 1.0;"/><line style="stroke: #A80036; stroke-width: 2.0;" x1="38.5" x2="168.5" y1="140.4799" y2="140.4799"/><text fill="#000000" font-family="sans-serif" font-size="13" lengthAdjust="spacingAndGlyphs" textLength="117" x="45.5" y="116.9649">POST /users/logout</text><text fill="#000000" font-family="sans-serif" font-size="13" lengthAdjust="spacingAndGlyphs" textLength="116" x="45.5" y="134.6709">Cookie: auth_token</text><line style="stroke: #A80036; stroke-width: 2.0;" x1="184.5" x2="226.5" y1="189.892" y2="189.892"/><line style="stroke: #A80036; stroke-width: 2.0;" x1="226.5" x2="226.5" y1="189.892" y2="202.892"/><line style="stroke: #A80036; stroke-width: 2.0;" x1="185.5" x2="226.5" y1="202.892" y2="202.892"/><polygon fill="#A80036" points="195.5,198.892,185.5,202.892,195.5,206.892,191.5,202.892" style="stroke: #A80036; stroke-width: 1.0;"/><text fill="#000000" font-family="sans-serif" font-size="13" lengthAdjust="spacingAndGlyphs" textLength="90" x="191.5" y="166.377">Validate cookie</text><text fill="#000000" font-family="sans-serif" font-size="13" lengthAdjust="spacingAndGlyphs" textLength="205" x="191.5" y="184.083">Load session (see AuthGuard flow)</text><polygon fill="#A80036" points="395.5,230.598,405.5,234.598,395.5,238.598,399.5,234.598" style="stroke: #A80036; stroke-width: 1.0;"/><line style="stroke: #A80036; stroke-width: 2.0; stroke-dasharray: 2.0,2.0;" x1="179.5" x2="401.5" y1="234.598" y2="234.598"/><text fill="#000000" font-family="sans-serif" font-size="13" lengthAdjust="spacingAndGlyphs" textLength="145" x="186.5" y="228.789">request.user = AuthUser</text><polygon fill="#A80036" points="519,262.304,529,266.304,519,270.304,523,266.304" style="stroke: #A80036; stroke-width: 1.0;"/><line style="stroke: #A80036; stroke-width: 2.0;" x1="417.5" x2="525" y1="266.304" y2="266.304"/><text fill="#000000" font-family="sans-serif" font-size="13" lengthAdjust="spacingAndGlyphs" textLength="76" x="424.5" y="260.495">logOut(user)</text><polygon fill="#A80036" points="682,294.01,692,298.01,682,302.01,686,298.01" style="stroke: #A80036; stroke-width: 1.0;"/><line style="stroke: #A80036; stroke-width: 2.0;" x1="541" x2="688" y1="298.01" y2="298.01"/><text fill="#000000" font-family="sans-serif" font-size="13" lengthAdjust="spacingAndGlyphs" textLength="134" x="548" y="292.201">DEL auth_session:{sid}</text><polygon fill="#A80036" points="552,308.01,542,312.01,552,316.01,548,312.01" style="stroke: #A80036; stroke-width: 1.0;"/><line style="stroke: #A80036; stroke-width: 2.0; stroke-dasharray: 2.0,2.0;" x1="546" x2="698" y1="312.01" y2="312.01"/><polygon fill="#A80036" points="428.5,322.01,418.5,326.01,428.5,330.01,424.5,326.01" style="stroke: #A80036; stroke-width: 1.0;"/><line style="stroke: #A80036; stroke-width: 2.0; stroke-dasharray: 2.0,2.0;" x1="422.5" x2="535" y1="326.01" y2="326.01"/><polygon fill="#A80036" points="49.5,389.1281,39.5,393.1281,49.5,397.1281,45.5,393.1281" style="stroke: #A80036; stroke-width: 1.0;"/><line style="stroke: #A80036; stroke-width: 2.0; stroke-dasharray: 2.0,2.0;" x1="43.5" x2="411.5" y1="393.1281" y2="393.1281"/><text fill="#000000" font-family="sans-serif" font-size="13" lengthAdjust="spacingAndGlyphs" textLength="213" x="55.5" y="351.907">clearCookie('auth_token', {path: '/'})</text><text fill="#000000" font-family="sans-serif" font-size="13" lengthAdjust="spacingAndGlyphs" textLength="345" x="55.5" y="369.6131">clearCookie('refresh_token', {path: '/users/refresh-token'})</text><text fill="#000000" font-family="sans-serif" font-size="13" lengthAdjust="spacingAndGlyphs" textLength="149" x="55.5" y="387.3191">{message: "Logged out"}</text><!--MD5=[98aa92c9c890b26665a822c7b1929b04]
@startuml Logout Flow
skinparam backgroundColor white
skinparam sequenceArrowThickness 2

actor Browser as browser
participant "AuthGuard" as guard
participant "UsersController" as ctrl
participant "UsersService" as svc
database "Redis" as redis

browser -> guard : POST /users/logout\nCookie: auth_token
activate guard
guard -> guard : Validate cookie\nLoad session (see AuthGuard flow)
guard - -> ctrl : request.user = AuthUser
deactivate guard

activate ctrl
ctrl -> svc : logOut(user)
activate svc

svc -> redis : DEL auth_session:{sid}
activate redis
redis - -> svc
deactivate redis

svc - -> ctrl
deactivate svc

ctrl - -> browser : clearCookie('auth_token', {path: '/'})\nclearCookie('refresh_token', {path: '/users/refresh-token'})\n{message: "Logged out"}
deactivate ctrl
@enduml

PlantUML version 1.2020.02(Sun Mar 01 07:22:07 ART 2020)
(GPL source distribution)
Java Runtime: OpenJDK Runtime Environment
JVM: OpenJDK 64-Bit Server VM
Java Version: 21.0.11-ea+5-[Ubuntu-1]
Operating System: Linux
Default Encoding: UTF-8
Language: en
Country: US
--></g></svg>