<?xml version="1.0" encoding="UTF-8" standalone="no"?><svg xmlns="http://www.w3.org/2000/svg" xmlns:xlink="http://www.w3.org/1999/xlink" contentScriptType="application/ecmascript" contentStyleType="text/css" height="800px" preserveAspectRatio="none" style="width:1716px;height:800px;" version="1.1" viewBox="0 0 1716 800" width="1716px" zoomAndPan="magnify"><defs><filter height="300%" id="f1x9e6b894gs38" width="300%" x="-1" y="-1"><feGaussianBlur result="blurOut" stdDeviation="2.0"/><feColorMatrix in="blurOut" result="blurOut2" type="matrix" values="0 0 0 0 0 0 0 0 0 0 0 0 0 0 0 0 0 0 .4 0"/><feOffset dx="4.0" dy="4.0" in="blurOut2" result="blurOut3"/><feBlend in="SourceGraphic" in2="blurOut3" mode="normal"/></filter></defs><g><!--MD5=[d5ac3844f66b12d9e08170e47495e096]
cluster app--><polygon fill="#FFFFFF" filter="url(#f1x9e6b894gs38)" points="22,23.7,108,23.7,115,48.7679,1495,48.7679,1495,788,22,788,22,23.7" style="stroke: #000000; stroke-width: 1.5;"/><line style="stroke: #000000; stroke-width: 1.5;" x1="22" x2="115" y1="48.7679" y2="48.7679"/><text fill="#000000" font-family="sans-serif" font-size="14" font-weight="bold" lengthAdjust="spacingAndGlyphs" textLength="80" x="26" y="40.6659">AppModule</text><!--MD5=[b96263a6e3ccc8d9646ad6160c88315b]
cluster infra--><polygon fill="#FFFFFF" filter="url(#f1x9e6b894gs38)" points="46,512.73,207,512.73,214,537.7979,1243,537.7979,1243,764,46,764,46,512.73" style="stroke: #000000; stroke-width: 1.5;"/><line style="stroke: #000000; stroke-width: 1.5;" x1="46" x2="214" y1="537.7979" y2="537.7979"/><text fill="#000000" font-family="sans-serif" font-size="14" font-weight="bold" lengthAdjust="spacingAndGlyphs" textLength="155" x="50" y="529.6959">Infrastructure (Global)</text><!--MD5=[3e40ca210742478abcfff4771cfda9c4]
cluster business--><polygon fill="#FFFFFF" filter="url(#f1x9e6b894gs38)" points="46,69.7,175,69.7,182,94.7679,687,94.7679,687,429.85,46,429.85,46,69.7" style="stroke: #000000; stroke-width: 1.5;"/><line style="stroke: #000000; stroke-width: 1.5;" x1="46" x2="182" y1="94.7679" y2="94.7679"/><text fill="#000000" font-family="sans-serif" font-size="14" font-weight="bold" lengthAdjust="spacingAndGlyphs" textLength="123" x="50" y="86.6659">Business Modules</text><!--MD5=[eac7273361bee34be67ec4fa61a7f007]
cluster cron--><polygon fill="#FFFFFF" filter="url(#f1x9e6b894gs38)" points="711,69.7,820,69.7,827,94.7679,1471,94.7679,1471,191.84,711,191.84,711,69.7" style="stroke: #000000; stroke-width: 1.5;"/><line style="stroke: #000000; stroke-width: 1.5;" x1="711" x2="827" y1="94.7679" y2="94.7679"/><text fill="#000000" font-family="sans-serif" font-size="14" font-weight="bold" lengthAdjust="spacingAndGlyphs" textLength="103" x="715" y="86.6659">Cron Providers</text><!--MD5=[f5c103dccfe0e102276e24ea1570c629]
entity ConfigModule--><rect fill="#FEFECE" filter="url(#f1x9e6b894gs38)" height="68.1358" style="stroke: #A80036; stroke-width: 1.5;" width="135" x="62.5" y="550.73"/><rect fill="#FEFECE" height="10" style="stroke: #A80036; stroke-width: 1.5;" width="15" x="177.5" y="555.73"/><rect fill="#FEFECE" height="2" style="stroke: #A80036; stroke-width: 1.5;" width="4" x="175.5" y="557.73"/><rect fill="#FEFECE" height="2" style="stroke: #A80036; stroke-width: 1.5;" width="4" x="175.5" y="561.73"/><text fill="#000000" font-family="sans-serif" font-size="14" font-style="italic" lengthAdjust="spacingAndGlyphs" textLength="54" x="98" y="585.6959">«global»</text><text fill="#000000" font-family="sans-serif" font-size="14" lengthAdjust="spacingAndGlyphs" textLength="95" x="77.5" y="604.7639">ConfigModule</text><!--MD5=[3b182479e5e57e4d77c128fe2f5edad0]
entity typeorm--><rect fill="#FEFECE" filter="url(#f1x9e6b894gs38)" height="68.1358" style="stroke: #A80036; stroke-width: 1.5;" width="153" x="634.5" y="550.73"/><rect fill="#FEFECE" height="10" style="stroke: #A80036; stroke-width: 1.5;" width="15" x="767.5" y="555.73"/><rect fill="#FEFECE" height="2" style="stroke: #A80036; stroke-width: 1.5;" width="4" x="765.5" y="557.73"/><rect fill="#FEFECE" height="2" style="stroke: #A80036; stroke-width: 1.5;" width="4" x="765.5" y="561.73"/><text fill="#000000" font-family="sans-serif" font-size="14" lengthAdjust="spacingAndGlyphs" textLength="113" x="649.5" y="585.6959">TypeOrmModule</text><text fill="#000000" font-family="sans-serif" font-size="14" lengthAdjust="spacingAndGlyphs" textLength="85" x="649.5" y="604.7639">(PostgreSQL)</text><!--MD5=[347c5aa13290253b026b12bcd476b438]
entity winston--><rect fill="#FEFECE" filter="url(#f1x9e6b894gs38)" height="68.1358" style="stroke: #A80036; stroke-width: 1.5;" width="179" x="232.5" y="550.73"/><rect fill="#FEFECE" height="10" style="stroke: #A80036; stroke-width: 1.5;" width="15" x="391.5" y="555.73"/><rect fill="#FEFECE" height="2" style="stroke: #A80036; stroke-width: 1.5;" width="4" x="389.5" y="557.73"/><rect fill="#FEFECE" height="2" style="stroke: #A80036; stroke-width: 1.5;" width="4" x="389.5" y="561.73"/><text fill="#000000" font-family="sans-serif" font-size="14" lengthAdjust="spacingAndGlyphs" textLength="106" x="247.5" y="585.6959">WinstonModule</text><text fill="#000000" font-family="sans-serif" font-size="14" lengthAdjust="spacingAndGlyphs" textLength="139" x="247.5" y="604.7639">(Structured Logging)</text><!--MD5=[e6686c172351e6dc0f366c2959fbb34a]
entity clients--><rect fill="#FEFECE" filter="url(#f1x9e6b894gs38)" height="68.1358" style="stroke: #A80036; stroke-width: 1.5;" width="241" x="986.5" y="550.73"/><rect fill="#FEFECE" height="10" style="stroke: #A80036; stroke-width: 1.5;" width="15" x="1207.5" y="555.73"/><rect fill="#FEFECE" height="2" style="stroke: #A80036; stroke-width: 1.5;" width="4" x="1205.5" y="557.73"/><rect fill="#FEFECE" height="2" style="stroke: #A80036; stroke-width: 1.5;" width="4" x="1205.5" y="561.73"/><text fill="#000000" font-family="sans-serif" font-size="14" lengthAdjust="spacingAndGlyphs" textLength="97" x="1001.5" y="585.6959">ClientsModule</text><text fill="#000000" font-family="sans-serif" font-size="14" lengthAdjust="spacingAndGlyphs" textLength="201" x="1001.5" y="604.7639">(RabbitMQ — AUDIT_SERVICE)</text><!--MD5=[73ca96ba5138b7bb33dba1da3d0e470d]
entity schedule--><rect fill="#FEFECE" filter="url(#f1x9e6b894gs38)" height="68.1358" style="stroke: #A80036; stroke-width: 1.5;" width="153" x="446.5" y="550.73"/><rect fill="#FEFECE" height="10" style="stroke: #A80036; stroke-width: 1.5;" width="15" x="579.5" y="555.73"/><rect fill="#FEFECE" height="2" style="stroke: #A80036; stroke-width: 1.5;" width="4" x="577.5" y="557.73"/><rect fill="#FEFECE" height="2" style="stroke: #A80036; stroke-width: 1.5;" width="4" x="577.5" y="561.73"/><text fill="#000000" font-family="sans-serif" font-size="14" lengthAdjust="spacingAndGlyphs" textLength="113" x="461.5" y="585.6959">ScheduleModule</text><text fill="#000000" font-family="sans-serif" font-size="14" lengthAdjust="spacingAndGlyphs" textLength="72" x="461.5" y="604.7639">(Cron Jobs)</text><!--MD5=[2e43943e114d72c25b25abc139082e53]
entity RedisModule--><rect fill="#FEFECE" filter="url(#f1x9e6b894gs38)" height="68.1358" style="stroke: #A80036; stroke-width: 1.5;" width="128" x="823" y="550.73"/><rect fill="#FEFECE" height="10" style="stroke: #A80036; stroke-width: 1.5;" width="15" x="931" y="555.73"/><rect fill="#FEFECE" height="2" style="stroke: #A80036; stroke-width: 1.5;" width="4" x="929" y="557.73"/><rect fill="#FEFECE" height="2" style="stroke: #A80036; stroke-width: 1.5;" width="4" x="929" y="561.73"/><text fill="#000000" font-family="sans-serif" font-size="14" font-style="italic" lengthAdjust="spacingAndGlyphs" textLength="54" x="855" y="585.6959">«global»</text><text fill="#000000" font-family="sans-serif" font-size="14" lengthAdjust="spacingAndGlyphs" textLength="88" x="838" y="604.7639">RedisModule</text><!--MD5=[c3f8ad2b078077a0cbcb414e397d2e48]
entity reqCtx--><rect fill="#FEFECE" filter="url(#f1x9e6b894gs38)" height="49.0679" style="stroke: #A80036; stroke-width: 1.5;" width="197" x="61.5" y="689.4"/><rect fill="#FEFECE" height="10" style="stroke: #A80036; stroke-width: 1.5;" width="15" x="238.5" y="694.4"/><rect fill="#FEFECE" height="2" style="stroke: #A80036; stroke-width: 1.5;" width="4" x="236.5" y="696.4"/><rect fill="#FEFECE" height="2" style="stroke: #A80036; stroke-width: 1.5;" width="4" x="236.5" y="700.4"/><text fill="#000000" font-family="sans-serif" font-size="14" lengthAdjust="spacingAndGlyphs" textLength="157" x="76.5" y="724.3659">RequestContextModule</text><!--MD5=[2237b27e2f9bfbbd18919c6500a8f4bf]
entity observability--><rect fill="#FEFECE" filter="url(#f1x9e6b894gs38)" height="68.1358" style="stroke: #A80036; stroke-width: 1.5;" width="180" x="293" y="679.86"/><rect fill="#FEFECE" height="10" style="stroke: #A80036; stroke-width: 1.5;" width="15" x="453" y="684.86"/><rect fill="#FEFECE" height="2" style="stroke: #A80036; stroke-width: 1.5;" width="4" x="451" y="686.86"/><rect fill="#FEFECE" height="2" style="stroke: #A80036; stroke-width: 1.5;" width="4" x="451" y="690.86"/><text fill="#000000" font-family="sans-serif" font-size="14" lengthAdjust="spacingAndGlyphs" textLength="140" x="308" y="714.8259">ObservabilityModule</text><text fill="#000000" font-family="sans-serif" font-size="14" lengthAdjust="spacingAndGlyphs" textLength="89" x="308" y="733.8939">(Prometheus)</text><!--MD5=[5f2f9dbbee692058d60489180693f774]
entity users--><rect fill="#FEFECE" filter="url(#f1x9e6b894gs38)" height="49.0679" style="stroke: #A80036; stroke-width: 1.5;" width="129" x="98.5" y="117.23"/><rect fill="#FEFECE" height="10" style="stroke: #A80036; stroke-width: 1.5;" width="15" x="207.5" y="122.23"/><rect fill="#FEFECE" height="2" style="stroke: #A80036; stroke-width: 1.5;" width="4" x="205.5" y="124.23"/><rect fill="#FEFECE" height="2" style="stroke: #A80036; stroke-width: 1.5;" width="4" x="205.5" y="128.23"/><text fill="#000000" font-family="sans-serif" font-size="14" lengthAdjust="spacingAndGlyphs" textLength="89" x="113.5" y="152.1959">UsersModule</text><!--MD5=[d2097561727c6d3072e4a5e40536f297]
entity roles--><rect fill="#FEFECE" filter="url(#f1x9e6b894gs38)" height="49.0679" style="stroke: #A80036; stroke-width: 1.5;" width="127" x="99.5" y="238.84"/><rect fill="#FEFECE" height="10" style="stroke: #A80036; stroke-width: 1.5;" width="15" x="206.5" y="243.84"/><rect fill="#FEFECE" height="2" style="stroke: #A80036; stroke-width: 1.5;" width="4" x="204.5" y="245.84"/><rect fill="#FEFECE" height="2" style="stroke: #A80036; stroke-width: 1.5;" width="4" x="204.5" y="249.84"/><text fill="#000000" font-family="sans-serif" font-size="14" lengthAdjust="spacingAndGlyphs" textLength="87" x="114.5" y="273.8059">RolesModule</text><!--MD5=[29ecbd4ef1c6c02f33bba4999578bb34]
entity perms--><rect fill="#FEFECE" filter="url(#f1x9e6b894gs38)" height="49.0679" style="stroke: #A80036; stroke-width: 1.5;" width="172" x="453" y="364.78"/><rect fill="#FEFECE" height="10" style="stroke: #A80036; stroke-width: 1.5;" width="15" x="605" y="369.78"/><rect fill="#FEFECE" height="2" style="stroke: #A80036; stroke-width: 1.5;" width="4" x="603" y="371.78"/><rect fill="#FEFECE" height="2" style="stroke: #A80036; stroke-width: 1.5;" width="4" x="603" y="375.78"/><text fill="#000000" font-family="sans-serif" font-size="14" lengthAdjust="spacingAndGlyphs" textLength="132" x="468" y="399.7459">PermissionsModule</text><!--MD5=[2adfa71d87a869f6def50c930288aa4c]
entity apiKeys--><rect fill="#FEFECE" filter="url(#f1x9e6b894gs38)" height="49.0679" style="stroke: #A80036; stroke-width: 1.5;" width="144" x="285" y="117.23"/><rect fill="#FEFECE" height="10" style="stroke: #A80036; stroke-width: 1.5;" width="15" x="409" y="122.23"/><rect fill="#FEFECE" height="2" style="stroke: #A80036; stroke-width: 1.5;" width="4" x="407" y="124.23"/><rect fill="#FEFECE" height="2" style="stroke: #A80036; stroke-width: 1.5;" width="4" x="407" y="128.23"/><text fill="#000000" font-family="sans-serif" font-size="14" lengthAdjust="spacingAndGlyphs" textLength="104" x="300" y="152.1959">ApiKeysModule</text><!--MD5=[853f148258f3492b777f181caf578766]
entity sessions--><rect fill="#FEFECE" filter="url(#f1x9e6b894gs38)" height="49.0679" style="stroke: #A80036; stroke-width: 1.5;" width="149" x="269.5" y="364.78"/><rect fill="#FEFECE" height="10" style="stroke: #A80036; stroke-width: 1.5;" width="15" x="398.5" y="369.78"/><rect fill="#FEFECE" height="2" style="stroke: #A80036; stroke-width: 1.5;" width="4" x="396.5" y="371.78"/><rect fill="#FEFECE" height="2" style="stroke: #A80036; stroke-width: 1.5;" width="4" x="396.5" y="375.78"/><text fill="#000000" font-family="sans-serif" font-size="14" lengthAdjust="spacingAndGlyphs" textLength="109" x="284.5" y="399.7459">SessionsModule</text><!--MD5=[0b073ca8531318b9869ad39ab02d2189]
entity epr--><rect fill="#FEFECE" filter="url(#f1x9e6b894gs38)" height="49.0679" style="stroke: #A80036; stroke-width: 1.5;" width="263" x="407.5" y="238.84"/><rect fill="#FEFECE" height="10" style="stroke: #A80036; stroke-width: 1.5;" width="15" x="650.5" y="243.84"/><rect fill="#FEFECE" height="2" style="stroke: #A80036; stroke-width: 1.5;" width="4" x="648.5" y="245.84"/><rect fill="#FEFECE" height="2" style="stroke: #A80036; stroke-width: 1.5;" width="4" x="648.5" y="249.84"/><text fill="#000000" font-family="sans-serif" font-size="14" lengthAdjust="spacingAndGlyphs" textLength="223" x="422.5" y="273.8059">EndpointPermissionRulesModule</text><!--MD5=[594c10f30ae7643b27def2dbf595e59d]
entity jwt--><rect fill="#FEFECE" filter="url(#f1x9e6b894gs38)" height="49.0679" style="stroke: #A80036; stroke-width: 1.5;" width="111" x="261.5" y="238.84"/><rect fill="#FEFECE" height="10" style="stroke: #A80036; stroke-width: 1.5;" width="15" x="352.5" y="243.84"/><rect fill="#FEFECE" height="2" style="stroke: #A80036; stroke-width: 1.5;" width="4" x="350.5" y="245.84"/><rect fill="#FEFECE" height="2" style="stroke: #A80036; stroke-width: 1.5;" width="4" x="350.5" y="249.84"/><text fill="#000000" font-family="sans-serif" font-size="14" lengthAdjust="spacingAndGlyphs" textLength="71" x="276.5" y="273.8059">JwtModule</text><!--MD5=[d112aecbd7ccc75573a6ee2503a173b3]
entity email--><rect fill="#FEFECE" filter="url(#f1x9e6b894gs38)" height="68.1358" style="stroke: #A80036; stroke-width: 1.5;" width="184" x="475" y="107.7"/><rect fill="#FEFECE" height="10" style="stroke: #A80036; stroke-width: 1.5;" width="15" x="639" y="112.7"/><rect fill="#FEFECE" height="2" style="stroke: #A80036; stroke-width: 1.5;" width="4" x="637" y="114.7"/><rect fill="#FEFECE" height="2" style="stroke: #A80036; stroke-width: 1.5;" width="4" x="637" y="118.7"/><text fill="#000000" font-family="sans-serif" font-size="14" lengthAdjust="spacingAndGlyphs" textLength="88" x="490" y="142.6659">EmailModule</text><text fill="#000000" font-family="sans-serif" font-size="14" lengthAdjust="spacingAndGlyphs" textLength="144" x="490" y="161.7339">(RabbitMQ Publisher)</text><!--MD5=[4ffd591f56b648375431aedfea78392f]
entity outboxPub--><rect fill="#FEFECE" filter="url(#f1x9e6b894gs38)" height="68.1358" style="stroke: #A80036; stroke-width: 1.5;" width="201" x="1253.5" y="107.7"/><rect fill="#FEFECE" height="10" style="stroke: #A80036; stroke-width: 1.5;" width="15" x="1434.5" y="112.7"/><rect fill="#FEFECE" height="2" style="stroke: #A80036; stroke-width: 1.5;" width="4" x="1432.5" y="114.7"/><rect fill="#FEFECE" height="2" style="stroke: #A80036; stroke-width: 1.5;" width="4" x="1432.5" y="118.7"/><text fill="#000000" font-family="sans-serif" font-size="14" lengthAdjust="spacingAndGlyphs" textLength="161" x="1268.5" y="142.6659">OutboxPublisherService</text><text fill="#000000" font-family="sans-serif" font-size="14" lengthAdjust="spacingAndGlyphs" textLength="71" x="1268.5" y="161.7339">(every 10s)</text><!--MD5=[ed44faf04e83f7ab3c8e9d42b8e8934c]
entity outboxSub--><rect fill="#FEFECE" filter="url(#f1x9e6b894gs38)" height="49.0679" style="stroke: #A80036; stroke-width: 1.5;" width="210" x="1008" y="117.23"/><rect fill="#FEFECE" height="10" style="stroke: #A80036; stroke-width: 1.5;" width="15" x="1198" y="122.23"/><rect fill="#FEFECE" height="2" style="stroke: #A80036; stroke-width: 1.5;" width="4" x="1196" y="124.23"/><rect fill="#FEFECE" height="2" style="stroke: #A80036; stroke-width: 1.5;" width="4" x="1196" y="128.23"/><text fill="#000000" font-family="sans-serif" font-size="14" lengthAdjust="spacingAndGlyphs" textLength="170" x="1023" y="152.1959">OutboxSubscriberService</text><!--MD5=[1449f5a6e8ce16b013191f548a107d31]
entity eprCron--><rect fill="#FEFECE" filter="url(#f1x9e6b894gs38)" height="68.1358" style="stroke: #A80036; stroke-width: 1.5;" width="246" x="727" y="107.7"/><rect fill="#FEFECE" height="10" style="stroke: #A80036; stroke-width: 1.5;" width="15" x="953" y="112.7"/><rect fill="#FEFECE" height="2" style="stroke: #A80036; stroke-width: 1.5;" width="4" x="951" y="114.7"/><rect fill="#FEFECE" height="2" style="stroke: #A80036; stroke-width: 1.5;" width="4" x="951" y="118.7"/><text fill="#000000" font-family="sans-serif" font-size="14" lengthAdjust="spacingAndGlyphs" textLength="206" x="742" y="142.6659">EprCacheReconciliationService</text><text fill="#000000" font-family="sans-serif" font-size="14" lengthAdjust="spacingAndGlyphs" textLength="80" x="742" y="161.7339">(every hour)</text><path d="M1511.5,348.9 L1511.5,429.7241 L1704.5,429.7241 L1704.5,358.9 L1694.5,348.9 L1511.5,348.9 " fill="#FBFB77" filter="url(#f1x9e6b894gs38)" style="stroke: #A80036; stroke-width: 1.0;"/><path d="M1694.5,348.9 L1694.5,358.9 L1704.5,358.9 L1694.5,348.9 " fill="#FBFB77" style="stroke: #A80036; stroke-width: 1.0;"/><text fill="#000000" font-family="sans-serif" font-size="13" lengthAdjust="spacingAndGlyphs" textLength="148" x="1517.5" y="367.797">Accesses UserRepository</text><text fill="#000000" font-family="sans-serif" font-size="13" lengthAdjust="spacingAndGlyphs" textLength="112" x="1517.5" y="385.503">directly (read-only)</text><text fill="#000000" font-family="sans-serif" font-size="13" lengthAdjust="spacingAndGlyphs" textLength="172" x="1517.5" y="403.209">to avoid circular dependency</text><text fill="#000000" font-family="sans-serif" font-size="13" lengthAdjust="spacingAndGlyphs" textLength="112" x="1517.5" y="420.9151">with UsersModule.</text><!--MD5=[2caf9ad793c76b4f3ff7e8be4ce31c51]
link users to jwt--><path d="M193.79,166.68 C219.08,186.32 254.91,214.15 281.42,234.74 " fill="none" id="users-&gt;jwt" style="stroke: #A80036; stroke-width: 1.0;"/><polygon fill="#A80036" points="285.06,237.57,280.4181,228.8836,281.1155,234.4973,275.5019,235.1948,285.06,237.57" style="stroke: #A80036; stroke-width: 1.0;"/><!--MD5=[206f463d774662efe2784e84559299f4]
link users to sessions--><path d="M132.89,166.7 C99.57,196.15 54.04,247.25 82,287.9 C122.36,346.6 202.1,371 263.06,381.14 " fill="none" id="users-&gt;sessions" style="stroke: #A80036; stroke-width: 1.0;"/><polygon fill="#A80036" points="267.77,381.89,259.5096,376.5267,262.832,381.1051,258.2536,384.4275,267.77,381.89" style="stroke: #A80036; stroke-width: 1.0;"/><!--MD5=[82be83987ccaf2b5cc60605f7e2ed9c2]
link users to roles--><path d="M163,166.68 C163,185.51 163,211.86 163,232.14 " fill="none" id="users-&gt;roles" style="stroke: #A80036; stroke-width: 1.0;"/><polygon fill="#A80036" points="163,236.98,167,227.98,163,231.98,159,227.98,163,236.98" style="stroke: #A80036; stroke-width: 1.0;"/><!--MD5=[5ed85decf733479d13bd85038b3adc57]
link roles to perms--><path d="M226.82,282.85 C282.39,299.25 364.96,324.34 436,348.9 C447.82,352.99 460.31,357.56 472.36,362.09 " fill="none" id="roles-&gt;perms" style="stroke: #A80036; stroke-width: 1.0;"/><polygon fill="#A80036" points="476.82,363.78,469.816,356.8558,472.1431,362.0119,466.987,364.339,476.82,363.78" style="stroke: #A80036; stroke-width: 1.0;"/><!--MD5=[a0425ac218d4062a3bf3136c1816a199]
link roles to sessions--><path d="M197.9,288.27 C228.32,309.1 272.43,339.31 304.22,361.07 " fill="none" id="roles-&gt;sessions" style="stroke: #A80036; stroke-width: 1.0;"/><polygon fill="#A80036" points="307.96,363.64,302.7764,355.2656,303.8286,360.8238,298.2704,361.8759,307.96,363.64" style="stroke: #A80036; stroke-width: 1.0;"/><!--MD5=[780df1c6fc38b7b893ec8436d3ef46c5]
link sessions to RedisModule--><path d="M382.04,414.28 C397.85,423.13 416.74,432.34 435,437.85 C523.99,464.71 551.89,441.29 643,459.73 C698.54,470.96 710.04,482.93 765,496.73 C782.58,501.14 788.94,496.32 805,504.73 C824.21,514.79 842.01,530.74 856.08,545.68 " fill="none" id="sessions-&gt;RedisModule" style="stroke: #A80036; stroke-width: 1.0;"/><polygon fill="#A80036" points="859.3,549.17,856.1392,539.8421,855.9104,545.4943,850.2582,545.2655,859.3,549.17" style="stroke: #A80036; stroke-width: 1.0;"/><!--MD5=[74420a286420557d8f9d3c5731d1b9cb]
link sessions to typeorm--><path d="M388.07,414.25 C402.86,422.04 419.53,430.55 435,437.85 C495.67,466.49 509.75,477.4 574,496.73 C592.61,502.33 599.43,496.42 617,504.73 C638.5,514.89 659.1,531.21 675.52,546.38 " fill="none" id="sessions-&gt;typeorm" style="stroke: #A80036; stroke-width: 1.0;"/><polygon fill="#A80036" points="678.93,549.59,675.0987,540.5169,675.2819,546.1708,669.628,546.3539,678.93,549.59" style="stroke: #A80036; stroke-width: 1.0;"/><text fill="#000000" font-family="sans-serif" font-size="13" lengthAdjust="spacingAndGlyphs" textLength="57" x="578" y="474.627">read-only</text><text fill="#000000" font-family="sans-serif" font-size="13" lengthAdjust="spacingAndGlyphs" textLength="63" x="575" y="492.333">UserEntity</text><!--MD5=[5b18db3a9e93b825bab87f763dee5ad5]
link epr to RedisModule--><path d="M569.59,288.13 C590.61,304.73 618.95,327.63 643,348.9 C717.83,415.1 733.04,435.43 805,504.73 C818.95,518.16 834.23,532.89 847.77,545.95 " fill="none" id="epr-&gt;RedisModule" style="stroke: #A80036; stroke-width: 1.0;"/><polygon fill="#A80036" points="851.21,549.27,847.5079,540.1434,847.6108,545.7993,841.9549,545.9022,851.21,549.27" style="stroke: #A80036; stroke-width: 1.0;"/><!--MD5=[6563ef1b4b3dd112502fa2f5010f9a2b]
link epr to perms--><path d="M539,288.27 C539,308.16 539,336.59 539,358.07 " fill="none" id="epr-&gt;perms" style="stroke: #A80036; stroke-width: 1.0;"/><polygon fill="#A80036" points="539,362.98,543,353.98,539,357.98,535,353.98,539,362.98" style="stroke: #A80036; stroke-width: 1.0;"/><!--MD5=[a3e1a1575318b0ae7133296f4efdc09e]
link eprCron to epr--><path d="M762.96,176.24 C713.77,195.16 653.17,218.46 607.41,236.06 " fill="none" id="eprCron-&gt;epr" style="stroke: #A80036; stroke-width: 1.0;"/><polygon fill="#A80036" points="602.76,237.85,612.595,238.3727,607.4304,236.0647,609.7385,230.9001,602.76,237.85" style="stroke: #A80036; stroke-width: 1.0;"/><!--MD5=[9d3fa248e1f7853d3b9bb7eee697bc50]
link outboxPub to clients--><path d="M1335.23,176.28 C1290.29,256.53 1176.66,459.41 1128.8,544.88 " fill="none" id="outboxPub-&gt;clients" style="stroke: #A80036; stroke-width: 1.0;"/><polygon fill="#A80036" points="1126.48,549.02,1134.3704,543.1258,1128.9252,544.6587,1127.3923,539.2135,1126.48,549.02" style="stroke: #A80036; stroke-width: 1.0;"/><!--MD5=[8f4a701e0171723560063fa98ffe4edd]
link outboxSub to clients--><path d="M1112.67,166.79 C1111.69,238.96 1108.76,454.33 1107.54,543.96 " fill="none" id="outboxSub-&gt;clients" style="stroke: #A80036; stroke-width: 1.0;"/><polygon fill="#A80036" points="1107.47,548.94,1111.5726,539.9863,1107.5271,543.9403,1103.5731,539.8949,1107.47,548.94" style="stroke: #A80036; stroke-width: 1.0;"/><!--MD5=[a06b2580589561bb9c4fdd5c3f02bce1]
link sessions to GMN149--><path d="M372.05,364.37 C392.69,347.76 422.31,327.4 452.5,318.4 C620.97,268.23 1068.53,301.54 1243.5,318.4 C1335.26,327.25 1438.24,348.34 1511.28,365.23 " fill="none" id="sessions-GMN149" style="stroke: #A80036; stroke-width: 1.0; stroke-dasharray: 7.0,7.0;"/><!--MD5=[0a61a236a4e8169001489c87437c93b7]
link ConfigModule to winston--><!--MD5=[ead6648cb754823c929300562def14ef]
link winston to schedule--><!--MD5=[98b755f9545ce13c0fb5acd21ef5f5f4]
link ConfigModule to reqCtx--><!--MD5=[4879efadb613759f1ad12906b42b3f34]
link reqCtx to observability--><!--MD5=[26e554c21beeb37117053f5dbcf8e1e7]
@startuml Module Structure
skinparam backgroundColor white
skinparam componentStyle uml2
skinparam packageStyle rectangle

package "AppModule" as app {

  package "Infrastructure (Global)" as infra {
    [ConfigModule] <<global>>
    [TypeOrmModule\n(PostgreSQL)] as typeorm
    [WinstonModule\n(Structured Logging)] as winston
    [ClientsModule\n(RabbitMQ — AUDIT_SERVICE)] as clients
    [ScheduleModule\n(Cron Jobs)] as schedule
    [RedisModule] <<global>>
    [RequestContextModule] as reqCtx
    [ObservabilityModule\n(Prometheus)] as observability
  }

  package "Business Modules" as business {
    [UsersModule] as users
    [RolesModule] as roles
    [PermissionsModule] as perms
    [ApiKeysModule] as apiKeys
    [SessionsModule] as sessions
    [EndpointPermissionRulesModule] as epr
    [JwtModule] as jwt
    [EmailModule\n(RabbitMQ Publisher)] as email
  }

  package "Cron Providers" as cron {
    [OutboxPublisherService\n(every 10s)] as outboxPub
    [OutboxSubscriberService] as outboxSub
    [EprCacheReconciliationService\n(every hour)] as eprCron
  }
}

users - -> jwt
users - -> sessions
users - -> roles

roles - -> perms
roles - -> sessions

sessions - -> RedisModule
sessions - -> typeorm : read-only\nUserEntity

epr - -> RedisModule
epr - -> perms

eprCron - -> epr
outboxPub - -> clients
outboxSub - -> clients

note right of sessions
  Accesses UserRepository
  directly (read-only)
  to avoid circular dependency
  with UsersModule.
end note
@enduml

PlantUML version 1.2020.02(Sun Mar 01 07:22:07 ART 2020)
(GPL source distribution)
Java Runtime: OpenJDK Runtime Environment
JVM: OpenJDK 64-Bit Server VM
Java Version: 21.0.11-ea+5-[Ubuntu-1]
Operating System: Linux
Default Encoding: UTF-8
Language: en
Country: US
--></g></svg>