<?xml version="1.0" encoding="UTF-8" standalone="no"?><svg xmlns="http://www.w3.org/2000/svg" xmlns:xlink="http://www.w3.org/1999/xlink" contentScriptType="application/ecmascript" contentStyleType="text/css" height="799px" preserveAspectRatio="none" style="width:668px;height:799px;" version="1.1" viewBox="0 0 668 799" width="668px" zoomAndPan="magnify"><defs><filter height="300%" id="f124or21x6qla1" width="300%" x="-1" y="-1"><feGaussianBlur result="blurOut" stdDeviation="2.0"/><feColorMatrix in="blurOut" result="blurOut2" type="matrix" values="0 0 0 0 0 0 0 0 0 0 0 0 0 0 0 0 0 0 .4 0"/><feOffset dx="4.0" dy="4.0" in="blurOut2" result="blurOut3"/><feBlend in="SourceGraphic" in2="blurOut3" mode="normal"/></filter></defs><g><rect fill="#FFFFFF" filter="url(#f124or21x6qla1)" height="130.5301" style="stroke: #A80036; stroke-width: 1.0;" width="10" x="266" y="147.4799"/><rect fill="#FFFFFF" filter="url(#f124or21x6qla1)" height="31.706" style="stroke: #A80036; stroke-width: 1.0;" width="10" x="266" y="432.5401"/><rect fill="#FFFFFF" filter="url(#f124or21x6qla1)" height="31.706" style="stroke: #A80036; stroke-width: 1.0;" width="10" x="575.5" y="522.6582"/><rect fill="#FFFFFF" filter="url(#f124or21x6qla1)" height="132.5301" style="stroke: #000000; stroke-width: 2.0;" width="427" x="219.5" y="479.2461"/><line style="stroke: #A80036; stroke-width: 1.0; stroke-dasharray: 5.0,5.0;" x1="63" x2="63" y1="68.0679" y2="723.6003"/><line style="stroke: #A80036; stroke-width: 1.0; stroke-dasharray: 5.0,5.0;" x1="270.5" x2="270.5" y1="68.0679" y2="723.6003"/><line style="stroke: #A80036; stroke-width: 1.0; stroke-dasharray: 5.0,5.0;" x1="448.5" x2="448.5" y1="68.0679" y2="723.6003"/><line style="stroke: #A80036; stroke-width: 1.0; stroke-dasharray: 5.0,5.0;" x1="580.5" x2="580.5" y1="68.0679" y2="723.6003"/><rect fill="#FEFECE" filter="url(#f124or21x6qla1)" height="52.1358" style="stroke: #A80036; stroke-width: 1.5;" width="106" x="8" y="10.9321"/><text fill="#000000" font-family="sans-serif" font-size="14" lengthAdjust="spacingAndGlyphs" textLength="48" x="37" y="32.898">Service</text><text fill="#000000" font-family="sans-serif" font-size="14" lengthAdjust="spacingAndGlyphs" textLength="92" x="15" y="51.9659">(Business Op)</text><rect fill="#FEFECE" filter="url(#f124or21x6qla1)" height="52.1358" style="stroke: #A80036; stroke-width: 1.5;" width="106" x="8" y="722.6003"/><text fill="#000000" font-family="sans-serif" font-size="14" lengthAdjust="spacingAndGlyphs" textLength="48" x="37" y="744.5662">Service</text><text fill="#000000" font-family="sans-serif" font-size="14" lengthAdjust="spacingAndGlyphs" textLength="92" x="15" y="763.6341">(Business Op)</text><text fill="#000000" font-family="sans-serif" font-size="14" lengthAdjust="spacingAndGlyphs" textLength="77" x="229.5" y="63.9659">PostgreSQL</text><path d="M253,13 C253,3 271,3 271,3 C271,3 289,3 289,13 L289,39 C289,49 271,49 271,49 C271,49 253,49 253,39 L253,13 " fill="#FEFECE" filter="url(#f124or21x6qla1)" style="stroke: #000000; stroke-width: 1.5;"/><path d="M253,13 C253,23 271,23 271,23 C271,23 289,23 289,13 " fill="none" style="stroke: #000000; stroke-width: 1.5;"/><text fill="#000000" font-family="sans-serif" font-size="14" lengthAdjust="spacingAndGlyphs" textLength="77" x="229.5" y="737.5662">PostgreSQL</text><path d="M253,751.6682 C253,741.6682 271,741.6682 271,741.6682 C271,741.6682 289,741.6682 289,751.6682 L289,777.6682 C289,787.6682 271,787.6682 271,787.6682 C271,787.6682 253,787.6682 253,777.6682 L253,751.6682 " fill="#FEFECE" filter="url(#f124or21x6qla1)" style="stroke: #000000; stroke-width: 1.5;"/><path d="M253,751.6682 C253,761.6682 271,761.6682 271,761.6682 C271,761.6682 289,761.6682 289,751.6682 " fill="none" style="stroke: #000000; stroke-width: 1.5;"/><rect fill="#FEFECE" filter="url(#f124or21x6qla1)" height="52.1358" style="stroke: #A80036; stroke-width: 1.5;" width="127" x="383.5" y="10.9321"/><text fill="#000000" font-family="sans-serif" font-size="14" lengthAdjust="spacingAndGlyphs" textLength="113" x="390.5" y="32.898">OutboxPublisher</text><text fill="#000000" font-family="sans-serif" font-size="14" lengthAdjust="spacingAndGlyphs" textLength="111" x="391.5" y="51.9659">(Cron: every 10s)</text><rect fill="#FEFECE" filter="url(#f124or21x6qla1)" height="52.1358" style="stroke: #A80036; stroke-width: 1.5;" width="127" x="383.5" y="722.6003"/><text fill="#000000" font-family="sans-serif" font-size="14" lengthAdjust="spacingAndGlyphs" textLength="113" x="390.5" y="744.5662">OutboxPublisher</text><text fill="#000000" font-family="sans-serif" font-size="14" lengthAdjust="spacingAndGlyphs" textLength="111" x="391.5" y="763.6341">(Cron: every 10s)</text><path d="M529.5,19.9321 L631.5,19.9321 C636.5,19.9321 636.5,44 636.5,44 C636.5,44 636.5,68.0679 631.5,68.0679 L529.5,68.0679 C524.5,68.0679 524.5,44 524.5,44 C524.5,44 524.5,19.9321 529.5,19.9321 " fill="#FEFECE" filter="url(#f124or21x6qla1)" style="stroke: #A80036; stroke-width: 2.0;"/><path d="M631.5,19.9321 C626.5,19.9321 626.5,44 626.5,44 C626.5,68.0679 631.5,68.0679 631.5,68.0679 " fill="none" style="stroke: #A80036; stroke-width: 2.0;"/><text fill="#000000" font-family="sans-serif" font-size="14" lengthAdjust="spacingAndGlyphs" textLength="68" x="541.5" y="39.898">RabbitMQ</text><text fill="#000000" font-family="sans-serif" font-size="14" lengthAdjust="spacingAndGlyphs" textLength="92" x="529.5" y="58.9659">(audit_queue)</text><path d="M529.5,722.6003 L631.5,722.6003 C636.5,722.6003 636.5,746.6682 636.5,746.6682 C636.5,746.6682 636.5,770.7361 631.5,770.7361 L529.5,770.7361 C524.5,770.7361 524.5,746.6682 524.5,746.6682 C524.5,746.6682 524.5,722.6003 529.5,722.6003 " fill="#FEFECE" filter="url(#f124or21x6qla1)" style="stroke: #A80036; stroke-width: 2.0;"/><path d="M631.5,722.6003 C626.5,722.6003 626.5,746.6682 626.5,746.6682 C626.5,770.7361 631.5,770.7361 631.5,770.7361 " fill="none" style="stroke: #A80036; stroke-width: 2.0;"/><text fill="#000000" font-family="sans-serif" font-size="14" lengthAdjust="spacingAndGlyphs" textLength="68" x="541.5" y="742.5662">RabbitMQ</text><text fill="#000000" font-family="sans-serif" font-size="14" lengthAdjust="spacingAndGlyphs" textLength="92" x="529.5" y="761.6341">(audit_queue)</text><rect fill="#FFFFFF" filter="url(#f124or21x6qla1)" height="130.5301" style="stroke: #A80036; stroke-width: 1.0;" width="10" x="266" y="147.4799"/><rect fill="#FFFFFF" filter="url(#f124or21x6qla1)" height="31.706" style="stroke: #A80036; stroke-width: 1.0;" width="10" x="266" y="432.5401"/><rect fill="#FFFFFF" filter="url(#f124or21x6qla1)" height="31.706" style="stroke: #A80036; stroke-width: 1.0;" width="10" x="575.5" y="522.6582"/><rect fill="#EEEEEE" filter="url(#f124or21x6qla1)" height="3" style="stroke: #EEEEEE; stroke-width: 1.0;" width="653.5" x="3" y="99.9209"/><line style="stroke: #000000; stroke-width: 1.0;" x1="3" x2="656.5" y1="99.9209" y2="99.9209"/><line style="stroke: #000000; stroke-width: 1.0;" x1="3" x2="656.5" y1="102.9209" y2="102.9209"/><rect fill="#EEEEEE" filter="url(#f124or21x6qla1)" height="25.706" style="stroke: #000000; stroke-width: 2.0;" width="144" x="257.75" y="88.0679"/><text fill="#000000" font-family="sans-serif" font-size="13" font-weight="bold" lengthAdjust="spacingAndGlyphs" textLength="127" x="263.75" y="105.9649">Business Operation</text><polygon fill="#A80036" points="254,143.4799,264,147.4799,254,151.4799,258,147.4799" style="stroke: #A80036; stroke-width: 1.0;"/><line style="stroke: #A80036; stroke-width: 2.0;" x1="63" x2="260" y1="147.4799" y2="147.4799"/><text fill="#000000" font-family="sans-serif" font-size="13" lengthAdjust="spacingAndGlyphs" textLength="109" x="70" y="141.6709">BEGIN transaction</text><polygon fill="#A80036" points="254,192.892,264,196.892,254,200.892,258,196.892" style="stroke: #A80036; stroke-width: 1.0;"/><line style="stroke: #A80036; stroke-width: 2.0;" x1="63" x2="260" y1="196.892" y2="196.892"/><text fill="#000000" font-family="sans-serif" font-size="13" lengthAdjust="spacingAndGlyphs" textLength="85" x="70" y="173.377">Business write</text><text fill="#000000" font-family="sans-serif" font-size="13" lengthAdjust="spacingAndGlyphs" textLength="98" x="70" y="191.083">(e.g. create user)</text><polygon fill="#A80036" points="254,242.304,264,246.304,254,250.304,258,246.304" style="stroke: #A80036; stroke-width: 1.0;"/><line style="stroke: #A80036; stroke-width: 2.0;" x1="63" x2="260" y1="246.304" y2="246.304"/><text fill="#000000" font-family="sans-serif" font-size="13" lengthAdjust="spacingAndGlyphs" textLength="124" x="70" y="222.789">INSERT INTO outbox</text><text fill="#000000" font-family="sans-serif" font-size="13" lengthAdjust="spacingAndGlyphs" textLength="179" x="70" y="240.495">(event data, status=PENDING)</text><polygon fill="#A80036" points="259,274.01,269,278.01,259,282.01,263,278.01" style="stroke: #A80036; stroke-width: 1.0;"/><line style="stroke: #A80036; stroke-width: 2.0;" x1="63" x2="265" y1="278.01" y2="278.01"/><text fill="#000000" font-family="sans-serif" font-size="13" lengthAdjust="spacingAndGlyphs" textLength="53" x="70" y="272.201">COMMIT</text><path d="M68,291.01 L68,336.01 L258,336.01 L258,301.01 L248,291.01 L68,291.01 " fill="#FBFB77" filter="url(#f124or21x6qla1)" style="stroke: #A80036; stroke-width: 1.0;"/><path d="M248,291.01 L248,301.01 L258,301.01 L248,291.01 " fill="#FBFB77" style="stroke: #A80036; stroke-width: 1.0;"/><text fill="#000000" font-family="sans-serif" font-size="13" lengthAdjust="spacingAndGlyphs" textLength="168" x="74" y="309.907">Event is persisted atomically</text><text fill="#000000" font-family="sans-serif" font-size="13" lengthAdjust="spacingAndGlyphs" textLength="169" x="74" y="327.6131">with the business operation.</text><rect fill="#EEEEEE" filter="url(#f124or21x6qla1)" height="3" style="stroke: #EEEEEE; stroke-width: 1.0;" width="653.5" x="3" y="367.2751"/><line style="stroke: #000000; stroke-width: 1.0;" x1="3" x2="656.5" y1="367.2751" y2="367.2751"/><line style="stroke: #000000; stroke-width: 1.0;" x1="3" x2="656.5" y1="370.2751" y2="370.2751"/><rect fill="#EEEEEE" filter="url(#f124or21x6qla1)" height="25.706" style="stroke: #000000; stroke-width: 2.0;" width="252" x="203.75" y="355.4221"/><text fill="#000000" font-family="sans-serif" font-size="13" font-weight="bold" lengthAdjust="spacingAndGlyphs" textLength="235" x="209.75" y="373.3191">Asynchronous Publishing (every 10s)</text><polygon fill="#A80036" points="287,428.5401,277,432.5401,287,436.5401,283,432.5401" style="stroke: #A80036; stroke-width: 1.0;"/><line style="stroke: #A80036; stroke-width: 2.0;" x1="281" x2="448" y1="432.5401" y2="432.5401"/><text fill="#000000" font-family="sans-serif" font-size="13" lengthAdjust="spacingAndGlyphs" textLength="140" x="293" y="409.0251">SELECT * FROM outbox</text><text fill="#000000" font-family="sans-serif" font-size="13" lengthAdjust="spacingAndGlyphs" textLength="154" x="293" y="426.7311">WHERE status = PENDING</text><polygon fill="#A80036" points="437,460.2461,447,464.2461,437,468.2461,441,464.2461" style="stroke: #A80036; stroke-width: 1.0;"/><line style="stroke: #A80036; stroke-width: 2.0; stroke-dasharray: 2.0,2.0;" x1="271" x2="443" y1="464.2461" y2="464.2461"/><text fill="#000000" font-family="sans-serif" font-size="13" lengthAdjust="spacingAndGlyphs" textLength="101" x="278" y="458.4371">pending events[]</text><path d="M219.5,479.2461 L292.5,479.2461 L292.5,488.2461 L282.5,498.2461 L219.5,498.2461 L219.5,479.2461 " fill="#EEEEEE" style="stroke: #000000; stroke-width: 1.0;"/><rect fill="none" height="132.5301" style="stroke: #000000; stroke-width: 2.0;" width="427" x="219.5" y="479.2461"/><text fill="#000000" font-family="sans-serif" font-size="13" font-weight="bold" lengthAdjust="spacingAndGlyphs" textLength="28" x="234.5" y="494.1431">loop</text><text fill="#000000" font-family="sans-serif" font-size="11" font-weight="bold" lengthAdjust="spacingAndGlyphs" textLength="137" x="307.5" y="493.005">[for each pending event]</text><polygon fill="#A80036" points="563.5,518.6582,573.5,522.6582,563.5,526.6582,567.5,522.6582" style="stroke: #A80036; stroke-width: 1.0;"/><line style="stroke: #A80036; stroke-width: 2.0;" x1="449" x2="569.5" y1="522.6582" y2="522.6582"/><text fill="#000000" font-family="sans-serif" font-size="13" lengthAdjust="spacingAndGlyphs" textLength="81" x="456" y="516.8492">Publish event</text><polygon fill="#A80036" points="460,550.3642,450,554.3642,460,558.3642,456,554.3642" style="stroke: #A80036; stroke-width: 1.0;"/><line style="stroke: #A80036; stroke-width: 2.0; stroke-dasharray: 2.0,2.0;" x1="454" x2="579.5" y1="554.3642" y2="554.3642"/><text fill="#000000" font-family="sans-serif" font-size="13" lengthAdjust="spacingAndGlyphs" textLength="20" x="466" y="548.5552">ack</text><polygon fill="#A80036" points="282,599.7762,272,603.7762,282,607.7762,278,603.7762" style="stroke: #A80036; stroke-width: 1.0;"/><line style="stroke: #A80036; stroke-width: 2.0;" x1="276" x2="448" y1="603.7762" y2="603.7762"/><text fill="#000000" font-family="sans-serif" font-size="13" lengthAdjust="spacingAndGlyphs" textLength="96" x="288" y="580.2612">UPDATE outbox</text><text fill="#000000" font-family="sans-serif" font-size="13" lengthAdjust="spacingAndGlyphs" textLength="105" x="288" y="597.9672">SET status = SENT</text><path d="M454,623.7762 L454,703.7762 L646,703.7762 L646,633.7762 L636,623.7762 L454,623.7762 " fill="#FBFB77" filter="url(#f124or21x6qla1)" style="stroke: #A80036; stroke-width: 1.0;"/><path d="M636,623.7762 L636,633.7762 L646,633.7762 L636,623.7762 " fill="#FBFB77" style="stroke: #A80036; stroke-width: 1.0;"/><text fill="#000000" font-family="sans-serif" font-size="13" lengthAdjust="spacingAndGlyphs" textLength="131" x="460" y="642.6732">At-least-once delivery:</text><text fill="#000000" font-family="sans-serif" font-size="13" lengthAdjust="spacingAndGlyphs" textLength="158" x="460" y="660.3792">If RabbitMQ is unavailable,</text><text fill="#000000" font-family="sans-serif" font-size="13" lengthAdjust="spacingAndGlyphs" textLength="171" x="460" y="678.0853">events remain PENDING and</text><text fill="#000000" font-family="sans-serif" font-size="13" lengthAdjust="spacingAndGlyphs" textLength="127" x="460" y="695.7913">are retried next cycle.</text><!--MD5=[4c8a19b5feb59e76501de19e4e78a7f6]
@startuml Outbox Pattern
skinparam backgroundColor white
skinparam sequenceArrowThickness 2

participant "Service\n(Business Op)" as svc
database "PostgreSQL" as db
participant "OutboxPublisher\n(Cron: every 10s)" as cron
queue "RabbitMQ\n(audit_queue)" as rmq

== Business Operation ==

svc -> db : BEGIN transaction
activate db
svc -> db : Business write\n(e.g. create user)
svc -> db : INSERT INTO outbox\n(event data, status=PENDING)
svc -> db : COMMIT
deactivate db

note right of svc
  Event is persisted atomically
  with the business operation.
end note

== Asynchronous Publishing (every 10s) ==

cron -> db : SELECT * FROM outbox\nWHERE status = PENDING
activate db
db - -> cron : pending events[]
deactivate db

loop for each pending event
  cron -> rmq : Publish event
  activate rmq
  rmq - -> cron : ack
  deactivate rmq

  cron -> db : UPDATE outbox\nSET status = SENT
end

note right of cron
  At-least-once delivery:
  If RabbitMQ is unavailable,
  events remain PENDING and
  are retried next cycle.
end note
@enduml

PlantUML version 1.2020.02(Sun Mar 01 07:22:07 ART 2020)
(GPL source distribution)
Java Runtime: OpenJDK Runtime Environment
JVM: OpenJDK 64-Bit Server VM
Java Version: 21.0.11-ea+5-[Ubuntu-1]
Operating System: Linux
Default Encoding: UTF-8
Language: en
Country: US
--></g></svg>