<?xml version="1.0" encoding="UTF-8" standalone="no"?><svg xmlns="http://www.w3.org/2000/svg" xmlns:xlink="http://www.w3.org/1999/xlink" contentScriptType="application/ecmascript" contentStyleType="text/css" height="956px" preserveAspectRatio="none" style="width:1118px;height:956px;" version="1.1" viewBox="0 0 1118 956" width="1118px" zoomAndPan="magnify"><defs><filter height="300%" id="f1kvl8jiznkyrv" width="300%" x="-1" y="-1"><feGaussianBlur result="blurOut" stdDeviation="2.0"/><feColorMatrix in="blurOut" result="blurOut2" type="matrix" values="0 0 0 0 0 0 0 0 0 0 0 0 0 0 0 0 0 0 .4 0"/><feOffset dx="4.0" dy="4.0" in="blurOut2" result="blurOut3"/><feBlend in="SourceGraphic" in2="blurOut3" mode="normal"/></filter></defs><g><rect fill="#FFFFFF" filter="url(#f1kvl8jiznkyrv)" height="303.0602" style="stroke: #A80036; stroke-width: 1.0;" width="10" x="311.5" y="186.186"/><rect fill="#FFFFFF" filter="url(#f1kvl8jiznkyrv)" height="186.5301" style="stroke: #A80036; stroke-width: 1.0;" width="10" x="311.5" y="584.3642"/><rect fill="#FFFFFF" filter="url(#f1kvl8jiznkyrv)" height="239.6481" style="stroke: #A80036; stroke-width: 1.0;" width="10" x="560.5" y="217.892"/><rect fill="#FFFFFF" filter="url(#f1kvl8jiznkyrv)" height="123.118" style="stroke: #A80036; stroke-width: 1.0;" width="10" x="560.5" y="616.0702"/><rect fill="#FFFFFF" filter="url(#f1kvl8jiznkyrv)" height="31.706" style="stroke: #A80036; stroke-width: 1.0;" width="10" x="719.5" y="330.716"/><rect fill="#FFFFFF" filter="url(#f1kvl8jiznkyrv)" height="31.706" style="stroke: #A80036; stroke-width: 1.0;" width="10" x="719.5" y="647.7762"/><rect fill="#FFFFFF" filter="url(#f1kvl8jiznkyrv)" height="31.706" style="stroke: #A80036; stroke-width: 1.0;" width="10" x="829.5" y="411.8341"/><rect fill="#FFFFFF" filter="url(#f1kvl8jiznkyrv)" height="31.706" style="stroke: #A80036; stroke-width: 1.0;" width="10" x="1055" y="249.598"/><rect fill="#FFFFFF" filter="url(#f1kvl8jiznkyrv)" height="14" style="stroke: #A80036; stroke-width: 1.0;" width="10" x="1055" y="711.1882"/><line style="stroke: #A80036; stroke-width: 1.0; stroke-dasharray: 5.0,5.0;" x1="26" x2="26" y1="89.0679" y2="866.0123"/><line style="stroke: #A80036; stroke-width: 1.0; stroke-dasharray: 5.0,5.0;" x1="316" x2="316" y1="89.0679" y2="866.0123"/><line style="stroke: #A80036; stroke-width: 1.0; stroke-dasharray: 5.0,5.0;" x1="565.5" x2="565.5" y1="89.0679" y2="866.0123"/><line style="stroke: #A80036; stroke-width: 1.0; stroke-dasharray: 5.0,5.0;" x1="724.5" x2="724.5" y1="89.0679" y2="866.0123"/><line style="stroke: #A80036; stroke-width: 1.0; stroke-dasharray: 5.0,5.0;" x1="834.5" x2="834.5" y1="89.0679" y2="866.0123"/><line style="stroke: #A80036; stroke-width: 1.0; stroke-dasharray: 5.0,5.0;" x1="954.5" x2="954.5" y1="89.0679" y2="866.0123"/><line style="stroke: #A80036; stroke-width: 1.0; stroke-dasharray: 5.0,5.0;" x1="1059.5" x2="1059.5" y1="89.0679" y2="866.0123"/><text fill="#000000" font-family="sans-serif" font-size="14" lengthAdjust="spacingAndGlyphs" textLength="31" x="8" y="84.9659">User</text><ellipse cx="26.5" cy="13" fill="#FEFECE" filter="url(#f1kvl8jiznkyrv)" rx="8" ry="8" style="stroke: #A80036; stroke-width: 2.0;"/><path d="M26.5,21 L26.5,48 M13.5,29 L39.5,29 M26.5,48 L13.5,63 M26.5,48 L39.5,63 " fill="none" filter="url(#f1kvl8jiznkyrv)" style="stroke: #A80036; stroke-width: 2.0;"/><text fill="#000000" font-family="sans-serif" font-size="14" lengthAdjust="spacingAndGlyphs" textLength="31" x="8" y="879.9782">User</text><ellipse cx="26.5" cy="894.0802" fill="#FEFECE" filter="url(#f1kvl8jiznkyrv)" rx="8" ry="8" style="stroke: #A80036; stroke-width: 2.0;"/><path d="M26.5,902.0802 L26.5,929.0802 M13.5,910.0802 L39.5,910.0802 M26.5,929.0802 L13.5,944.0802 M26.5,929.0802 L39.5,944.0802 " fill="none" filter="url(#f1kvl8jiznkyrv)" style="stroke: #A80036; stroke-width: 2.0;"/><rect fill="#FEFECE" filter="url(#f1kvl8jiznkyrv)" height="33.0679" style="stroke: #A80036; stroke-width: 1.5;" width="119" x="255" y="51"/><text fill="#000000" font-family="sans-serif" font-size="14" lengthAdjust="spacingAndGlyphs" textLength="105" x="262" y="72.9659">UsersController</text><rect fill="#FEFECE" filter="url(#f1kvl8jiznkyrv)" height="33.0679" style="stroke: #A80036; stroke-width: 1.5;" width="119" x="255" y="865.0123"/><text fill="#000000" font-family="sans-serif" font-size="14" lengthAdjust="spacingAndGlyphs" textLength="105" x="262" y="886.9782">UsersController</text><rect fill="#FEFECE" filter="url(#f1kvl8jiznkyrv)" height="33.0679" style="stroke: #A80036; stroke-width: 1.5;" width="100" x="513.5" y="51"/><text fill="#000000" font-family="sans-serif" font-size="14" lengthAdjust="spacingAndGlyphs" textLength="86" x="520.5" y="72.9659">UsersService</text><rect fill="#FEFECE" filter="url(#f1kvl8jiznkyrv)" height="33.0679" style="stroke: #A80036; stroke-width: 1.5;" width="100" x="513.5" y="865.0123"/><text fill="#000000" font-family="sans-serif" font-size="14" lengthAdjust="spacingAndGlyphs" textLength="86" x="520.5" y="886.9782">UsersService</text><rect fill="#FEFECE" filter="url(#f1kvl8jiznkyrv)" height="33.0679" style="stroke: #A80036; stroke-width: 1.5;" width="82" x="681.5" y="51"/><text fill="#000000" font-family="sans-serif" font-size="14" lengthAdjust="spacingAndGlyphs" textLength="68" x="688.5" y="72.9659">JwtService</text><rect fill="#FEFECE" filter="url(#f1kvl8jiznkyrv)" height="33.0679" style="stroke: #A80036; stroke-width: 1.5;" width="82" x="681.5" y="865.0123"/><text fill="#000000" font-family="sans-serif" font-size="14" lengthAdjust="spacingAndGlyphs" textLength="68" x="688.5" y="886.9782">JwtService</text><path d="M782.5,40.9321 L886.5,40.9321 C891.5,40.9321 891.5,65 891.5,65 C891.5,65 891.5,89.0679 886.5,89.0679 L782.5,89.0679 C777.5,89.0679 777.5,65 777.5,65 C777.5,65 777.5,40.9321 782.5,40.9321 " fill="#FEFECE" filter="url(#f1kvl8jiznkyrv)" style="stroke: #A80036; stroke-width: 2.0;"/><path d="M886.5,40.9321 C881.5,40.9321 881.5,65 881.5,65 C881.5,89.0679 886.5,89.0679 886.5,89.0679 " fill="none" style="stroke: #A80036; stroke-width: 2.0;"/><text fill="#000000" font-family="sans-serif" font-size="14" lengthAdjust="spacingAndGlyphs" textLength="68" x="795.5" y="60.898">RabbitMQ</text><text fill="#000000" font-family="sans-serif" font-size="14" lengthAdjust="spacingAndGlyphs" textLength="94" x="782.5" y="79.9659">(Email Queue)</text><path d="M782.5,865.0123 L886.5,865.0123 C891.5,865.0123 891.5,889.0802 891.5,889.0802 C891.5,889.0802 891.5,913.1481 886.5,913.1481 L782.5,913.1481 C777.5,913.1481 777.5,889.0802 777.5,889.0802 C777.5,889.0802 777.5,865.0123 782.5,865.0123 " fill="#FEFECE" filter="url(#f1kvl8jiznkyrv)" style="stroke: #A80036; stroke-width: 2.0;"/><path d="M886.5,865.0123 C881.5,865.0123 881.5,889.0802 881.5,889.0802 C881.5,913.1481 886.5,913.1481 886.5,913.1481 " fill="none" style="stroke: #A80036; stroke-width: 2.0;"/><text fill="#000000" font-family="sans-serif" font-size="14" lengthAdjust="spacingAndGlyphs" textLength="68" x="795.5" y="884.9782">RabbitMQ</text><text fill="#000000" font-family="sans-serif" font-size="14" lengthAdjust="spacingAndGlyphs" textLength="94" x="782.5" y="904.0462">(Email Queue)</text><rect fill="#FEFECE" filter="url(#f1kvl8jiznkyrv)" height="33.0679" style="stroke: #A80036; stroke-width: 1.5;" width="103" x="901.5" y="51"/><text fill="#000000" font-family="sans-serif" font-size="14" lengthAdjust="spacingAndGlyphs" textLength="89" x="908.5" y="72.9659">Email Service</text><rect fill="#FEFECE" filter="url(#f1kvl8jiznkyrv)" height="33.0679" style="stroke: #A80036; stroke-width: 1.5;" width="103" x="901.5" y="865.0123"/><text fill="#000000" font-family="sans-serif" font-size="14" lengthAdjust="spacingAndGlyphs" textLength="89" x="908.5" y="886.9782">Email Service</text><text fill="#000000" font-family="sans-serif" font-size="14" lengthAdjust="spacingAndGlyphs" textLength="77" x="1018.5" y="84.9659">PostgreSQL</text><path d="M1042,34 C1042,24 1060,24 1060,24 C1060,24 1078,24 1078,34 L1078,60 C1078,70 1060,70 1060,70 C1060,70 1042,70 1042,60 L1042,34 " fill="#FEFECE" filter="url(#f1kvl8jiznkyrv)" style="stroke: #000000; stroke-width: 1.5;"/><path d="M1042,34 C1042,44 1060,44 1060,44 C1060,44 1078,44 1078,34 " fill="none" style="stroke: #000000; stroke-width: 1.5;"/><text fill="#000000" font-family="sans-serif" font-size="14" lengthAdjust="spacingAndGlyphs" textLength="77" x="1018.5" y="879.9782">PostgreSQL</text><path d="M1042,894.0802 C1042,884.0802 1060,884.0802 1060,884.0802 C1060,884.0802 1078,884.0802 1078,894.0802 L1078,920.0802 C1078,930.0802 1060,930.0802 1060,930.0802 C1060,930.0802 1042,930.0802 1042,920.0802 L1042,894.0802 " fill="#FEFECE" filter="url(#f1kvl8jiznkyrv)" style="stroke: #000000; stroke-width: 1.5;"/><path d="M1042,894.0802 C1042,904.0802 1060,904.0802 1060,904.0802 C1060,904.0802 1078,904.0802 1078,894.0802 " fill="none" style="stroke: #000000; stroke-width: 1.5;"/><rect fill="#FFFFFF" filter="url(#f1kvl8jiznkyrv)" height="303.0602" style="stroke: #A80036; stroke-width: 1.0;" width="10" x="311.5" y="186.186"/><rect fill="#FFFFFF" filter="url(#f1kvl8jiznkyrv)" height="186.5301" style="stroke: #A80036; stroke-width: 1.0;" width="10" x="311.5" y="584.3642"/><rect fill="#FFFFFF" filter="url(#f1kvl8jiznkyrv)" height="239.6481" style="stroke: #A80036; stroke-width: 1.0;" width="10" x="560.5" y="217.892"/><rect fill="#FFFFFF" filter="url(#f1kvl8jiznkyrv)" height="123.118" style="stroke: #A80036; stroke-width: 1.0;" width="10" x="560.5" y="616.0702"/><rect fill="#FFFFFF" filter="url(#f1kvl8jiznkyrv)" height="31.706" style="stroke: #A80036; stroke-width: 1.0;" width="10" x="719.5" y="330.716"/><rect fill="#FFFFFF" filter="url(#f1kvl8jiznkyrv)" height="31.706" style="stroke: #A80036; stroke-width: 1.0;" width="10" x="719.5" y="647.7762"/><rect fill="#FFFFFF" filter="url(#f1kvl8jiznkyrv)" height="31.706" style="stroke: #A80036; stroke-width: 1.0;" width="10" x="829.5" y="411.8341"/><rect fill="#FFFFFF" filter="url(#f1kvl8jiznkyrv)" height="31.706" style="stroke: #A80036; stroke-width: 1.0;" width="10" x="1055" y="249.598"/><rect fill="#FFFFFF" filter="url(#f1kvl8jiznkyrv)" height="14" style="stroke: #A80036; stroke-width: 1.0;" width="10" x="1055" y="711.1882"/><rect fill="#EEEEEE" filter="url(#f1kvl8jiznkyrv)" height="3" style="stroke: #EEEEEE; stroke-width: 1.0;" width="1103.5" x="3" y="120.9209"/><line style="stroke: #000000; stroke-width: 1.0;" x1="3" x2="1106.5" y1="120.9209" y2="120.9209"/><line style="stroke: #000000; stroke-width: 1.0;" x1="3" x2="1106.5" y1="123.9209" y2="123.9209"/><rect fill="#EEEEEE" filter="url(#f1kvl8jiznkyrv)" height="25.706" style="stroke: #000000; stroke-width: 2.0;" width="221" x="444.25" y="109.0679"/><text fill="#000000" font-family="sans-serif" font-size="13" font-weight="bold" lengthAdjust="spacingAndGlyphs" textLength="204" x="450.25" y="126.9649">Step 1: Request Password Reset</text><polygon fill="#A80036" points="299.5,182.186,309.5,186.186,299.5,190.186,303.5,186.186" style="stroke: #A80036; stroke-width: 1.0;"/><line style="stroke: #A80036; stroke-width: 2.0;" x1="26.5" x2="305.5" y1="186.186" y2="186.186"/><text fill="#000000" font-family="sans-serif" font-size="13" lengthAdjust="spacingAndGlyphs" textLength="177" x="33.5" y="162.6709">POST /users/forgot-password</text><text fill="#000000" font-family="sans-serif" font-size="13" lengthAdjust="spacingAndGlyphs" textLength="42" x="33.5" y="180.377">{email}</text><polygon fill="#A80036" points="548.5,213.892,558.5,217.892,548.5,221.892,552.5,217.892" style="stroke: #A80036; stroke-width: 1.0;"/><line style="stroke: #A80036; stroke-width: 2.0;" x1="321.5" x2="554.5" y1="217.892" y2="217.892"/><text fill="#000000" font-family="sans-serif" font-size="13" lengthAdjust="spacingAndGlyphs" textLength="136" x="328.5" y="212.083">forgotPassword(email)</text><polygon fill="#A80036" points="1043,245.598,1053,249.598,1043,253.598,1047,249.598" style="stroke: #A80036; stroke-width: 1.0;"/><line style="stroke: #A80036; stroke-width: 2.0;" x1="570.5" x2="1049" y1="249.598" y2="249.598"/><text fill="#000000" font-family="sans-serif" font-size="13" lengthAdjust="spacingAndGlyphs" textLength="108" x="577.5" y="243.789">Find user by email</text><polygon fill="#A80036" points="581.5,277.304,571.5,281.304,581.5,285.304,577.5,281.304" style="stroke: #A80036; stroke-width: 1.0;"/><line style="stroke: #A80036; stroke-width: 2.0; stroke-dasharray: 2.0,2.0;" x1="575.5" x2="1059" y1="281.304" y2="281.304"/><text fill="#000000" font-family="sans-serif" font-size="13" lengthAdjust="spacingAndGlyphs" textLength="63" x="587.5" y="275.495">UserEntity</text><polygon fill="#A80036" points="707.5,326.716,717.5,330.716,707.5,334.716,711.5,330.716" style="stroke: #A80036; stroke-width: 1.0;"/><line style="stroke: #A80036; stroke-width: 2.0;" x1="570.5" x2="713.5" y1="330.716" y2="330.716"/><text fill="#000000" font-family="sans-serif" font-size="13" lengthAdjust="spacingAndGlyphs" textLength="130" x="577.5" y="307.201">Generate time-limited</text><text fill="#000000" font-family="sans-serif" font-size="13" lengthAdjust="spacingAndGlyphs" textLength="68" x="577.5" y="324.907">reset token</text><polygon fill="#A80036" points="581.5,358.4221,571.5,362.4221,581.5,366.4221,577.5,362.4221" style="stroke: #A80036; stroke-width: 1.0;"/><line style="stroke: #A80036; stroke-width: 2.0; stroke-dasharray: 2.0,2.0;" x1="575.5" x2="723.5" y1="362.4221" y2="362.4221"/><text fill="#000000" font-family="sans-serif" font-size="13" lengthAdjust="spacingAndGlyphs" textLength="67" x="587.5" y="356.6131">resetToken</text><polygon fill="#A80036" points="817.5,407.8341,827.5,411.8341,817.5,415.8341,821.5,411.8341" style="stroke: #A80036; stroke-width: 1.0;"/><line style="stroke: #A80036; stroke-width: 2.0;" x1="570.5" x2="823.5" y1="411.8341" y2="411.8341"/><text fill="#000000" font-family="sans-serif" font-size="13" lengthAdjust="spacingAndGlyphs" textLength="128" x="577.5" y="388.3191">Publish email request</text><text fill="#000000" font-family="sans-serif" font-size="13" lengthAdjust="spacingAndGlyphs" textLength="190" x="577.5" y="406.0251">(password reset link with token)</text><polygon fill="#A80036" points="943,439.5401,953,443.5401,943,447.5401,947,443.5401" style="stroke: #A80036; stroke-width: 1.0;"/><line style="stroke: #A80036; stroke-width: 2.0; stroke-dasharray: 2.0,2.0;" x1="834.5" x2="949" y1="443.5401" y2="443.5401"/><text fill="#000000" font-family="sans-serif" font-size="13" lengthAdjust="spacingAndGlyphs" textLength="76" x="841.5" y="437.7311">Deliver email</text><polygon fill="#A80036" points="332.5,453.5401,322.5,457.5401,332.5,461.5401,328.5,457.5401" style="stroke: #A80036; stroke-width: 1.0;"/><line style="stroke: #A80036; stroke-width: 2.0; stroke-dasharray: 2.0,2.0;" x1="326.5" x2="564.5" y1="457.5401" y2="457.5401"/><polygon fill="#A80036" points="37.5,485.2461,27.5,489.2461,37.5,493.2461,33.5,489.2461" style="stroke: #A80036; stroke-width: 1.0;"/><line style="stroke: #A80036; stroke-width: 2.0; stroke-dasharray: 2.0,2.0;" x1="31.5" x2="315.5" y1="489.2461" y2="489.2461"/><text fill="#000000" font-family="sans-serif" font-size="13" lengthAdjust="spacingAndGlyphs" textLength="176" x="43.5" y="483.4371">{message: "Reset email sent"}</text><rect fill="#EEEEEE" filter="url(#f1kvl8jiznkyrv)" height="3" style="stroke: #EEEEEE; stroke-width: 1.0;" width="1103.5" x="3" y="519.0991"/><line style="stroke: #000000; stroke-width: 1.0;" x1="3" x2="1106.5" y1="519.0991" y2="519.0991"/><line style="stroke: #000000; stroke-width: 1.0;" x1="3" x2="1106.5" y1="522.0991" y2="522.0991"/><rect fill="#EEEEEE" filter="url(#f1kvl8jiznkyrv)" height="25.706" style="stroke: #000000; stroke-width: 2.0;" width="164" x="472.75" y="507.2461"/><text fill="#000000" font-family="sans-serif" font-size="13" font-weight="bold" lengthAdjust="spacingAndGlyphs" textLength="147" x="478.75" y="525.1431">Step 2: Reset Password</text><polygon fill="#A80036" points="299.5,580.3642,309.5,584.3642,299.5,588.3642,303.5,584.3642" style="stroke: #A80036; stroke-width: 1.0;"/><line style="stroke: #A80036; stroke-width: 2.0;" x1="26.5" x2="305.5" y1="584.3642" y2="584.3642"/><text fill="#000000" font-family="sans-serif" font-size="13" lengthAdjust="spacingAndGlyphs" textLength="266" x="33.5" y="560.8492">POST /users/reset-password?token=&lt;token&gt;</text><text fill="#000000" font-family="sans-serif" font-size="13" lengthAdjust="spacingAndGlyphs" textLength="93" x="33.5" y="578.5552">{newPassword}</text><polygon fill="#A80036" points="548.5,612.0702,558.5,616.0702,548.5,620.0702,552.5,616.0702" style="stroke: #A80036; stroke-width: 1.0;"/><line style="stroke: #A80036; stroke-width: 2.0;" x1="321.5" x2="554.5" y1="616.0702" y2="616.0702"/><text fill="#000000" font-family="sans-serif" font-size="13" lengthAdjust="spacingAndGlyphs" textLength="220" x="328.5" y="610.2612">resetPassword(token, newPassword)</text><polygon fill="#A80036" points="707.5,643.7762,717.5,647.7762,707.5,651.7762,711.5,647.7762" style="stroke: #A80036; stroke-width: 1.0;"/><line style="stroke: #A80036; stroke-width: 2.0;" x1="570.5" x2="713.5" y1="647.7762" y2="647.7762"/><text fill="#000000" font-family="sans-serif" font-size="13" lengthAdjust="spacingAndGlyphs" textLength="119" x="577.5" y="641.9672">Validate reset token</text><polygon fill="#A80036" points="581.5,675.4822,571.5,679.4822,581.5,683.4822,577.5,679.4822" style="stroke: #A80036; stroke-width: 1.0;"/><line style="stroke: #A80036; stroke-width: 2.0; stroke-dasharray: 2.0,2.0;" x1="575.5" x2="723.5" y1="679.4822" y2="679.4822"/><text fill="#000000" font-family="sans-serif" font-size="13" lengthAdjust="spacingAndGlyphs" textLength="91" x="587.5" y="673.6732">payload (email)</text><polygon fill="#A80036" points="1043,707.1882,1053,711.1882,1043,715.1882,1047,711.1882" style="stroke: #A80036; stroke-width: 1.0;"/><line style="stroke: #A80036; stroke-width: 2.0;" x1="570.5" x2="1049" y1="711.1882" y2="711.1882"/><text fill="#000000" font-family="sans-serif" font-size="13" lengthAdjust="spacingAndGlyphs" textLength="188" x="577.5" y="705.3792">Update password (bcrypt hash)</text><polygon fill="#A80036" points="581.5,721.1882,571.5,725.1882,581.5,729.1882,577.5,725.1882" style="stroke: #A80036; stroke-width: 1.0;"/><line style="stroke: #A80036; stroke-width: 2.0; stroke-dasharray: 2.0,2.0;" x1="575.5" x2="1059" y1="725.1882" y2="725.1882"/><polygon fill="#A80036" points="332.5,735.1882,322.5,739.1882,332.5,743.1882,328.5,739.1882" style="stroke: #A80036; stroke-width: 1.0;"/><line style="stroke: #A80036; stroke-width: 2.0; stroke-dasharray: 2.0,2.0;" x1="326.5" x2="564.5" y1="739.1882" y2="739.1882"/><polygon fill="#A80036" points="37.5,766.8943,27.5,770.8943,37.5,774.8943,33.5,770.8943" style="stroke: #A80036; stroke-width: 1.0;"/><line style="stroke: #A80036; stroke-width: 2.0; stroke-dasharray: 2.0,2.0;" x1="31.5" x2="315.5" y1="770.8943" y2="770.8943"/><text fill="#000000" font-family="sans-serif" font-size="13" lengthAdjust="spacingAndGlyphs" textLength="233" x="43.5" y="765.0853">{message: "Password reset successful"}</text><path d="M31,783.8943 L31,846.8943 L197,846.8943 L197,793.8943 L187,783.8943 L31,783.8943 " fill="#FBFB77" filter="url(#f1kvl8jiznkyrv)" style="stroke: #A80036; stroke-width: 1.0;"/><path d="M187,783.8943 L187,793.8943 L197,793.8943 L187,783.8943 " fill="#FBFB77" style="stroke: #A80036; stroke-width: 1.0;"/><text fill="#000000" font-family="sans-serif" font-size="13" lengthAdjust="spacingAndGlyphs" textLength="145" x="37" y="802.7913">No cookies are involved.</text><text fill="#000000" font-family="sans-serif" font-size="13" lengthAdjust="spacingAndGlyphs" textLength="143" x="37" y="820.4973">The token is passed as a</text><text fill="#000000" font-family="sans-serif" font-size="13" lengthAdjust="spacingAndGlyphs" textLength="104" x="37" y="838.2033">query parameter.</text><!--MD5=[a81443ee2ec3563904d1b212b4d7e579]
@startuml Password Reset Flow
skinparam backgroundColor white
skinparam sequenceArrowThickness 2

actor User as user
participant "UsersController" as ctrl
participant "UsersService" as svc
participant "JwtService" as jwt
queue "RabbitMQ\n(Email Queue)" as rmq
participant "Email Service" as email
database "PostgreSQL" as db

== Step 1: Request Password Reset ==

user -> ctrl : POST /users/forgot-password\n{email}
activate ctrl
ctrl -> svc : forgotPassword(email)
activate svc

svc -> db : Find user by email
activate db
db - -> svc : UserEntity
deactivate db

svc -> jwt : Generate time-limited\nreset token
activate jwt
jwt - -> svc : resetToken
deactivate jwt

svc -> rmq : Publish email request\n(password reset link with token)
activate rmq
rmq - -> email : Deliver email
deactivate rmq

svc - -> ctrl
deactivate svc
ctrl - -> user : {message: "Reset email sent"}
deactivate ctrl

== Step 2: Reset Password ==

user -> ctrl : POST /users/reset-password?token=<token>\n{newPassword}
activate ctrl
ctrl -> svc : resetPassword(token, newPassword)
activate svc

svc -> jwt : Validate reset token
activate jwt
jwt - -> svc : payload (email)
deactivate jwt

svc -> db : Update password (bcrypt hash)
activate db
db - -> svc
deactivate db

svc - -> ctrl
deactivate svc
ctrl - -> user : {message: "Password reset successful"}
deactivate ctrl

note right of user
  No cookies are involved.
  The token is passed as a
  query parameter.
end note
@enduml

PlantUML version 1.2020.02(Sun Mar 01 07:22:07 ART 2020)
(GPL source distribution)
Java Runtime: OpenJDK Runtime Environment
JVM: OpenJDK 64-Bit Server VM
Java Version: 21.0.11-ea+5-[Ubuntu-1]
Operating System: Linux
Default Encoding: UTF-8
Language: en
Country: US
--></g></svg>