<?xml version="1.0" encoding="UTF-8" standalone="no"?><svg xmlns="http://www.w3.org/2000/svg" xmlns:xlink="http://www.w3.org/1999/xlink" contentScriptType="application/ecmascript" contentStyleType="text/css" height="422px" preserveAspectRatio="none" style="width:498px;height:422px;" version="1.1" viewBox="0 0 498 422" width="498px" zoomAndPan="magnify"><defs><filter height="300%" id="f1x6xpfup459l4" width="300%" x="-1" y="-1"><feGaussianBlur result="blurOut" stdDeviation="2.0"/><feColorMatrix in="blurOut" result="blurOut2" type="matrix" values="0 0 0 0 0 0 0 0 0 0 0 0 0 0 0 0 0 0 .4 0"/><feOffset dx="4.0" dy="4.0" in="blurOut2" result="blurOut3"/><feBlend in="SourceGraphic" in2="blurOut3" mode="normal"/></filter></defs><g><rect fill="#FFFFFF" filter="url(#f1x6xpfup459l4)" height="156.5301" style="stroke: #A80036; stroke-width: 1.0;" width="10" x="312.5" y="158.186"/><line style="stroke: #A80036; stroke-width: 1.0; stroke-dasharray: 5.0,5.0;" x1="38" x2="38" y1="89.0679" y2="332.716"/><line style="stroke: #A80036; stroke-width: 1.0; stroke-dasharray: 5.0,5.0;" x1="317.5" x2="317.5" y1="89.0679" y2="332.716"/><text fill="#000000" font-family="sans-serif" font-size="14" lengthAdjust="spacingAndGlyphs" textLength="55" x="8" y="84.9659">Browser</text><ellipse cx="38.5" cy="13" fill="#FEFECE" filter="url(#f1x6xpfup459l4)" rx="8" ry="8" style="stroke: #A80036; stroke-width: 2.0;"/><path d="M38.5,21 L38.5,48 M25.5,29 L51.5,29 M38.5,48 L25.5,63 M38.5,48 L51.5,63 " fill="none" filter="url(#f1x6xpfup459l4)" style="stroke: #A80036; stroke-width: 2.0;"/><text fill="#000000" font-family="sans-serif" font-size="14" lengthAdjust="spacingAndGlyphs" textLength="55" x="8" y="346.682">Browser</text><ellipse cx="38.5" cy="360.784" fill="#FEFECE" filter="url(#f1x6xpfup459l4)" rx="8" ry="8" style="stroke: #A80036; stroke-width: 2.0;"/><path d="M38.5,368.784 L38.5,395.784 M25.5,376.784 L51.5,376.784 M38.5,395.784 L25.5,410.784 M38.5,395.784 L51.5,410.784 " fill="none" filter="url(#f1x6xpfup459l4)" style="stroke: #A80036; stroke-width: 2.0;"/><rect fill="#FEFECE" filter="url(#f1x6xpfup459l4)" height="33.0679" style="stroke: #A80036; stroke-width: 1.5;" width="72" x="279.5" y="51"/><text fill="#000000" font-family="sans-serif" font-size="14" lengthAdjust="spacingAndGlyphs" textLength="58" x="286.5" y="72.9659">Auth-MS</text><rect fill="#FEFECE" filter="url(#f1x6xpfup459l4)" height="33.0679" style="stroke: #A80036; stroke-width: 1.5;" width="72" x="279.5" y="331.716"/><text fill="#000000" font-family="sans-serif" font-size="14" lengthAdjust="spacingAndGlyphs" textLength="58" x="286.5" y="353.682">Auth-MS</text><rect fill="#FFFFFF" filter="url(#f1x6xpfup459l4)" height="156.5301" style="stroke: #A80036; stroke-width: 1.0;" width="10" x="312.5" y="158.186"/><polygon fill="#A80036" points="300.5,154.186,310.5,158.186,300.5,162.186,304.5,158.186" style="stroke: #A80036; stroke-width: 1.0;"/><line style="stroke: #A80036; stroke-width: 2.0;" x1="38.5" x2="306.5" y1="158.186" y2="158.186"/><text fill="#000000" font-family="sans-serif" font-size="13" lengthAdjust="spacingAndGlyphs" textLength="149" x="45.5" y="116.9649">GET /users/refresh-token</text><text fill="#000000" font-family="sans-serif" font-size="13" lengthAdjust="spacingAndGlyphs" textLength="130" x="45.5" y="134.6709">Cookie: refresh_token</text><text fill="#000000" font-family="sans-serif" font-size="13" lengthAdjust="spacingAndGlyphs" textLength="219" x="45.5" y="152.377">(sent automatically — path matches)</text><line style="stroke: #A80036; stroke-width: 2.0;" x1="322.5" x2="364.5" y1="189.892" y2="189.892"/><line style="stroke: #A80036; stroke-width: 2.0;" x1="364.5" x2="364.5" y1="189.892" y2="202.892"/><line style="stroke: #A80036; stroke-width: 2.0;" x1="323.5" x2="364.5" y1="202.892" y2="202.892"/><polygon fill="#A80036" points="333.5,198.892,323.5,202.892,333.5,206.892,329.5,202.892" style="stroke: #A80036; stroke-width: 1.0;"/><text fill="#000000" font-family="sans-serif" font-size="13" lengthAdjust="spacingAndGlyphs" textLength="157" x="329.5" y="184.083">Validate refresh token JWT</text><line style="stroke: #A80036; stroke-width: 2.0;" x1="322.5" x2="364.5" y1="234.598" y2="234.598"/><line style="stroke: #A80036; stroke-width: 2.0;" x1="364.5" x2="364.5" y1="234.598" y2="247.598"/><line style="stroke: #A80036; stroke-width: 2.0;" x1="323.5" x2="364.5" y1="247.598" y2="247.598"/><polygon fill="#A80036" points="333.5,243.598,323.5,247.598,333.5,251.598,329.5,247.598" style="stroke: #A80036; stroke-width: 1.0;"/><text fill="#000000" font-family="sans-serif" font-size="13" lengthAdjust="spacingAndGlyphs" textLength="142" x="329.5" y="228.789">Rotate tokens if needed</text><polygon fill="#A80036" points="49.5,310.716,39.5,314.716,49.5,318.716,45.5,314.716" style="stroke: #A80036; stroke-width: 1.0;"/><line style="stroke: #A80036; stroke-width: 2.0; stroke-dasharray: 2.0,2.0;" x1="43.5" x2="316.5" y1="314.716" y2="314.716"/><text fill="#000000" font-family="sans-serif" font-size="13" lengthAdjust="spacingAndGlyphs" textLength="175" x="55.5" y="273.495">Set-Cookie: auth_token (new)</text><text fill="#000000" font-family="sans-serif" font-size="13" lengthAdjust="spacingAndGlyphs" textLength="250" x="55.5" y="291.201">Set-Cookie: refresh_token (new, if rotated)</text><text fill="#000000" font-family="sans-serif" font-size="13" lengthAdjust="spacingAndGlyphs" textLength="176" x="55.5" y="308.907">{message: "Token refreshed"}</text><!--MD5=[a7760b4362a6015e84bc6ea3afd934e8]
@startuml README Token Refresh Flow
skinparam backgroundColor white
skinparam sequenceArrowThickness 2

actor Browser as browser
participant "Auth-MS" as auth

browser -> auth : GET /users/refresh-token\nCookie: refresh_token\n(sent automatically — path matches)
activate auth
auth -> auth : Validate refresh token JWT
auth -> auth : Rotate tokens if needed
auth - -> browser : Set-Cookie: auth_token (new)\nSet-Cookie: refresh_token (new, if rotated)\n{message: "Token refreshed"}
deactivate auth
@enduml

PlantUML version 1.2020.02(Sun Mar 01 07:22:07 ART 2020)
(GPL source distribution)
Java Runtime: OpenJDK Runtime Environment
JVM: OpenJDK 64-Bit Server VM
Java Version: 21.0.11-ea+5-[Ubuntu-1]
Operating System: Linux
Default Encoding: UTF-8
Language: en
Country: US
--></g></svg>