<?xml version="1.0" encoding="UTF-8" standalone="no"?><svg xmlns="http://www.w3.org/2000/svg" xmlns:xlink="http://www.w3.org/1999/xlink" contentScriptType="application/ecmascript" contentStyleType="text/css" height="527px" preserveAspectRatio="none" style="width:630px;height:527px;" version="1.1" viewBox="0 0 630 527" width="630px" zoomAndPan="magnify"><defs><filter height="300%" id="fkm3djql6beff" width="300%" x="-1" y="-1"><feGaussianBlur result="blurOut" stdDeviation="2.0"/><feColorMatrix in="blurOut" result="blurOut2" type="matrix" values="0 0 0 0 0 0 0 0 0 0 0 0 0 0 0 0 0 0 .4 0"/><feOffset dx="4.0" dy="4.0" in="blurOut2" result="blurOut3"/><feBlend in="SourceGraphic" in2="blurOut3" mode="normal"/></filter></defs><g><rect fill="#FFFFFF" filter="url(#fkm3djql6beff)" height="278.6481" style="stroke: #A80036; stroke-width: 1.0;" width="10" x="173.5" y="140.4799"/><rect fill="#FFFFFF" filter="url(#fkm3djql6beff)" height="152.8241" style="stroke: #A80036; stroke-width: 1.0;" width="10" x="413.5" y="234.598"/><line style="stroke: #A80036; stroke-width: 1.0; stroke-dasharray: 5.0,5.0;" x1="38" x2="38" y1="89.0679" y2="437.1281"/><line style="stroke: #A80036; stroke-width: 1.0; stroke-dasharray: 5.0,5.0;" x1="178" x2="178" y1="89.0679" y2="437.1281"/><line style="stroke: #A80036; stroke-width: 1.0; stroke-dasharray: 5.0,5.0;" x1="418" x2="418" y1="89.0679" y2="437.1281"/><line style="stroke: #A80036; stroke-width: 1.0; stroke-dasharray: 5.0,5.0;" x1="600" x2="600" y1="89.0679" y2="437.1281"/><text fill="#000000" font-family="sans-serif" font-size="14" lengthAdjust="spacingAndGlyphs" textLength="55" x="8" y="84.9659">Browser</text><ellipse cx="38.5" cy="13" fill="#FEFECE" filter="url(#fkm3djql6beff)" rx="8" ry="8" style="stroke: #A80036; stroke-width: 2.0;"/><path d="M38.5,21 L38.5,48 M25.5,29 L51.5,29 M38.5,48 L25.5,63 M38.5,48 L51.5,63 " fill="none" filter="url(#fkm3djql6beff)" style="stroke: #A80036; stroke-width: 2.0;"/><text fill="#000000" font-family="sans-serif" font-size="14" lengthAdjust="spacingAndGlyphs" textLength="55" x="8" y="451.094">Browser</text><ellipse cx="38.5" cy="465.196" fill="#FEFECE" filter="url(#fkm3djql6beff)" rx="8" ry="8" style="stroke: #A80036; stroke-width: 2.0;"/><path d="M38.5,473.196 L38.5,500.196 M25.5,481.196 L51.5,481.196 M38.5,500.196 L25.5,515.196 M38.5,500.196 L51.5,515.196 " fill="none" filter="url(#fkm3djql6beff)" style="stroke: #A80036; stroke-width: 2.0;"/><rect fill="#FEFECE" filter="url(#fkm3djql6beff)" height="33.0679" style="stroke: #A80036; stroke-width: 1.5;" width="79" x="137" y="51"/><text fill="#000000" font-family="sans-serif" font-size="14" lengthAdjust="spacingAndGlyphs" textLength="65" x="144" y="72.9659">Other-MS</text><rect fill="#FEFECE" filter="url(#fkm3djql6beff)" height="33.0679" style="stroke: #A80036; stroke-width: 1.5;" width="79" x="137" y="436.1281"/><text fill="#000000" font-family="sans-serif" font-size="14" lengthAdjust="spacingAndGlyphs" textLength="65" x="144" y="458.094">Other-MS</text><rect fill="#FEFECE" filter="url(#fkm3djql6beff)" height="52.1358" style="stroke: #A80036; stroke-width: 1.5;" width="149" x="342" y="31.9321"/><text fill="#000000" font-family="sans-serif" font-size="14" lengthAdjust="spacingAndGlyphs" textLength="58" x="387.5" y="53.898">Auth-MS</text><text fill="#000000" font-family="sans-serif" font-size="14" lengthAdjust="spacingAndGlyphs" textLength="135" x="349" y="72.9659">(MicroserviceGuard)</text><rect fill="#FEFECE" filter="url(#fkm3djql6beff)" height="52.1358" style="stroke: #A80036; stroke-width: 1.5;" width="149" x="342" y="436.1281"/><text fill="#000000" font-family="sans-serif" font-size="14" lengthAdjust="spacingAndGlyphs" textLength="58" x="387.5" y="458.094">Auth-MS</text><text fill="#000000" font-family="sans-serif" font-size="14" lengthAdjust="spacingAndGlyphs" textLength="135" x="349" y="477.1619">(MicroserviceGuard)</text><text fill="#000000" font-family="sans-serif" font-size="14" lengthAdjust="spacingAndGlyphs" textLength="37" x="579" y="84.9659">Redis</text><path d="M582.5,34 C582.5,24 600.5,24 600.5,24 C600.5,24 618.5,24 618.5,34 L618.5,60 C618.5,70 600.5,70 600.5,70 C600.5,70 582.5,70 582.5,60 L582.5,34 " fill="#FEFECE" filter="url(#fkm3djql6beff)" style="stroke: #000000; stroke-width: 1.5;"/><path d="M582.5,34 C582.5,44 600.5,44 600.5,44 C600.5,44 618.5,44 618.5,34 " fill="none" style="stroke: #000000; stroke-width: 1.5;"/><text fill="#000000" font-family="sans-serif" font-size="14" lengthAdjust="spacingAndGlyphs" textLength="37" x="579" y="451.094">Redis</text><path d="M582.5,465.196 C582.5,455.196 600.5,455.196 600.5,455.196 C600.5,455.196 618.5,455.196 618.5,465.196 L618.5,491.196 C618.5,501.196 600.5,501.196 600.5,501.196 C600.5,501.196 582.5,501.196 582.5,491.196 L582.5,465.196 " fill="#FEFECE" filter="url(#fkm3djql6beff)" style="stroke: #000000; stroke-width: 1.5;"/><path d="M582.5,465.196 C582.5,475.196 600.5,475.196 600.5,475.196 C600.5,475.196 618.5,475.196 618.5,465.196 " fill="none" style="stroke: #000000; stroke-width: 1.5;"/><rect fill="#FFFFFF" filter="url(#fkm3djql6beff)" height="278.6481" style="stroke: #A80036; stroke-width: 1.0;" width="10" x="173.5" y="140.4799"/><rect fill="#FFFFFF" filter="url(#fkm3djql6beff)" height="152.8241" style="stroke: #A80036; stroke-width: 1.0;" width="10" x="413.5" y="234.598"/><polygon fill="#A80036" points="161.5,136.4799,171.5,140.4799,161.5,144.4799,165.5,140.4799" style="stroke: #A80036; stroke-width: 1.0;"/><line style="stroke: #A80036; stroke-width: 2.0;" x1="38.5" x2="167.5" y1="140.4799" y2="140.4799"/><text fill="#000000" font-family="sans-serif" font-size="13" lengthAdjust="spacingAndGlyphs" textLength="49" x="45.5" y="116.9649">Request</text><text fill="#000000" font-family="sans-serif" font-size="13" lengthAdjust="spacingAndGlyphs" textLength="116" x="45.5" y="134.6709">Cookie: auth_token</text><line style="stroke: #A80036; stroke-width: 2.0;" x1="183.5" x2="225.5" y1="172.186" y2="172.186"/><line style="stroke: #A80036; stroke-width: 2.0;" x1="225.5" x2="225.5" y1="172.186" y2="185.186"/><line style="stroke: #A80036; stroke-width: 2.0;" x1="184.5" x2="225.5" y1="185.186" y2="185.186"/><polygon fill="#A80036" points="194.5,181.186,184.5,185.186,194.5,189.186,190.5,185.186" style="stroke: #A80036; stroke-width: 1.0;"/><text fill="#000000" font-family="sans-serif" font-size="13" lengthAdjust="spacingAndGlyphs" textLength="154" x="190.5" y="166.377">Extract token from cookie</text><polygon fill="#A80036" points="401.5,230.598,411.5,234.598,401.5,238.598,405.5,234.598" style="stroke: #A80036; stroke-width: 1.0;"/><line style="stroke: #A80036; stroke-width: 2.0;" x1="183.5" x2="407.5" y1="234.598" y2="234.598"/><text fill="#000000" font-family="sans-serif" font-size="13" lengthAdjust="spacingAndGlyphs" textLength="142" x="190.5" y="211.083">x-api-key: &lt;service_key&gt;</text><text fill="#000000" font-family="sans-serif" font-size="13" lengthAdjust="spacingAndGlyphs" textLength="211" x="190.5" y="228.789">Authorization: Bearer &lt;user_token&gt;</text><line style="stroke: #A80036; stroke-width: 2.0;" x1="423.5" x2="465.5" y1="266.304" y2="266.304"/><line style="stroke: #A80036; stroke-width: 2.0;" x1="465.5" x2="465.5" y1="266.304" y2="279.304"/><line style="stroke: #A80036; stroke-width: 2.0;" x1="424.5" x2="465.5" y1="279.304" y2="279.304"/><polygon fill="#A80036" points="434.5,275.304,424.5,279.304,434.5,283.304,430.5,279.304" style="stroke: #A80036; stroke-width: 1.0;"/><text fill="#000000" font-family="sans-serif" font-size="13" lengthAdjust="spacingAndGlyphs" textLength="158" x="430.5" y="260.495">1. Validate API key (bcrypt)</text><line style="stroke: #A80036; stroke-width: 2.0;" x1="423.5" x2="465.5" y1="311.01" y2="311.01"/><line style="stroke: #A80036; stroke-width: 2.0;" x1="465.5" x2="465.5" y1="311.01" y2="324.01"/><line style="stroke: #A80036; stroke-width: 2.0;" x1="424.5" x2="465.5" y1="324.01" y2="324.01"/><polygon fill="#A80036" points="434.5,320.01,424.5,324.01,434.5,328.01,430.5,324.01" style="stroke: #A80036; stroke-width: 1.0;"/><text fill="#000000" font-family="sans-serif" font-size="13" lengthAdjust="spacingAndGlyphs" textLength="129" x="430.5" y="305.201">2. Validate Bearer JWT</text><polygon fill="#A80036" points="588.5,351.716,598.5,355.716,588.5,359.716,592.5,355.716" style="stroke: #A80036; stroke-width: 1.0;"/><line style="stroke: #A80036; stroke-width: 2.0;" x1="423.5" x2="594.5" y1="355.716" y2="355.716"/><text fill="#000000" font-family="sans-serif" font-size="13" lengthAdjust="spacingAndGlyphs" textLength="77" x="430.5" y="349.907">Load session</text><polygon fill="#A80036" points="194.5,383.4221,184.5,387.4221,194.5,391.4221,190.5,387.4221" style="stroke: #A80036; stroke-width: 1.0;"/><line style="stroke: #A80036; stroke-width: 2.0; stroke-dasharray: 2.0,2.0;" x1="188.5" x2="417.5" y1="387.4221" y2="387.4221"/><text fill="#000000" font-family="sans-serif" font-size="13" lengthAdjust="spacingAndGlyphs" textLength="191" x="200.5" y="381.6131">{id, email, person_id, session_id}</text><polygon fill="#A80036" points="49.5,415.1281,39.5,419.1281,49.5,423.1281,45.5,419.1281" style="stroke: #A80036; stroke-width: 1.0;"/><line style="stroke: #A80036; stroke-width: 2.0; stroke-dasharray: 2.0,2.0;" x1="43.5" x2="177.5" y1="419.1281" y2="419.1281"/><text fill="#000000" font-family="sans-serif" font-size="13" lengthAdjust="spacingAndGlyphs" textLength="58" x="55.5" y="413.3191">Response</text><!--MD5=[04188812429e83ebf50301b6ea0b774e]
@startuml README Inter-Service Auth
skinparam backgroundColor white
skinparam sequenceArrowThickness 2

actor Browser as browser
participant "Other-MS" as other
participant "Auth-MS\n(MicroserviceGuard)" as auth
database "Redis" as redis

browser -> other : Request\nCookie: auth_token
activate other

other -> other : Extract token from cookie

other -> auth : x-api-key: <service_key>\nAuthorization: Bearer <user_token>
activate auth
auth -> auth : 1. Validate API key (bcrypt)
auth -> auth : 2. Validate Bearer JWT
auth -> redis : Load session
auth - -> other : {id, email, person_id, session_id}
deactivate auth

other - -> browser : Response
deactivate other
@enduml

PlantUML version 1.2020.02(Sun Mar 01 07:22:07 ART 2020)
(GPL source distribution)
Java Runtime: OpenJDK Runtime Environment
JVM: OpenJDK 64-Bit Server VM
Java Version: 21.0.11-ea+5-[Ubuntu-1]
Operating System: Linux
Default Encoding: UTF-8
Language: en
Country: US
--></g></svg>