<svg xmlns="http://www.w3.org/2000/svg" xmlns:xlink="http://www.w3.org/1999/xlink" contentStyleType="text/css" data-diagram-type="SEQUENCE" height="515px" preserveAspectRatio="none" style="width:703px;height:515px;background:#FFFFFF;" version="1.1" viewBox="0 0 703 515" width="703px" zoomAndPan="magnify"><defs/><g><g><title>Other-MS</title><rect fill="#FFFFFF" height="278.6481" style="stroke:#181818;stroke-width:1;" width="10" x="171.5" y="135.4799"/></g><g><title>Auth-MS</title><rect fill="#FFFFFF" height="152.8241" style="stroke:#181818;stroke-width:1;" width="10" x="417.3662" y="229.598"/></g><g><title>Browser</title><rect fill="#000000" fill-opacity="0.00000" height="348.0602" width="8" x="31.3699" y="84.0679"/><line style="stroke:#181818;stroke-width:0.5;stroke-dasharray:5,5;" x1="35" x2="35" y1="84.0679" y2="432.1281"/></g><g><title>Other-MS</title><rect fill="#000000" fill-opacity="0.00000" height="348.0602" width="8" x="172.5" y="84.0679"/><line style="stroke:#181818;stroke-width:0.5;stroke-dasharray:5,5;" x1="175.8951" x2="175.8951" y1="84.0679" y2="432.1281"/></g><g><title>Auth-MS</title><rect fill="#000000" fill-opacity="0.00000" height="348.0602" width="8" x="418.3662" y="84.0679"/><line style="stroke:#181818;stroke-width:0.5;stroke-dasharray:5,5;" x1="422.1184" x2="422.1184" y1="84.0679" y2="432.1281"/></g><g><title>Redis</title><rect fill="#000000" fill-opacity="0.00000" height="348.0602" width="8" x="664.7214" y="84.0679"/><line style="stroke:#181818;stroke-width:0.5;stroke-dasharray:5,5;" x1="667.9554" x2="667.9554" y1="84.0679" y2="432.1281"/></g><g class="participant participant-head" data-participant="browser"><text fill="#000000" font-family="sans-serif" font-size="14" lengthAdjust="spacing" textLength="54.7398" x="5" y="79.9659">Browser</text><ellipse cx="35.3699" cy="13.5" fill="#E2E2F0" rx="8" ry="8" style="stroke:#181818;stroke-width:0.5;"/><path d="M35.3699,21.5 L35.3699,48.5 M22.3699,29.5 L48.3699,29.5 M35.3699,48.5 L22.3699,63.5 M35.3699,48.5 L48.3699,63.5" fill="none" style="stroke:#181818;stroke-width:0.5;"/></g><g class="participant participant-tail" data-participant="browser"><text fill="#000000" font-family="sans-serif" font-size="14" lengthAdjust="spacing" textLength="54.7398" x="5" y="446.094">Browser</text><ellipse cx="35.3699" cy="458.696" fill="#E2E2F0" rx="8" ry="8" style="stroke:#181818;stroke-width:0.5;"/><path d="M35.3699,466.696 L35.3699,493.696 M22.3699,474.696 L48.3699,474.696 M35.3699,493.696 L22.3699,508.696 M35.3699,493.696 L48.3699,508.696" fill="none" style="stroke:#181818;stroke-width:0.5;"/></g><g class="participant participant-head" data-participant="other"><rect fill="#E2E2F0" height="33.0679" rx="2.5" ry="2.5" style="stroke:#181818;stroke-width:0.5;" width="77.2098" x="137.8951" y="50"/><text fill="#000000" font-family="sans-serif" font-size="14" lengthAdjust="spacing" textLength="63.2098" x="144.8951" y="71.9659">Other-MS</text></g><g class="participant participant-tail" data-participant="other"><rect fill="#E2E2F0" height="33.0679" rx="2.5" ry="2.5" style="stroke:#181818;stroke-width:0.5;" width="77.2098" x="137.8951" y="431.1281"/><text fill="#000000" font-family="sans-serif" font-size="14" lengthAdjust="spacing" textLength="63.2098" x="144.8951" y="453.094">Other-MS</text></g><g class="participant participant-head" data-participant="auth"><rect fill="#E2E2F0" height="52.1358" rx="2.5" ry="2.5" style="stroke:#181818;stroke-width:0.5;" width="146.4955" x="349.1184" y="30.9321"/><text fill="#000000" font-family="sans-serif" font-size="14" lengthAdjust="spacing" textLength="56.1958" x="394.2683" y="52.898">Auth-MS</text><text fill="#000000" font-family="sans-serif" font-size="14" lengthAdjust="spacing" textLength="132.4955" x="356.1184" y="71.9659">(MicroserviceGuard)</text></g><g class="participant participant-tail" data-participant="auth"><rect fill="#E2E2F0" height="52.1358" rx="2.5" ry="2.5" style="stroke:#181818;stroke-width:0.5;" width="146.4955" x="349.1184" y="431.1281"/><text fill="#000000" font-family="sans-serif" font-size="14" lengthAdjust="spacing" textLength="56.1958" x="394.2683" y="453.094">Auth-MS</text><text fill="#000000" font-family="sans-serif" font-size="14" lengthAdjust="spacing" textLength="132.4955" x="356.1184" y="472.1619">(MicroserviceGuard)</text></g><g class="participant participant-head" data-participant="redis"><text fill="#000000" font-family="sans-serif" font-size="14" lengthAdjust="spacing" textLength="35.5319" x="647.9554" y="79.9659">Redis</text><path d="M650.7214,29 C650.7214,19 668.7214,19 668.7214,19 C668.7214,19 686.7214,19 686.7214,29 L686.7214,55 C686.7214,65 668.7214,65 668.7214,65 C668.7214,65 650.7214,65 650.7214,55 L650.7214,29" fill="#E2E2F0" style="stroke:#181818;stroke-width:0.5;"/><path d="M650.7214,29 C650.7214,39 668.7214,39 668.7214,39 C668.7214,39 686.7214,39 686.7214,29" fill="none" style="stroke:#181818;stroke-width:0.5;"/></g><g class="participant participant-tail" data-participant="redis"><text fill="#000000" font-family="sans-serif" font-size="14" lengthAdjust="spacing" textLength="35.5319" x="647.9554" y="446.094">Redis</text><path d="M650.7214,460.196 C650.7214,450.196 668.7214,450.196 668.7214,450.196 C668.7214,450.196 686.7214,450.196 686.7214,460.196 L686.7214,486.196 C686.7214,496.196 668.7214,496.196 668.7214,496.196 C668.7214,496.196 650.7214,496.196 650.7214,486.196 L650.7214,460.196" fill="#E2E2F0" style="stroke:#181818;stroke-width:0.5;"/><path d="M650.7214,460.196 C650.7214,470.196 668.7214,470.196 668.7214,470.196 C668.7214,470.196 686.7214,470.196 686.7214,460.196" fill="none" style="stroke:#181818;stroke-width:0.5;"/></g><g><title>Other-MS</title><rect fill="#FFFFFF" height="278.6481" style="stroke:#181818;stroke-width:1;" width="10" x="171.5" y="135.4799"/></g><g><title>Auth-MS</title><rect fill="#FFFFFF" height="152.8241" style="stroke:#181818;stroke-width:1;" width="10" x="417.3662" y="229.598"/></g><g class="message" data-participant-1="browser" data-participant-2="other"><polygon fill="#181818" points="159.5,131.4799,169.5,135.4799,159.5,139.4799,163.5,135.4799" style="stroke:#181818;stroke-width:1;"/><line style="stroke:#181818;stroke-width:2;" x1="35.3699" x2="165.5" y1="135.4799" y2="135.4799"/><text fill="#000000" font-family="sans-serif" font-size="13" lengthAdjust="spacing" textLength="49.6991" x="42.3699" y="111.9649">Request</text><text fill="#000000" font-family="sans-serif" font-size="13" lengthAdjust="spacing" textLength="117.1301" x="42.3699" y="129.6709">Cookie: auth_token</text></g><g class="message" data-participant-1="other" data-participant-2="other"><line style="stroke:#181818;stroke-width:2;" x1="181.5" x2="223.5" y1="167.186" y2="167.186"/><line style="stroke:#181818;stroke-width:2;" x1="223.5" x2="223.5" y1="167.186" y2="180.186"/><line style="stroke:#181818;stroke-width:2;" x1="182.5" x2="223.5" y1="180.186" y2="180.186"/><polygon fill="#181818" points="192.5,176.186,182.5,180.186,192.5,184.186,188.5,180.186" style="stroke:#181818;stroke-width:1;"/><text fill="#000000" font-family="sans-serif" font-size="13" lengthAdjust="spacing" textLength="156.8581" x="188.5" y="161.377">Extract token from cookie</text></g><g class="message" data-participant-1="other" data-participant-2="auth"><polygon fill="#181818" points="405.3662,225.598,415.3662,229.598,405.3662,233.598,409.3662,229.598" style="stroke:#181818;stroke-width:1;"/><line style="stroke:#181818;stroke-width:2;" x1="181.5" x2="411.3662" y1="229.598" y2="229.598"/><text fill="#000000" font-family="sans-serif" font-size="13" lengthAdjust="spacing" textLength="145.6651" x="188.5" y="206.083">x-api-key: &lt;service_key&gt;</text><text fill="#000000" font-family="sans-serif" font-size="13" lengthAdjust="spacing" textLength="216.8662" x="188.5" y="223.789">Authorization: Bearer &lt;user_token&gt;</text></g><g class="message" data-participant-1="auth" data-participant-2="auth"><line style="stroke:#181818;stroke-width:2;" x1="427.3662" x2="469.3662" y1="261.304" y2="261.304"/><line style="stroke:#181818;stroke-width:2;" x1="469.3662" x2="469.3662" y1="261.304" y2="274.304"/><line style="stroke:#181818;stroke-width:2;" x1="428.3662" x2="469.3662" y1="274.304" y2="274.304"/><polygon fill="#181818" points="438.3662,270.304,428.3662,274.304,438.3662,278.304,434.3662,274.304" style="stroke:#181818;stroke-width:1;"/><text fill="#000000" font-family="sans-serif" font-size="13" lengthAdjust="spacing" textLength="212.3552" x="434.3662" y="255.495">1. Validate API key (HMAC-SHA256)</text></g><g class="message" data-participant-1="auth" data-participant-2="auth"><line style="stroke:#181818;stroke-width:2;" x1="427.3662" x2="469.3662" y1="306.01" y2="306.01"/><line style="stroke:#181818;stroke-width:2;" x1="469.3662" x2="469.3662" y1="306.01" y2="319.01"/><line style="stroke:#181818;stroke-width:2;" x1="428.3662" x2="469.3662" y1="319.01" y2="319.01"/><polygon fill="#181818" points="438.3662,315.01,428.3662,319.01,438.3662,323.01,434.3662,319.01" style="stroke:#181818;stroke-width:1;"/><text fill="#000000" font-family="sans-serif" font-size="13" lengthAdjust="spacing" textLength="134.1861" x="434.3662" y="300.201">2. Validate Bearer JWT</text></g><g class="message" data-participant-1="auth" data-participant-2="redis"><polygon fill="#181818" points="656.7214,346.716,666.7214,350.716,656.7214,354.716,660.7214,350.716" style="stroke:#181818;stroke-width:1;"/><line style="stroke:#181818;stroke-width:2;" x1="427.3662" x2="662.7214" y1="350.716" y2="350.716"/><text fill="#000000" font-family="sans-serif" font-size="13" lengthAdjust="spacing" textLength="78.6111" x="434.3662" y="344.907">Load session</text></g><g class="message" data-participant-1="auth" data-participant-2="other"><polygon fill="#181818" points="192.5,378.4221,182.5,382.4221,192.5,386.4221,188.5,382.4221" style="stroke:#181818;stroke-width:1;"/><line style="stroke:#181818;stroke-width:2;stroke-dasharray:2,2;" x1="186.5" x2="421.3662" y1="382.4221" y2="382.4221"/><text fill="#000000" font-family="sans-serif" font-size="13" lengthAdjust="spacing" textLength="197.6392" x="198.5" y="376.6131">{id, email, person_id, session_id}</text></g><g class="message" data-participant-1="other" data-participant-2="browser"><polygon fill="#181818" points="46.3699,410.1281,36.3699,414.1281,46.3699,418.1281,42.3699,414.1281" style="stroke:#181818;stroke-width:1;"/><line style="stroke:#181818;stroke-width:2;stroke-dasharray:2,2;" x1="40.3699" x2="175.5" y1="414.1281" y2="414.1281"/><text fill="#000000" font-family="sans-serif" font-size="13" lengthAdjust="spacing" textLength="59.0981" x="52.3699" y="408.3191">Response</text></g><!--SRC=[NP51Jm8n48Nl_HKJJf2m9fBeWH2IXHZHI3H0z492XjtHRHRQjUq2QlplJhiBBDwcdU-zlfdQNAe23MvXZKd-ONIfqh7UQ0FxJ3eIzjItz5cIIYWsHkyNcKnoHTP2JmXC7FCZlhPa02sigrAmqCb45gWSj9vTHYQQpbkUqFvmsOzBbt5xgTfJcHZD-frCwBv4atQ21XaGAJfSeoLepIYLDZIChuIeNuLeMDb37sO-itLBDTOwbzGF7YkdSr8-jToXepgBg3GDyTt16OOWuF1kz1QIODDWlH-ZXmWB6UNqrOT17Np5f-5I-QcqaT_ef5Pz614QLWvAfgeSmtEGC61mF3jVNy4hRcJg-_7B0x0hj2VJU1pD9t7lvhRpNz1h2EhN7jyM9ohiYh4dZIb_gRKSgsusHl-HQHTeYtBJXOACrMhbRsgUwr-HqcNkuqxOvVWHVl-sqCfIamxS7m00]--></g></svg>