<?xml version="1.0" encoding="UTF-8" standalone="no"?><svg xmlns="http://www.w3.org/2000/svg" xmlns:xlink="http://www.w3.org/1999/xlink" contentScriptType="application/ecmascript" contentStyleType="text/css" height="347px" preserveAspectRatio="none" style="width:424px;height:347px;" version="1.1" viewBox="0 0 424 347" width="424px" zoomAndPan="magnify"><defs><filter height="300%" id="f9ae561gqyy2a" width="300%" x="-1" y="-1"><feGaussianBlur result="blurOut" stdDeviation="2.0"/><feColorMatrix in="blurOut" result="blurOut2" type="matrix" values="0 0 0 0 0 0 0 0 0 0 0 0 0 0 0 0 0 0 .4 0"/><feOffset dx="4.0" dy="4.0" in="blurOut2" result="blurOut3"/><feBlend in="SourceGraphic" in2="blurOut3" mode="normal"/></filter></defs><g><rect fill="#FFFFFF" filter="url(#f9ae561gqyy2a)" height="98.8241" style="stroke: #A80036; stroke-width: 1.0;" width="10" x="226.5" y="140.4799"/><line style="stroke: #A80036; stroke-width: 1.0; stroke-dasharray: 5.0,5.0;" x1="38" x2="38" y1="89.0679" y2="257.304"/><line style="stroke: #A80036; stroke-width: 1.0; stroke-dasharray: 5.0,5.0;" x1="231.5" x2="231.5" y1="89.0679" y2="257.304"/><line style="stroke: #A80036; stroke-width: 1.0; stroke-dasharray: 5.0,5.0;" x1="394" x2="394" y1="89.0679" y2="257.304"/><text fill="#000000" font-family="sans-serif" font-size="14" lengthAdjust="spacingAndGlyphs" textLength="55" x="8" y="84.9659">Browser</text><ellipse cx="38.5" cy="13" fill="#FEFECE" filter="url(#f9ae561gqyy2a)" rx="8" ry="8" style="stroke: #A80036; stroke-width: 2.0;"/><path d="M38.5,21 L38.5,48 M25.5,29 L51.5,29 M38.5,48 L25.5,63 M38.5,48 L51.5,63 " fill="none" filter="url(#f9ae561gqyy2a)" style="stroke: #A80036; stroke-width: 2.0;"/><text fill="#000000" font-family="sans-serif" font-size="14" lengthAdjust="spacingAndGlyphs" textLength="55" x="8" y="271.27">Browser</text><ellipse cx="38.5" cy="285.3719" fill="#FEFECE" filter="url(#f9ae561gqyy2a)" rx="8" ry="8" style="stroke: #A80036; stroke-width: 2.0;"/><path d="M38.5,293.3719 L38.5,320.3719 M25.5,301.3719 L51.5,301.3719 M38.5,320.3719 L25.5,335.3719 M38.5,320.3719 L51.5,335.3719 " fill="none" filter="url(#f9ae561gqyy2a)" style="stroke: #A80036; stroke-width: 2.0;"/><rect fill="#FEFECE" filter="url(#f9ae561gqyy2a)" height="33.0679" style="stroke: #A80036; stroke-width: 1.5;" width="72" x="193.5" y="51"/><text fill="#000000" font-family="sans-serif" font-size="14" lengthAdjust="spacingAndGlyphs" textLength="58" x="200.5" y="72.9659">Auth-MS</text><rect fill="#FEFECE" filter="url(#f9ae561gqyy2a)" height="33.0679" style="stroke: #A80036; stroke-width: 1.5;" width="72" x="193.5" y="256.304"/><text fill="#000000" font-family="sans-serif" font-size="14" lengthAdjust="spacingAndGlyphs" textLength="58" x="200.5" y="278.27">Auth-MS</text><text fill="#000000" font-family="sans-serif" font-size="14" lengthAdjust="spacingAndGlyphs" textLength="37" x="373" y="84.9659">Redis</text><path d="M376.5,34 C376.5,24 394.5,24 394.5,24 C394.5,24 412.5,24 412.5,34 L412.5,60 C412.5,70 394.5,70 394.5,70 C394.5,70 376.5,70 376.5,60 L376.5,34 " fill="#FEFECE" filter="url(#f9ae561gqyy2a)" style="stroke: #000000; stroke-width: 1.5;"/><path d="M376.5,34 C376.5,44 394.5,44 394.5,44 C394.5,44 412.5,44 412.5,34 " fill="none" style="stroke: #000000; stroke-width: 1.5;"/><text fill="#000000" font-family="sans-serif" font-size="14" lengthAdjust="spacingAndGlyphs" textLength="37" x="373" y="271.27">Redis</text><path d="M376.5,285.3719 C376.5,275.3719 394.5,275.3719 394.5,275.3719 C394.5,275.3719 412.5,275.3719 412.5,285.3719 L412.5,311.3719 C412.5,321.3719 394.5,321.3719 394.5,321.3719 C394.5,321.3719 376.5,321.3719 376.5,311.3719 L376.5,285.3719 " fill="#FEFECE" filter="url(#f9ae561gqyy2a)" style="stroke: #000000; stroke-width: 1.5;"/><path d="M376.5,285.3719 C376.5,295.3719 394.5,295.3719 394.5,295.3719 C394.5,295.3719 412.5,295.3719 412.5,285.3719 " fill="none" style="stroke: #000000; stroke-width: 1.5;"/><rect fill="#FFFFFF" filter="url(#f9ae561gqyy2a)" height="98.8241" style="stroke: #A80036; stroke-width: 1.0;" width="10" x="226.5" y="140.4799"/><polygon fill="#A80036" points="214.5,136.4799,224.5,140.4799,214.5,144.4799,218.5,140.4799" style="stroke: #A80036; stroke-width: 1.0;"/><line style="stroke: #A80036; stroke-width: 2.0;" x1="38.5" x2="220.5" y1="140.4799" y2="140.4799"/><text fill="#000000" font-family="sans-serif" font-size="13" lengthAdjust="spacingAndGlyphs" textLength="117" x="45.5" y="116.9649">POST /users/logout</text><text fill="#000000" font-family="sans-serif" font-size="13" lengthAdjust="spacingAndGlyphs" textLength="116" x="45.5" y="134.6709">Cookie: auth_token</text><polygon fill="#A80036" points="382.5,168.186,392.5,172.186,382.5,176.186,386.5,172.186" style="stroke: #A80036; stroke-width: 1.0;"/><line style="stroke: #A80036; stroke-width: 2.0;" x1="236.5" x2="388.5" y1="172.186" y2="172.186"/><text fill="#000000" font-family="sans-serif" font-size="13" lengthAdjust="spacingAndGlyphs" textLength="134" x="243.5" y="166.377">DEL auth_session:{sid}</text><polygon fill="#A80036" points="49.5,235.304,39.5,239.304,49.5,243.304,45.5,239.304" style="stroke: #A80036; stroke-width: 1.0;"/><line style="stroke: #A80036; stroke-width: 2.0; stroke-dasharray: 2.0,2.0;" x1="43.5" x2="230.5" y1="239.304" y2="239.304"/><text fill="#000000" font-family="sans-serif" font-size="13" lengthAdjust="spacingAndGlyphs" textLength="150" x="55.5" y="198.083">Clear-Cookie: auth_token</text><text fill="#000000" font-family="sans-serif" font-size="13" lengthAdjust="spacingAndGlyphs" textLength="164" x="55.5" y="215.789">Clear-Cookie: refresh_token</text><text fill="#000000" font-family="sans-serif" font-size="13" lengthAdjust="spacingAndGlyphs" textLength="149" x="55.5" y="233.495">{message: "Logged out"}</text><!--MD5=[a68b611095108c308b3cd0aad2332f35]
@startuml README Logout Flow
skinparam backgroundColor white
skinparam sequenceArrowThickness 2

actor Browser as browser
participant "Auth-MS" as auth
database "Redis" as redis

browser -> auth : POST /users/logout\nCookie: auth_token
activate auth
auth -> redis : DEL auth_session:{sid}
auth - -> browser : Clear-Cookie: auth_token\nClear-Cookie: refresh_token\n{message: "Logged out"}
deactivate auth
@enduml

PlantUML version 1.2020.02(Sun Mar 01 07:22:07 ART 2020)
(GPL source distribution)
Java Runtime: OpenJDK Runtime Environment
JVM: OpenJDK 64-Bit Server VM
Java Version: 21.0.11-ea+5-[Ubuntu-1]
Operating System: Linux
Default Encoding: UTF-8
Language: en
Country: US
--></g></svg>