<?xml version="1.0" encoding="UTF-8" standalone="no"?><svg xmlns="http://www.w3.org/2000/svg" xmlns:xlink="http://www.w3.org/1999/xlink" contentScriptType="application/ecmascript" contentStyleType="text/css" height="454px" preserveAspectRatio="none" style="width:767px;height:454px;" version="1.1" viewBox="0 0 767 454" width="767px" zoomAndPan="magnify"><defs><filter height="300%" id="f1iszr30wf6l00" width="300%" x="-1" y="-1"><feGaussianBlur result="blurOut" stdDeviation="2.0"/><feColorMatrix in="blurOut" result="blurOut2" type="matrix" values="0 0 0 0 0 0 0 0 0 0 0 0 0 0 0 0 0 0 .4 0"/><feOffset dx="4.0" dy="4.0" in="blurOut2" result="blurOut3"/><feBlend in="SourceGraphic" in2="blurOut3" mode="normal"/></filter></defs><g><rect fill="#FFFFFF" filter="url(#f1iszr30wf6l00)" height="205.9421" style="stroke: #A80036; stroke-width: 1.0;" width="10" x="525.5" y="140.4799"/><line style="stroke: #A80036; stroke-width: 1.0; stroke-dasharray: 5.0,5.0;" x1="38" x2="38" y1="89.0679" y2="364.4221"/><line style="stroke: #A80036; stroke-width: 1.0; stroke-dasharray: 5.0,5.0;" x1="530.5" x2="530.5" y1="89.0679" y2="364.4221"/><line style="stroke: #A80036; stroke-width: 1.0; stroke-dasharray: 5.0,5.0;" x1="737" x2="737" y1="89.0679" y2="364.4221"/><text fill="#000000" font-family="sans-serif" font-size="14" lengthAdjust="spacingAndGlyphs" textLength="55" x="8" y="84.9659">Browser</text><ellipse cx="38.5" cy="13" fill="#FEFECE" filter="url(#f1iszr30wf6l00)" rx="8" ry="8" style="stroke: #A80036; stroke-width: 2.0;"/><path d="M38.5,21 L38.5,48 M25.5,29 L51.5,29 M38.5,48 L25.5,63 M38.5,48 L51.5,63 " fill="none" filter="url(#f1iszr30wf6l00)" style="stroke: #A80036; stroke-width: 2.0;"/><text fill="#000000" font-family="sans-serif" font-size="14" lengthAdjust="spacingAndGlyphs" textLength="55" x="8" y="378.388">Browser</text><ellipse cx="38.5" cy="392.49" fill="#FEFECE" filter="url(#f1iszr30wf6l00)" rx="8" ry="8" style="stroke: #A80036; stroke-width: 2.0;"/><path d="M38.5,400.49 L38.5,427.49 M25.5,408.49 L51.5,408.49 M38.5,427.49 L25.5,442.49 M38.5,427.49 L51.5,442.49 " fill="none" filter="url(#f1iszr30wf6l00)" style="stroke: #A80036; stroke-width: 2.0;"/><rect fill="#FEFECE" filter="url(#f1iszr30wf6l00)" height="33.0679" style="stroke: #A80036; stroke-width: 1.5;" width="72" x="492.5" y="51"/><text fill="#000000" font-family="sans-serif" font-size="14" lengthAdjust="spacingAndGlyphs" textLength="58" x="499.5" y="72.9659">Auth-MS</text><rect fill="#FEFECE" filter="url(#f1iszr30wf6l00)" height="33.0679" style="stroke: #A80036; stroke-width: 1.5;" width="72" x="492.5" y="363.4221"/><text fill="#000000" font-family="sans-serif" font-size="14" lengthAdjust="spacingAndGlyphs" textLength="58" x="499.5" y="385.388">Auth-MS</text><text fill="#000000" font-family="sans-serif" font-size="14" lengthAdjust="spacingAndGlyphs" textLength="37" x="716" y="84.9659">Redis</text><path d="M719.5,34 C719.5,24 737.5,24 737.5,24 C737.5,24 755.5,24 755.5,34 L755.5,60 C755.5,70 737.5,70 737.5,70 C737.5,70 719.5,70 719.5,60 L719.5,34 " fill="#FEFECE" filter="url(#f1iszr30wf6l00)" style="stroke: #000000; stroke-width: 1.5;"/><path d="M719.5,34 C719.5,44 737.5,44 737.5,44 C737.5,44 755.5,44 755.5,34 " fill="none" style="stroke: #000000; stroke-width: 1.5;"/><text fill="#000000" font-family="sans-serif" font-size="14" lengthAdjust="spacingAndGlyphs" textLength="37" x="716" y="378.388">Redis</text><path d="M719.5,392.49 C719.5,382.49 737.5,382.49 737.5,382.49 C737.5,382.49 755.5,382.49 755.5,392.49 L755.5,418.49 C755.5,428.49 737.5,428.49 737.5,428.49 C737.5,428.49 719.5,428.49 719.5,418.49 L719.5,392.49 " fill="#FEFECE" filter="url(#f1iszr30wf6l00)" style="stroke: #000000; stroke-width: 1.5;"/><path d="M719.5,392.49 C719.5,402.49 737.5,402.49 737.5,402.49 C737.5,402.49 755.5,402.49 755.5,392.49 " fill="none" style="stroke: #000000; stroke-width: 1.5;"/><rect fill="#FFFFFF" filter="url(#f1iszr30wf6l00)" height="205.9421" style="stroke: #A80036; stroke-width: 1.0;" width="10" x="525.5" y="140.4799"/><polygon fill="#A80036" points="513.5,136.4799,523.5,140.4799,513.5,144.4799,517.5,140.4799" style="stroke: #A80036; stroke-width: 1.0;"/><line style="stroke: #A80036; stroke-width: 2.0;" x1="38.5" x2="519.5" y1="140.4799" y2="140.4799"/><text fill="#000000" font-family="sans-serif" font-size="13" lengthAdjust="spacingAndGlyphs" textLength="107" x="45.5" y="116.9649">POST /users/login</text><text fill="#000000" font-family="sans-serif" font-size="13" lengthAdjust="spacingAndGlyphs" textLength="106" x="45.5" y="134.6709">{email, password}</text><line style="stroke: #A80036; stroke-width: 2.0;" x1="535.5" x2="577.5" y1="172.186" y2="172.186"/><line style="stroke: #A80036; stroke-width: 2.0;" x1="577.5" x2="577.5" y1="172.186" y2="185.186"/><line style="stroke: #A80036; stroke-width: 2.0;" x1="536.5" x2="577.5" y1="185.186" y2="185.186"/><polygon fill="#A80036" points="546.5,181.186,536.5,185.186,546.5,189.186,542.5,185.186" style="stroke: #A80036; stroke-width: 1.0;"/><text fill="#000000" font-family="sans-serif" font-size="13" lengthAdjust="spacingAndGlyphs" textLength="166" x="542.5" y="166.377">Validate credentials (bcrypt)</text><polygon fill="#A80036" points="725.5,230.598,735.5,234.598,725.5,238.598,729.5,234.598" style="stroke: #A80036; stroke-width: 1.0;"/><line style="stroke: #A80036; stroke-width: 2.0;" x1="535.5" x2="731.5" y1="234.598" y2="234.598"/><text fill="#000000" font-family="sans-serif" font-size="13" lengthAdjust="spacingAndGlyphs" textLength="86" x="542.5" y="211.083">Create session</text><text fill="#000000" font-family="sans-serif" font-size="13" lengthAdjust="spacingAndGlyphs" textLength="132" x="542.5" y="228.789">SET auth_session:{sid}</text><line style="stroke: #A80036; stroke-width: 2.0;" x1="535.5" x2="577.5" y1="266.304" y2="266.304"/><line style="stroke: #A80036; stroke-width: 2.0;" x1="577.5" x2="577.5" y1="266.304" y2="279.304"/><line style="stroke: #A80036; stroke-width: 2.0;" x1="536.5" x2="577.5" y1="279.304" y2="279.304"/><polygon fill="#A80036" points="546.5,275.304,536.5,279.304,546.5,283.304,542.5,279.304" style="stroke: #A80036; stroke-width: 1.0;"/><text fill="#000000" font-family="sans-serif" font-size="13" lengthAdjust="spacingAndGlyphs" textLength="183" x="542.5" y="260.495">Generate access + refresh JWTs</text><polygon fill="#A80036" points="49.5,342.4221,39.5,346.4221,49.5,350.4221,45.5,346.4221" style="stroke: #A80036; stroke-width: 1.0;"/><line style="stroke: #A80036; stroke-width: 2.0; stroke-dasharray: 2.0,2.0;" x1="43.5" x2="529.5" y1="346.4221" y2="346.4221"/><text fill="#000000" font-family="sans-serif" font-size="13" lengthAdjust="spacingAndGlyphs" textLength="331" x="55.5" y="305.201">Set-Cookie: auth_token (httpOnly, secure, strict, path=/)</text><text fill="#000000" font-family="sans-serif" font-size="13" lengthAdjust="spacingAndGlyphs" textLength="463" x="55.5" y="322.907">Set-Cookie: refresh_token (httpOnly, secure, strict, path=/users/refresh-token)</text><text fill="#000000" font-family="sans-serif" font-size="13" lengthAdjust="spacingAndGlyphs" textLength="176" x="55.5" y="340.6131">{message: "Login successful"}</text><!--MD5=[b27ec51dcedf06618585402d1bfdfeb1]
@startuml README Login Flow
skinparam backgroundColor white
skinparam sequenceArrowThickness 2

actor Browser as browser
participant "Auth-MS" as auth
database "Redis" as redis

browser -> auth : POST /users/login\n{email, password}
activate auth

auth -> auth : Validate credentials (bcrypt)
auth -> redis : Create session\nSET auth_session:{sid}
auth -> auth : Generate access + refresh JWTs
auth - -> browser : Set-Cookie: auth_token (httpOnly, secure, strict, path=/)\nSet-Cookie: refresh_token (httpOnly, secure, strict, path=/users/refresh-token)\n{message: "Login successful"}
deactivate auth
@enduml

PlantUML version 1.2020.02(Sun Mar 01 07:22:07 ART 2020)
(GPL source distribution)
Java Runtime: OpenJDK Runtime Environment
JVM: OpenJDK 64-Bit Server VM
Java Version: 21.0.11-ea+5-[Ubuntu-1]
Operating System: Linux
Default Encoding: UTF-8
Language: en
Country: US
--></g></svg>