<?xml version="1.0" encoding="UTF-8" standalone="no"?><svg xmlns="http://www.w3.org/2000/svg" xmlns:xlink="http://www.w3.org/1999/xlink" contentScriptType="application/ecmascript" contentStyleType="text/css" height="958px" preserveAspectRatio="none" style="width:1290px;height:958px;" version="1.1" viewBox="0 0 1290 958" width="1290px" zoomAndPan="magnify"><defs><filter height="300%" id="f1pwghin6a903j" width="300%" x="-1" y="-1"><feGaussianBlur result="blurOut" stdDeviation="2.0"/><feColorMatrix in="blurOut" result="blurOut2" type="matrix" values="0 0 0 0 0 0 0 0 0 0 0 0 0 0 0 0 0 0 .4 0"/><feOffset dx="4.0" dy="4.0" in="blurOut2" result="blurOut3"/><feBlend in="SourceGraphic" in2="blurOut3" mode="normal"/></filter></defs><g><rect fill="#FFFFFF" filter="url(#f1pwghin6a903j)" height="632.4143" style="stroke: #A80036; stroke-width: 1.0;" width="10" x="268" y="140.4799"/><rect fill="#FFFFFF" filter="url(#f1pwghin6a903j)" height="569.0023" style="stroke: #A80036; stroke-width: 1.0;" width="10" x="540" y="172.186"/><rect fill="#FFFFFF" filter="url(#f1pwghin6a903j)" height="459.8842" style="stroke: #A80036; stroke-width: 1.0;" width="10" x="812" y="267.304"/><rect fill="#FFFFFF" filter="url(#f1pwghin6a903j)" height="14" style="stroke: #A80036; stroke-width: 1.0;" width="10" x="1039" y="221.598"/><rect fill="#FFFFFF" filter="url(#f1pwghin6a903j)" height="31.706" style="stroke: #A80036; stroke-width: 1.0;" width="10" x="1039" y="316.716"/><rect fill="#FFFFFF" filter="url(#f1pwghin6a903j)" height="31.706" style="stroke: #A80036; stroke-width: 1.0;" width="10" x="1112" y="469.2461"/><rect fill="#FFFFFF" filter="url(#f1pwghin6a903j)" height="31.706" style="stroke: #A80036; stroke-width: 1.0;" width="10" x="1112" y="559.3642"/><rect fill="#FFFFFF" filter="url(#f1pwghin6a903j)" height="14" style="stroke: #A80036; stroke-width: 1.0;" width="10" x="1112" y="685.1882"/><rect fill="#FFFFFF" filter="url(#f1pwghin6a903j)" height="350.7662" style="stroke: #000000; stroke-width: 2.0;" width="423.5" x="735" y="363.4221"/><rect fill="#FFFFFF" filter="url(#f1pwghin6a903j)" height="191.2361" style="stroke: #000000; stroke-width: 2.0;" width="403.5" x="745" y="515.9521"/><line style="stroke: #A80036; stroke-width: 1.0; stroke-dasharray: 5.0,5.0;" x1="33" x2="33" y1="89.0679" y2="868.0123"/><line style="stroke: #A80036; stroke-width: 1.0; stroke-dasharray: 5.0,5.0;" x1="272.5" x2="272.5" y1="89.0679" y2="868.0123"/><line style="stroke: #A80036; stroke-width: 1.0; stroke-dasharray: 5.0,5.0;" x1="545" x2="545" y1="89.0679" y2="868.0123"/><line style="stroke: #A80036; stroke-width: 1.0; stroke-dasharray: 5.0,5.0;" x1="817" x2="817" y1="89.0679" y2="868.0123"/><line style="stroke: #A80036; stroke-width: 1.0; stroke-dasharray: 5.0,5.0;" x1="1043.5" x2="1043.5" y1="89.0679" y2="868.0123"/><line style="stroke: #A80036; stroke-width: 1.0; stroke-dasharray: 5.0,5.0;" x1="1116.5" x2="1116.5" y1="89.0679" y2="868.0123"/><text fill="#000000" font-family="sans-serif" font-size="14" lengthAdjust="spacingAndGlyphs" textLength="44" x="8" y="84.9659">Admin</text><ellipse cx="33" cy="13" fill="#FEFECE" filter="url(#f1pwghin6a903j)" rx="8" ry="8" style="stroke: #A80036; stroke-width: 2.0;"/><path d="M33,21 L33,48 M20,29 L46,29 M33,48 L20,63 M33,48 L46,63 " fill="none" filter="url(#f1pwghin6a903j)" style="stroke: #A80036; stroke-width: 2.0;"/><text fill="#000000" font-family="sans-serif" font-size="14" lengthAdjust="spacingAndGlyphs" textLength="44" x="8" y="881.9782">Admin</text><ellipse cx="33" cy="896.0802" fill="#FEFECE" filter="url(#f1pwghin6a903j)" rx="8" ry="8" style="stroke: #A80036; stroke-width: 2.0;"/><path d="M33,904.0802 L33,931.0802 M20,912.0802 L46,912.0802 M33,931.0802 L20,946.0802 M33,931.0802 L46,946.0802 " fill="none" filter="url(#f1pwghin6a903j)" style="stroke: #A80036; stroke-width: 2.0;"/><rect fill="#FEFECE" filter="url(#f1pwghin6a903j)" height="33.0679" style="stroke: #A80036; stroke-width: 1.5;" width="117" x="212.5" y="51"/><text fill="#000000" font-family="sans-serif" font-size="14" lengthAdjust="spacingAndGlyphs" textLength="103" x="219.5" y="72.9659">RolesController</text><rect fill="#FEFECE" filter="url(#f1pwghin6a903j)" height="33.0679" style="stroke: #A80036; stroke-width: 1.5;" width="117" x="212.5" y="867.0123"/><text fill="#000000" font-family="sans-serif" font-size="14" lengthAdjust="spacingAndGlyphs" textLength="103" x="219.5" y="888.9782">RolesController</text><rect fill="#FEFECE" filter="url(#f1pwghin6a903j)" height="33.0679" style="stroke: #A80036; stroke-width: 1.5;" width="98" x="494" y="51"/><text fill="#000000" font-family="sans-serif" font-size="14" lengthAdjust="spacingAndGlyphs" textLength="84" x="501" y="72.9659">RolesService</text><rect fill="#FEFECE" filter="url(#f1pwghin6a903j)" height="33.0679" style="stroke: #A80036; stroke-width: 1.5;" width="98" x="494" y="867.0123"/><text fill="#000000" font-family="sans-serif" font-size="14" lengthAdjust="spacingAndGlyphs" textLength="84" x="501" y="888.9782">RolesService</text><rect fill="#FEFECE" filter="url(#f1pwghin6a903j)" height="33.0679" style="stroke: #A80036; stroke-width: 1.5;" width="120" x="755" y="51"/><text fill="#000000" font-family="sans-serif" font-size="14" lengthAdjust="spacingAndGlyphs" textLength="106" x="762" y="72.9659">SessionsService</text><rect fill="#FEFECE" filter="url(#f1pwghin6a903j)" height="33.0679" style="stroke: #A80036; stroke-width: 1.5;" width="120" x="755" y="867.0123"/><text fill="#000000" font-family="sans-serif" font-size="14" lengthAdjust="spacingAndGlyphs" textLength="106" x="762" y="888.9782">SessionsService</text><text fill="#000000" font-family="sans-serif" font-size="14" lengthAdjust="spacingAndGlyphs" textLength="77" x="1002.5" y="84.9659">PostgreSQL</text><path d="M1026,34 C1026,24 1044,24 1044,24 C1044,24 1062,24 1062,34 L1062,60 C1062,70 1044,70 1044,70 C1044,70 1026,70 1026,60 L1026,34 " fill="#FEFECE" filter="url(#f1pwghin6a903j)" style="stroke: #000000; stroke-width: 1.5;"/><path d="M1026,34 C1026,44 1044,44 1044,44 C1044,44 1062,44 1062,34 " fill="none" style="stroke: #000000; stroke-width: 1.5;"/><text fill="#000000" font-family="sans-serif" font-size="14" lengthAdjust="spacingAndGlyphs" textLength="77" x="1002.5" y="881.9782">PostgreSQL</text><path d="M1026,896.0802 C1026,886.0802 1044,886.0802 1044,886.0802 C1044,886.0802 1062,886.0802 1062,896.0802 L1062,922.0802 C1062,932.0802 1044,932.0802 1044,932.0802 C1044,932.0802 1026,932.0802 1026,922.0802 L1026,896.0802 " fill="#FEFECE" filter="url(#f1pwghin6a903j)" style="stroke: #000000; stroke-width: 1.5;"/><path d="M1026,896.0802 C1026,906.0802 1044,906.0802 1044,906.0802 C1044,906.0802 1062,906.0802 1062,896.0802 " fill="none" style="stroke: #000000; stroke-width: 1.5;"/><text fill="#000000" font-family="sans-serif" font-size="14" lengthAdjust="spacingAndGlyphs" textLength="37" x="1095.5" y="84.9659">Redis</text><path d="M1099,34 C1099,24 1117,24 1117,24 C1117,24 1135,24 1135,34 L1135,60 C1135,70 1117,70 1117,70 C1117,70 1099,70 1099,60 L1099,34 " fill="#FEFECE" filter="url(#f1pwghin6a903j)" style="stroke: #000000; stroke-width: 1.5;"/><path d="M1099,34 C1099,44 1117,44 1117,44 C1117,44 1135,44 1135,34 " fill="none" style="stroke: #000000; stroke-width: 1.5;"/><text fill="#000000" font-family="sans-serif" font-size="14" lengthAdjust="spacingAndGlyphs" textLength="37" x="1095.5" y="881.9782">Redis</text><path d="M1099,896.0802 C1099,886.0802 1117,886.0802 1117,886.0802 C1117,886.0802 1135,886.0802 1135,896.0802 L1135,922.0802 C1135,932.0802 1117,932.0802 1117,932.0802 C1117,932.0802 1099,932.0802 1099,922.0802 L1099,896.0802 " fill="#FEFECE" filter="url(#f1pwghin6a903j)" style="stroke: #000000; stroke-width: 1.5;"/><path d="M1099,896.0802 C1099,906.0802 1117,906.0802 1117,906.0802 C1117,906.0802 1135,906.0802 1135,896.0802 " fill="none" style="stroke: #000000; stroke-width: 1.5;"/><rect fill="#FFFFFF" filter="url(#f1pwghin6a903j)" height="632.4143" style="stroke: #A80036; stroke-width: 1.0;" width="10" x="268" y="140.4799"/><rect fill="#FFFFFF" filter="url(#f1pwghin6a903j)" height="569.0023" style="stroke: #A80036; stroke-width: 1.0;" width="10" x="540" y="172.186"/><rect fill="#FFFFFF" filter="url(#f1pwghin6a903j)" height="459.8842" style="stroke: #A80036; stroke-width: 1.0;" width="10" x="812" y="267.304"/><rect fill="#FFFFFF" filter="url(#f1pwghin6a903j)" height="14" style="stroke: #A80036; stroke-width: 1.0;" width="10" x="1039" y="221.598"/><rect fill="#FFFFFF" filter="url(#f1pwghin6a903j)" height="31.706" style="stroke: #A80036; stroke-width: 1.0;" width="10" x="1039" y="316.716"/><rect fill="#FFFFFF" filter="url(#f1pwghin6a903j)" height="31.706" style="stroke: #A80036; stroke-width: 1.0;" width="10" x="1112" y="469.2461"/><rect fill="#FFFFFF" filter="url(#f1pwghin6a903j)" height="31.706" style="stroke: #A80036; stroke-width: 1.0;" width="10" x="1112" y="559.3642"/><rect fill="#FFFFFF" filter="url(#f1pwghin6a903j)" height="14" style="stroke: #A80036; stroke-width: 1.0;" width="10" x="1112" y="685.1882"/><polygon fill="#A80036" points="256,136.4799,266,140.4799,256,144.4799,260,140.4799" style="stroke: #A80036; stroke-width: 1.0;"/><line style="stroke: #A80036; stroke-width: 2.0;" x1="33" x2="262" y1="140.4799" y2="140.4799"/><text fill="#000000" font-family="sans-serif" font-size="13" lengthAdjust="spacingAndGlyphs" textLength="216" x="40" y="116.9649">PATCH /roles/assign-permissions/:id</text><text fill="#000000" font-family="sans-serif" font-size="13" lengthAdjust="spacingAndGlyphs" textLength="94" x="40" y="134.6709">{permissionIds}</text><polygon fill="#A80036" points="528,168.186,538,172.186,528,176.186,532,172.186" style="stroke: #A80036; stroke-width: 1.0;"/><line style="stroke: #A80036; stroke-width: 2.0;" x1="278" x2="534" y1="172.186" y2="172.186"/><text fill="#000000" font-family="sans-serif" font-size="13" lengthAdjust="spacingAndGlyphs" textLength="243" x="285" y="166.377">assignPermissions(roleId, permissionIds)</text><polygon fill="#A80036" points="1027,217.598,1037,221.598,1027,225.598,1031,221.598" style="stroke: #A80036; stroke-width: 1.0;"/><line style="stroke: #A80036; stroke-width: 2.0;" x1="550" x2="1033" y1="221.598" y2="221.598"/><text fill="#000000" font-family="sans-serif" font-size="13" lengthAdjust="spacingAndGlyphs" textLength="141" x="557" y="198.083">Update role-permission</text><text fill="#000000" font-family="sans-serif" font-size="13" lengthAdjust="spacingAndGlyphs" textLength="73" x="557" y="215.789">associations</text><polygon fill="#A80036" points="561,231.598,551,235.598,561,239.598,557,235.598" style="stroke: #A80036; stroke-width: 1.0;"/><line style="stroke: #A80036; stroke-width: 2.0; stroke-dasharray: 2.0,2.0;" x1="555" x2="1043" y1="235.598" y2="235.598"/><polygon fill="#A80036" points="800,263.304,810,267.304,800,271.304,804,267.304" style="stroke: #A80036; stroke-width: 1.0;"/><line style="stroke: #A80036; stroke-width: 2.0;" x1="550" x2="806" y1="267.304" y2="267.304"/><text fill="#000000" font-family="sans-serif" font-size="13" lengthAdjust="spacingAndGlyphs" textLength="243" x="557" y="261.495">refreshSessionPermissionsByRole(roleId)</text><polygon fill="#A80036" points="1027,312.716,1037,316.716,1027,320.716,1031,316.716" style="stroke: #A80036; stroke-width: 1.0;"/><line style="stroke: #A80036; stroke-width: 2.0;" x1="822" x2="1033" y1="316.716" y2="316.716"/><text fill="#000000" font-family="sans-serif" font-size="13" lengthAdjust="spacingAndGlyphs" textLength="77" x="829" y="293.201">Find all users</text><text fill="#000000" font-family="sans-serif" font-size="13" lengthAdjust="spacingAndGlyphs" textLength="77" x="829" y="310.907">with this role</text><polygon fill="#A80036" points="833,344.4221,823,348.4221,833,352.4221,829,348.4221" style="stroke: #A80036; stroke-width: 1.0;"/><line style="stroke: #A80036; stroke-width: 2.0; stroke-dasharray: 2.0,2.0;" x1="827" x2="1043" y1="348.4221" y2="348.4221"/><text fill="#000000" font-family="sans-serif" font-size="13" lengthAdjust="spacingAndGlyphs" textLength="193" x="839" y="342.6131">User[] (with roles &amp; permissions)</text><path d="M735,363.4221 L808,363.4221 L808,372.4221 L798,382.4221 L735,382.4221 L735,363.4221 " fill="#EEEEEE" style="stroke: #000000; stroke-width: 1.0;"/><rect fill="none" height="350.7662" style="stroke: #000000; stroke-width: 2.0;" width="423.5" x="735" y="363.4221"/><text fill="#000000" font-family="sans-serif" font-size="13" font-weight="bold" lengthAdjust="spacingAndGlyphs" textLength="28" x="750" y="378.3191">loop</text><text fill="#000000" font-family="sans-serif" font-size="11" font-weight="bold" lengthAdjust="spacingAndGlyphs" textLength="131" x="823" y="377.181">[for each affected user]</text><line style="stroke: #A80036; stroke-width: 2.0;" x1="822" x2="864" y1="424.5401" y2="424.5401"/><line style="stroke: #A80036; stroke-width: 2.0;" x1="864" x2="864" y1="424.5401" y2="437.5401"/><line style="stroke: #A80036; stroke-width: 2.0;" x1="823" x2="864" y1="437.5401" y2="437.5401"/><polygon fill="#A80036" points="833,433.5401,823,437.5401,833,441.5401,829,437.5401" style="stroke: #A80036; stroke-width: 1.0;"/><text fill="#000000" font-family="sans-serif" font-size="13" lengthAdjust="spacingAndGlyphs" textLength="67" x="829" y="401.0251">Resolve full</text><text fill="#000000" font-family="sans-serif" font-size="13" lengthAdjust="spacingAndGlyphs" textLength="111" x="829" y="418.7311">permissionCodes[]</text><polygon fill="#A80036" points="1100,465.2461,1110,469.2461,1100,473.2461,1104,469.2461" style="stroke: #A80036; stroke-width: 1.0;"/><line style="stroke: #A80036; stroke-width: 2.0;" x1="822" x2="1106" y1="469.2461" y2="469.2461"/><text fill="#000000" font-family="sans-serif" font-size="13" lengthAdjust="spacingAndGlyphs" textLength="204" x="829" y="463.4371">SMEMBERS user_sessions:{userId}</text><polygon fill="#A80036" points="833,496.9521,823,500.9521,833,504.9521,829,500.9521" style="stroke: #A80036; stroke-width: 1.0;"/><line style="stroke: #A80036; stroke-width: 2.0; stroke-dasharray: 2.0,2.0;" x1="827" x2="1116" y1="500.9521" y2="500.9521"/><text fill="#000000" font-family="sans-serif" font-size="13" lengthAdjust="spacingAndGlyphs" textLength="77" x="839" y="495.1431">[sid1, sid2, ...]</text><path d="M745,515.9521 L818,515.9521 L818,524.9521 L808,534.9521 L745,534.9521 L745,515.9521 " fill="#EEEEEE" style="stroke: #000000; stroke-width: 1.0;"/><rect fill="none" height="191.2361" style="stroke: #000000; stroke-width: 2.0;" width="403.5" x="745" y="515.9521"/><text fill="#000000" font-family="sans-serif" font-size="13" font-weight="bold" lengthAdjust="spacingAndGlyphs" textLength="28" x="760" y="530.8492">loop</text><text fill="#000000" font-family="sans-serif" font-size="11" font-weight="bold" lengthAdjust="spacingAndGlyphs" textLength="133" x="833" y="529.7111">[for each active session]</text><polygon fill="#A80036" points="1100,555.3642,1110,559.3642,1100,563.3642,1104,559.3642" style="stroke: #A80036; stroke-width: 1.0;"/><line style="stroke: #A80036; stroke-width: 2.0;" x1="822" x2="1106" y1="559.3642" y2="559.3642"/><text fill="#000000" font-family="sans-serif" font-size="13" lengthAdjust="spacingAndGlyphs" textLength="134" x="829" y="553.5552">GET auth_session:{sid}</text><polygon fill="#A80036" points="833,587.0702,823,591.0702,833,595.0702,829,591.0702" style="stroke: #A80036; stroke-width: 1.0;"/><line style="stroke: #A80036; stroke-width: 2.0; stroke-dasharray: 2.0,2.0;" x1="827" x2="1116" y1="591.0702" y2="591.0702"/><text fill="#000000" font-family="sans-serif" font-size="13" lengthAdjust="spacingAndGlyphs" textLength="78" x="839" y="585.2612">session JSON</text><line style="stroke: #A80036; stroke-width: 2.0;" x1="822" x2="864" y1="622.7762" y2="622.7762"/><line style="stroke: #A80036; stroke-width: 2.0;" x1="864" x2="864" y1="622.7762" y2="635.7762"/><line style="stroke: #A80036; stroke-width: 2.0;" x1="823" x2="864" y1="635.7762" y2="635.7762"/><polygon fill="#A80036" points="833,631.7762,823,635.7762,833,639.7762,829,635.7762" style="stroke: #A80036; stroke-width: 1.0;"/><text fill="#000000" font-family="sans-serif" font-size="13" lengthAdjust="spacingAndGlyphs" textLength="167" x="829" y="616.9672">Update session.permissions</text><polygon fill="#A80036" points="1100,681.1882,1110,685.1882,1100,689.1882,1104,685.1882" style="stroke: #A80036; stroke-width: 1.0;"/><line style="stroke: #A80036; stroke-width: 2.0;" x1="822" x2="1106" y1="685.1882" y2="685.1882"/><text fill="#000000" font-family="sans-serif" font-size="13" lengthAdjust="spacingAndGlyphs" textLength="132" x="829" y="661.6732">SET auth_session:{sid}</text><text fill="#000000" font-family="sans-serif" font-size="13" lengthAdjust="spacingAndGlyphs" textLength="59" x="829" y="679.3792">(KEEPTTL)</text><polygon fill="#A80036" points="833,695.1882,823,699.1882,833,703.1882,829,699.1882" style="stroke: #A80036; stroke-width: 1.0;"/><line style="stroke: #A80036; stroke-width: 2.0; stroke-dasharray: 2.0,2.0;" x1="827" x2="1116" y1="699.1882" y2="699.1882"/><polygon fill="#A80036" points="561,723.1882,551,727.1882,561,731.1882,557,727.1882" style="stroke: #A80036; stroke-width: 1.0;"/><line style="stroke: #A80036; stroke-width: 2.0; stroke-dasharray: 2.0,2.0;" x1="555" x2="816" y1="727.1882" y2="727.1882"/><polygon fill="#A80036" points="289,737.1882,279,741.1882,289,745.1882,285,741.1882" style="stroke: #A80036; stroke-width: 1.0;"/><line style="stroke: #A80036; stroke-width: 2.0; stroke-dasharray: 2.0,2.0;" x1="283" x2="544" y1="741.1882" y2="741.1882"/><polygon fill="#A80036" points="44,768.8943,34,772.8943,44,776.8943,40,772.8943" style="stroke: #A80036; stroke-width: 1.0;"/><line style="stroke: #A80036; stroke-width: 2.0; stroke-dasharray: 2.0,2.0;" x1="38" x2="272" y1="772.8943" y2="772.8943"/><text fill="#000000" font-family="sans-serif" font-size="13" lengthAdjust="spacingAndGlyphs" textLength="87" x="50" y="767.0853">{updated role}</text><path d="M1122,785.8943 L1122,848.8943 L1278,848.8943 L1278,795.8943 L1268,785.8943 L1122,785.8943 " fill="#FBFB77" filter="url(#f1pwghin6a903j)" style="stroke: #A80036; stroke-width: 1.0;"/><path d="M1268,785.8943 L1268,795.8943 L1278,795.8943 L1268,785.8943 " fill="#FBFB77" style="stroke: #A80036; stroke-width: 1.0;"/><text fill="#000000" font-family="sans-serif" font-size="13" lengthAdjust="spacingAndGlyphs" textLength="135" x="1128" y="804.7913">KEEPTTL preserves the</text><text fill="#000000" font-family="sans-serif" font-size="13" lengthAdjust="spacingAndGlyphs" textLength="135" x="1128" y="822.4973">original session expiry.</text><text fill="#000000" font-family="sans-serif" font-size="13" lengthAdjust="spacingAndGlyphs" textLength="124" x="1128" y="840.2033">No re-login required.</text><!--MD5=[9c19792148ecb1c3bd77773fe361504b]
@startuml Real-Time Permission Refresh
skinparam backgroundColor white
skinparam sequenceArrowThickness 2

actor Admin as admin
participant "RolesController" as ctrl
participant "RolesService" as roleSvc
participant "SessionsService" as sessSvc
database "PostgreSQL" as db
database "Redis" as redis

admin -> ctrl : PATCH /roles/assign-permissions/:id\n{permissionIds}
activate ctrl
ctrl -> roleSvc : assignPermissions(roleId, permissionIds)
activate roleSvc

roleSvc -> db : Update role-permission\nassociations
activate db
db - -> roleSvc
deactivate db

roleSvc -> sessSvc : refreshSessionPermissionsByRole(roleId)
activate sessSvc

sessSvc -> db : Find all users\nwith this role
activate db
db - -> sessSvc : User[] (with roles & permissions)
deactivate db

loop for each affected user
  sessSvc -> sessSvc : Resolve full\npermissionCodes[]

  sessSvc -> redis : SMEMBERS user_sessions:{userId}
  activate redis
  redis - -> sessSvc : [sid1, sid2, ...]
  deactivate redis

  loop for each active session
    sessSvc -> redis : GET auth_session:{sid}
    activate redis
    redis - -> sessSvc : session JSON
    deactivate redis

    sessSvc -> sessSvc : Update session.permissions

    sessSvc -> redis : SET auth_session:{sid}\n(KEEPTTL)
    activate redis
    redis - -> sessSvc
    deactivate redis
  end
end

sessSvc - -> roleSvc
deactivate sessSvc

roleSvc - -> ctrl
deactivate roleSvc

ctrl - -> admin : {updated role}
deactivate ctrl

note right of redis
  KEEPTTL preserves the
  original session expiry.
  No re-login required.
end note
@enduml

PlantUML version 1.2020.02(Sun Mar 01 07:22:07 ART 2020)
(GPL source distribution)
Java Runtime: OpenJDK Runtime Environment
JVM: OpenJDK 64-Bit Server VM
Java Version: 21.0.11-ea+5-[Ubuntu-1]
Operating System: Linux
Default Encoding: UTF-8
Language: en
Country: US
--></g></svg>