<?xml version="1.0" encoding="UTF-8" standalone="no"?><svg xmlns="http://www.w3.org/2000/svg" xmlns:xlink="http://www.w3.org/1999/xlink" contentScriptType="application/ecmascript" contentStyleType="text/css" height="1131px" preserveAspectRatio="none" style="width:1990px;height:1131px;" version="1.1" viewBox="0 0 1990 1131" width="1990px" zoomAndPan="magnify"><defs><filter height="300%" id="fw6iem3phfyz5" width="300%" x="-1" y="-1"><feGaussianBlur result="blurOut" stdDeviation="2.0"/><feColorMatrix in="blurOut" result="blurOut2" type="matrix" values="0 0 0 0 0 0 0 0 0 0 0 0 0 0 0 0 0 0 .4 0"/><feOffset dx="4.0" dy="4.0" in="blurOut2" result="blurOut3"/><feBlend in="SourceGraphic" in2="blurOut3" mode="normal"/></filter></defs><g><rect fill="#E0FFFF" height="1105.6777" style="stroke: #E0FFFF; stroke-width: 1.0;" width="256" x="10" y="13.774"/><ellipse cx="138.5" cy="53.2898" fill="#000000" filter="url(#fw6iem3phfyz5)" rx="10" ry="10" style="stroke: none; stroke-width: 1.0;"/><rect fill="#FEFECE" filter="url(#fw6iem3phfyz5)" height="52.6882" rx="12.5" ry="12.5" style="stroke: #A80036; stroke-width: 1.5;" width="222" x="27.5" y="83.2898"/><text fill="#000000" font-family="sans-serif" font-size="12" lengthAdjust="spacingAndGlyphs" textLength="10" x="37.5" y="106.1179">1.</text><text fill="#000000" font-family="sans-serif" font-size="12" font-weight="bold" lengthAdjust="spacingAndGlyphs" textLength="80" x="50.5" y="106.1179">cookie-parser</text><text fill="#000000" font-family="sans-serif" font-size="12" lengthAdjust="spacingAndGlyphs" textLength="202" x="37.5" y="122.462">Parse cookies from request headers</text><rect fill="#FEFECE" filter="url(#fw6iem3phfyz5)" height="52.6882" rx="12.5" ry="12.5" style="stroke: #A80036; stroke-width: 1.5;" width="237" x="20" y="155.978"/><text fill="#000000" font-family="sans-serif" font-size="12" lengthAdjust="spacingAndGlyphs" textLength="10" x="30" y="178.8061">2.</text><text fill="#000000" font-family="sans-serif" font-size="12" font-weight="bold" lengthAdjust="spacingAndGlyphs" textLength="33" x="43" y="178.8061">CORS</text><text fill="#000000" font-family="sans-serif" font-size="12" lengthAdjust="spacingAndGlyphs" textLength="217" x="30" y="195.1502">Validate origin, set credentials headers</text><rect fill="#FEFECE" filter="url(#fw6iem3phfyz5)" height="52.6882" rx="12.5" ry="12.5" style="stroke: #A80036; stroke-width: 1.5;" width="225" x="26" y="228.6663"/><text fill="#000000" font-family="sans-serif" font-size="12" lengthAdjust="spacingAndGlyphs" textLength="10" x="36" y="251.4944">3.</text><text fill="#000000" font-family="sans-serif" font-size="12" font-weight="bold" lengthAdjust="spacingAndGlyphs" textLength="167" x="49" y="251.4944">RequestContextMiddleware</text><text fill="#000000" font-family="sans-serif" font-size="12" lengthAdjust="spacingAndGlyphs" textLength="205" x="36" y="267.8385">Extract IP, user-agent, set request ID</text><rect fill="#90EE90" height="1105.6777" style="stroke: #90EE90; stroke-width: 1.0;" width="421" x="266" y="13.774"/><path d="M510,296.1396 L510,323.6986 L490,327.6986 L510,331.6986 L510,359.2576 A0,0 0 0 0 510,359.2576 L677,359.2576 A0,0 0 0 0 677,359.2576 L677,306.1396 L667,296.1396 L510,296.1396 A0,0 0 0 0 510,296.1396 " fill="#FBFB77" filter="url(#fw6iem3phfyz5)" style="stroke: #A80036; stroke-width: 1.0;"/><path d="M667,296.1396 L667,306.1396 L677,306.1396 L667,296.1396 " fill="#FBFB77" style="stroke: #A80036; stroke-width: 1.0;"/><text fill="#000000" font-family="sans-serif" font-size="13" lengthAdjust="spacingAndGlyphs" textLength="146" x="516" y="315.0366">Returns structured error</text><text fill="#000000" font-family="sans-serif" font-size="13" lengthAdjust="spacingAndGlyphs" textLength="109" x="516" y="332.7426">with errorCode on</text><text fill="#000000" font-family="sans-serif" font-size="13" lengthAdjust="spacingAndGlyphs" textLength="99" x="516" y="350.4486">validation failure</text><rect fill="#FEFECE" filter="url(#fw6iem3phfyz5)" height="52.6882" rx="12.5" ry="12.5" style="stroke: #A80036; stroke-width: 1.5;" width="214" x="276" y="301.3545"/><text fill="#000000" font-family="sans-serif" font-size="12" lengthAdjust="spacingAndGlyphs" textLength="10" x="286" y="324.1826">4.</text><text fill="#000000" font-family="sans-serif" font-size="12" font-weight="bold" lengthAdjust="spacingAndGlyphs" textLength="89" x="299" y="324.1826">ValidationPipe</text><text fill="#000000" font-family="sans-serif" font-size="12" lengthAdjust="spacingAndGlyphs" textLength="42" x="391" y="324.1826">(global)</text><text fill="#000000" font-family="sans-serif" font-size="12" lengthAdjust="spacingAndGlyphs" textLength="194" x="286" y="340.5267">class-validator + class-transformer</text><rect fill="#FFFFE0" height="1105.6777" style="stroke: #FFFFE0; stroke-width: 1.0;" width="508" x="687" y="13.774"/><rect fill="#FEFECE" filter="url(#fw6iem3phfyz5)" height="52.6882" rx="12.5" ry="12.5" style="stroke: #A80036; stroke-width: 1.5;" width="289" x="797" y="379.2576"/><text fill="#000000" font-family="sans-serif" font-size="12" lengthAdjust="spacingAndGlyphs" textLength="10" x="807" y="402.0857">5.</text><text fill="#000000" font-family="sans-serif" font-size="12" font-weight="bold" lengthAdjust="spacingAndGlyphs" textLength="37" x="820" y="402.0857">Guard</text><text fill="#000000" font-family="sans-serif" font-size="12" lengthAdjust="spacingAndGlyphs" textLength="269" x="807" y="418.4298">(AuthGuard / MicroserviceGuard / ApiKeyGuard)</text><line style="stroke: #A80036; stroke-width: 1.5;" x1="765" x2="1102.5" y1="451.9459" y2="451.9459"/><rect fill="#FEFECE" filter="url(#fw6iem3phfyz5)" height="36.3441" rx="12.5" ry="12.5" style="stroke: #A80036; stroke-width: 1.5;" width="136" x="697" y="488.29"/><text fill="#000000" font-family="sans-serif" font-size="12" lengthAdjust="spacingAndGlyphs" textLength="116" x="707" y="511.1181">Token/key extraction</text><rect fill="#FEFECE" filter="url(#fw6iem3phfyz5)" height="52.6882" rx="12.5" ry="12.5" style="stroke: #A80036; stroke-width: 1.5;" width="130" x="861" y="480.1179"/><text fill="#000000" font-family="sans-serif" font-size="12" lengthAdjust="spacingAndGlyphs" textLength="88" x="871" y="502.946">JWT validation +</text><text fill="#000000" font-family="sans-serif" font-size="12" lengthAdjust="spacingAndGlyphs" textLength="110" x="871" y="519.2901">Redis session check</text><rect fill="#FEFECE" filter="url(#fw6iem3phfyz5)" height="69.0323" rx="12.5" ry="12.5" style="stroke: #A80036; stroke-width: 1.5;" width="167" x="1019" y="471.9459"/><text fill="#000000" font-family="sans-serif" font-size="12" lengthAdjust="spacingAndGlyphs" textLength="93" x="1029" y="494.774">@EndpointKey →</text><text fill="#000000" font-family="sans-serif" font-size="12" lengthAdjust="spacingAndGlyphs" textLength="147" x="1029" y="511.1181">dynamic permission check</text><text fill="#000000" font-family="sans-serif" font-size="12" lengthAdjust="spacingAndGlyphs" textLength="117" x="1029" y="527.4622">(Redis → DB fallback)</text><line style="stroke: #A80036; stroke-width: 1.5;" x1="765" x2="1102.5" y1="560.9782" y2="560.9782"/><rect fill="#FEFECE" filter="url(#fw6iem3phfyz5)" height="36.3441" rx="12.5" ry="12.5" style="stroke: #A80036; stroke-width: 1.5;" width="182" x="850.5" y="580.9782"/><text fill="#000000" font-family="sans-serif" font-size="12" lengthAdjust="spacingAndGlyphs" textLength="162" x="860.5" y="603.8063">Sets request.user (AuthUser)</text><rect fill="#FFB6C1" height="1105.6777" style="stroke: #FFB6C1; stroke-width: 1.0;" width="231" x="1195" y="13.774"/><rect fill="#FEFECE" filter="url(#fw6iem3phfyz5)" height="52.6882" rx="12.5" ry="12.5" style="stroke: #A80036; stroke-width: 1.5;" width="172" x="1225" y="637.3223"/><text fill="#000000" font-family="sans-serif" font-size="12" lengthAdjust="spacingAndGlyphs" textLength="10" x="1235" y="660.1504">6.</text><text fill="#000000" font-family="sans-serif" font-size="12" font-weight="bold" lengthAdjust="spacingAndGlyphs" textLength="139" x="1248" y="660.1504">HttpMetricsInterceptor</text><text fill="#000000" font-family="sans-serif" font-size="12" lengthAdjust="spacingAndGlyphs" textLength="65" x="1235" y="676.4945">Start timing</text><rect fill="#FEFECE" filter="url(#fw6iem3phfyz5)" height="52.6882" rx="12.5" ry="12.5" style="stroke: #A80036; stroke-width: 1.5;" width="212" x="1205" y="782.6988"/><text fill="#000000" font-family="sans-serif" font-size="12" lengthAdjust="spacingAndGlyphs" textLength="10" x="1215" y="805.5269">8.</text><text fill="#000000" font-family="sans-serif" font-size="12" font-weight="bold" lengthAdjust="spacingAndGlyphs" textLength="155" x="1228" y="805.5269">ClassSerializerInterceptor</text><text fill="#000000" font-family="sans-serif" font-size="12" lengthAdjust="spacingAndGlyphs" textLength="192" x="1215" y="821.871">Entity serialization (where applied)</text><rect fill="#FEFECE" filter="url(#fw6iem3phfyz5)" height="52.6882" rx="12.5" ry="12.5" style="stroke: #A80036; stroke-width: 1.5;" width="186" x="1218" y="855.387"/><text fill="#000000" font-family="sans-serif" font-size="12" lengthAdjust="spacingAndGlyphs" textLength="129" x="1228" y="878.2151">HttpMetricsInterceptor</text><text fill="#000000" font-family="sans-serif" font-size="12" lengthAdjust="spacingAndGlyphs" textLength="166" x="1228" y="894.5592">Record duration + status code</text><rect fill="#ADD8E6" height="1105.6777" style="stroke: #ADD8E6; stroke-width: 1.0;" width="224" x="1426" y="13.774"/><rect fill="#FEFECE" filter="url(#fw6iem3phfyz5)" height="52.6882" rx="12.5" ry="12.5" style="stroke: #A80036; stroke-width: 1.5;" width="205" x="1436" y="710.0106"/><text fill="#000000" font-family="sans-serif" font-size="12" lengthAdjust="spacingAndGlyphs" textLength="10" x="1446" y="732.8386">7.</text><text fill="#000000" font-family="sans-serif" font-size="12" font-weight="bold" lengthAdjust="spacingAndGlyphs" textLength="172" x="1459" y="732.8386">Controller method execution</text><text fill="#000000" font-family="sans-serif" font-size="12" lengthAdjust="spacingAndGlyphs" textLength="149" x="1446" y="749.1828">Service → Repository → DB</text><rect fill="#FA8072" height="1105.6777" style="stroke: #FA8072; stroke-width: 1.0;" width="328" x="1650" y="13.774"/><polygon fill="#FEFECE" filter="url(#fw6iem3phfyz5)" points="1772.25,928.0752,1889.25,928.0752,1901.25,940.0752,1889.25,952.0752,1772.25,952.0752,1760.25,940.0752,1772.25,928.0752" style="stroke: #A80036; stroke-width: 1.5;"/><text fill="#000000" font-family="sans-serif" font-size="11" lengthAdjust="spacingAndGlyphs" textLength="117" x="1772.25" y="944.3432">Unhandled exception?</text><text fill="#000000" font-family="sans-serif" font-size="11" lengthAdjust="spacingAndGlyphs" textLength="17" x="1743.25" y="936.8523">yes</text><text fill="#000000" font-family="sans-serif" font-size="11" lengthAdjust="spacingAndGlyphs" textLength="14" x="1901.25" y="936.8523">no</text><rect fill="#FEFECE" filter="url(#fw6iem3phfyz5)" height="85.3765" rx="12.5" ry="12.5" style="stroke: #A80036; stroke-width: 1.5;" width="177" x="1660" y="962.0752"/><text fill="#000000" font-family="sans-serif" font-size="12" lengthAdjust="spacingAndGlyphs" textLength="10" x="1670" y="984.9033">9.</text><text fill="#000000" font-family="sans-serif" font-size="12" font-weight="bold" lengthAdjust="spacingAndGlyphs" textLength="113" x="1683" y="984.9033">AllExceptionsFilter</text><text fill="#000000" font-family="sans-serif" font-size="12" lengthAdjust="spacingAndGlyphs" textLength="128" x="1670" y="1001.2474">- Cause chain traversal</text><text fill="#000000" font-family="sans-serif" font-size="12" lengthAdjust="spacingAndGlyphs" textLength="157" x="1670" y="1017.5916">- Winston structured logging</text><text fill="#000000" font-family="sans-serif" font-size="12" lengthAdjust="spacingAndGlyphs" textLength="122" x="1670" y="1033.9357">- JSON error response</text><rect fill="#FEFECE" filter="url(#fw6iem3phfyz5)" height="36.3441" rx="12.5" ry="12.5" style="stroke: #A80036; stroke-width: 1.5;" width="112" x="1857" y="962.0752"/><text fill="#000000" font-family="sans-serif" font-size="12" lengthAdjust="spacingAndGlyphs" textLength="92" x="1867" y="984.9033">Return response</text><polygon fill="#FEFECE" filter="url(#fw6iem3phfyz5)" points="1830.75,1053.4517,1842.75,1065.4517,1830.75,1077.4517,1818.75,1065.4517,1830.75,1053.4517" style="stroke: #A80036; stroke-width: 1.5;"/><ellipse cx="1830.75" cy="1108.4517" fill="#FFFFFF" filter="url(#fw6iem3phfyz5)" rx="11" ry="11" style="stroke: #000000; stroke-width: 1.0;"/><ellipse cx="1830.75" cy="1108.4517" fill="#000000" rx="6" ry="6" style="stroke: #7F7F7F; stroke-width: 1.0;"/><line style="stroke: #A80036; stroke-width: 1.5;" x1="138.5" x2="138.5" y1="63.2898" y2="83.2898"/><polygon fill="#A80036" points="134.5,73.2898,138.5,83.2898,142.5,73.2898,138.5,77.2898" style="stroke: #A80036; stroke-width: 1.0;"/><line style="stroke: #A80036; stroke-width: 1.5;" x1="138.5" x2="138.5" y1="135.978" y2="155.978"/><polygon fill="#A80036" points="134.5,145.978,138.5,155.978,142.5,145.978,138.5,149.978" style="stroke: #A80036; stroke-width: 1.0;"/><line style="stroke: #A80036; stroke-width: 1.5;" x1="138.5" x2="138.5" y1="208.6663" y2="228.6663"/><polygon fill="#A80036" points="134.5,218.6663,138.5,228.6663,142.5,218.6663,138.5,222.6663" style="stroke: #A80036; stroke-width: 1.0;"/><line style="stroke: #A80036; stroke-width: 1.5;" x1="765" x2="765" y1="453.4459" y2="488.29"/><polygon fill="#A80036" points="761,478.29,765,488.29,769,478.29,765,482.29" style="stroke: #A80036; stroke-width: 1.0;"/><line style="stroke: #A80036; stroke-width: 1.5;" x1="926" x2="926" y1="453.4459" y2="480.1179"/><polygon fill="#A80036" points="922,470.1179,926,480.1179,930,470.1179,926,474.1179" style="stroke: #A80036; stroke-width: 1.0;"/><line style="stroke: #A80036; stroke-width: 1.5;" x1="1102.5" x2="1102.5" y1="453.4459" y2="471.9459"/><polygon fill="#A80036" points="1098.5,461.9459,1102.5,471.9459,1106.5,461.9459,1102.5,465.9459" style="stroke: #A80036; stroke-width: 1.0;"/><line style="stroke: #A80036; stroke-width: 1.5;" x1="765" x2="765" y1="524.6341" y2="560.9782"/><polygon fill="#A80036" points="761,550.9782,765,560.9782,769,550.9782,765,554.9782" style="stroke: #A80036; stroke-width: 1.0;"/><line style="stroke: #A80036; stroke-width: 1.5;" x1="926" x2="926" y1="532.8062" y2="560.9782"/><polygon fill="#A80036" points="922,550.9782,926,560.9782,930,550.9782,926,554.9782" style="stroke: #A80036; stroke-width: 1.0;"/><line style="stroke: #A80036; stroke-width: 1.5;" x1="1102.5" x2="1102.5" y1="540.9782" y2="560.9782"/><polygon fill="#A80036" points="1098.5,550.9782,1102.5,560.9782,1106.5,550.9782,1102.5,554.9782" style="stroke: #A80036; stroke-width: 1.0;"/><line style="stroke: #A80036; stroke-width: 1.5;" x1="941.5" x2="941.5" y1="431.9459" y2="451.9459"/><polygon fill="#A80036" points="937.5,441.9459,941.5,451.9459,945.5,441.9459,941.5,445.9459" style="stroke: #A80036; stroke-width: 1.0;"/><line style="stroke: #A80036; stroke-width: 1.5;" x1="941.5" x2="941.5" y1="562.4782" y2="580.9782"/><polygon fill="#A80036" points="937.5,570.9782,941.5,580.9782,945.5,570.9782,941.5,574.9782" style="stroke: #A80036; stroke-width: 1.0;"/><line style="stroke: #A80036; stroke-width: 1.5;" x1="1311" x2="1311" y1="835.387" y2="855.387"/><polygon fill="#A80036" points="1307,845.387,1311,855.387,1315,845.387,1311,849.387" style="stroke: #A80036; stroke-width: 1.0;"/><line style="stroke: #A80036; stroke-width: 1.5;" x1="1760.25" x2="1748.5" y1="940.0752" y2="940.0752"/><line style="stroke: #A80036; stroke-width: 1.5;" x1="1748.5" x2="1748.5" y1="940.0752" y2="962.0752"/><polygon fill="#A80036" points="1744.5,952.0752,1748.5,962.0752,1752.5,952.0752,1748.5,956.0752" style="stroke: #A80036; stroke-width: 1.0;"/><line style="stroke: #A80036; stroke-width: 1.5;" x1="1901.25" x2="1913" y1="940.0752" y2="940.0752"/><line style="stroke: #A80036; stroke-width: 1.5;" x1="1913" x2="1913" y1="940.0752" y2="962.0752"/><polygon fill="#A80036" points="1909,952.0752,1913,962.0752,1917,952.0752,1913,956.0752" style="stroke: #A80036; stroke-width: 1.0;"/><line style="stroke: #A80036; stroke-width: 1.5;" x1="1748.5" x2="1748.5" y1="1047.4517" y2="1065.4517"/><line style="stroke: #A80036; stroke-width: 1.5;" x1="1748.5" x2="1818.75" y1="1065.4517" y2="1065.4517"/><polygon fill="#A80036" points="1808.75,1061.4517,1818.75,1065.4517,1808.75,1069.4517,1812.75,1065.4517" style="stroke: #A80036; stroke-width: 1.0;"/><line style="stroke: #A80036; stroke-width: 1.5;" x1="1913" x2="1913" y1="998.4194" y2="1065.4517"/><line style="stroke: #A80036; stroke-width: 1.5;" x1="1913" x2="1842.75" y1="1065.4517" y2="1065.4517"/><polygon fill="#A80036" points="1852.75,1061.4517,1842.75,1065.4517,1852.75,1069.4517,1848.75,1065.4517" style="stroke: #A80036; stroke-width: 1.0;"/><line style="stroke: #A80036; stroke-width: 1.5;" x1="1830.75" x2="1830.75" y1="1077.4517" y2="1097.4517"/><polygon fill="#A80036" points="1826.75,1087.4517,1830.75,1097.4517,1834.75,1087.4517,1830.75,1091.4517" style="stroke: #A80036; stroke-width: 1.0;"/><line style="stroke: #A80036; stroke-width: 1.5;" x1="138.5" x2="138.5" y1="281.3545" y2="286.3545"/><line style="stroke: #A80036; stroke-width: 1.5;" x1="138.5" x2="383" y1="286.3545" y2="286.3545"/><line style="stroke: #A80036; stroke-width: 1.5;" x1="383" x2="383" y1="286.3545" y2="301.3545"/><polygon fill="#A80036" points="379,291.3545,383,301.3545,387,291.3545,383,295.3545" style="stroke: #A80036; stroke-width: 1.0;"/><line style="stroke: #A80036; stroke-width: 1.5;" x1="383" x2="383" y1="354.0427" y2="364.2576"/><line style="stroke: #A80036; stroke-width: 1.5;" x1="383" x2="941.5" y1="364.2576" y2="364.2576"/><line style="stroke: #A80036; stroke-width: 1.5;" x1="941.5" x2="941.5" y1="364.2576" y2="379.2576"/><polygon fill="#A80036" points="937.5,369.2576,941.5,379.2576,945.5,369.2576,941.5,373.2576" style="stroke: #A80036; stroke-width: 1.0;"/><line style="stroke: #A80036; stroke-width: 1.5;" x1="941.5" x2="941.5" y1="617.3223" y2="622.3223"/><line style="stroke: #A80036; stroke-width: 1.5;" x1="941.5" x2="1311" y1="622.3223" y2="622.3223"/><line style="stroke: #A80036; stroke-width: 1.5;" x1="1311" x2="1311" y1="622.3223" y2="637.3223"/><polygon fill="#A80036" points="1307,627.3223,1311,637.3223,1315,627.3223,1311,631.3223" style="stroke: #A80036; stroke-width: 1.0;"/><line style="stroke: #A80036; stroke-width: 1.5;" x1="1311" x2="1311" y1="690.0106" y2="695.0106"/><line style="stroke: #A80036; stroke-width: 1.5;" x1="1311" x2="1538.5" y1="695.0106" y2="695.0106"/><line style="stroke: #A80036; stroke-width: 1.5;" x1="1538.5" x2="1538.5" y1="695.0106" y2="710.0106"/><polygon fill="#A80036" points="1534.5,700.0106,1538.5,710.0106,1542.5,700.0106,1538.5,704.0106" style="stroke: #A80036; stroke-width: 1.0;"/><line style="stroke: #A80036; stroke-width: 1.5;" x1="1538.5" x2="1538.5" y1="762.6988" y2="767.6988"/><line style="stroke: #A80036; stroke-width: 1.5;" x1="1538.5" x2="1311" y1="767.6988" y2="767.6988"/><line style="stroke: #A80036; stroke-width: 1.5;" x1="1311" x2="1311" y1="767.6988" y2="782.6988"/><polygon fill="#A80036" points="1307,772.6988,1311,782.6988,1315,772.6988,1311,776.6988" style="stroke: #A80036; stroke-width: 1.0;"/><line style="stroke: #A80036; stroke-width: 1.5;" x1="1311" x2="1311" y1="908.0752" y2="913.0752"/><line style="stroke: #A80036; stroke-width: 1.5;" x1="1311" x2="1830.75" y1="913.0752" y2="913.0752"/><line style="stroke: #A80036; stroke-width: 1.5;" x1="1830.75" x2="1830.75" y1="913.0752" y2="928.0752"/><polygon fill="#A80036" points="1826.75,918.0752,1830.75,928.0752,1834.75,918.0752,1830.75,922.0752" style="stroke: #A80036; stroke-width: 1.0;"/><text fill="#000000" font-family="sans-serif" font-size="18" lengthAdjust="spacingAndGlyphs" textLength="99" x="88.5" y="33.0158">Middleware</text><text fill="#000000" font-family="sans-serif" font-size="18" lengthAdjust="spacingAndGlyphs" textLength="37" x="458" y="33.0158">Pipe</text><text fill="#000000" font-family="sans-serif" font-size="18" lengthAdjust="spacingAndGlyphs" textLength="52" x="915" y="33.0158">Guard</text><text fill="#000000" font-family="sans-serif" font-size="18" lengthAdjust="spacingAndGlyphs" textLength="96" x="1262.5" y="33.0158">Interceptor</text><text fill="#000000" font-family="sans-serif" font-size="18" lengthAdjust="spacingAndGlyphs" textLength="67" x="1504.5" y="33.0158">Handler</text><text fill="#000000" font-family="sans-serif" font-size="18" lengthAdjust="spacingAndGlyphs" textLength="43" x="1792.5" y="33.0158">Filter</text><line style="stroke: #000000; stroke-width: 2.0;" x1="10" x2="10" y1="13.774" y2="1119.4517"/><line style="stroke: #000000; stroke-width: 2.0;" x1="266" x2="266" y1="13.774" y2="1119.4517"/><line style="stroke: #000000; stroke-width: 2.0;" x1="687" x2="687" y1="13.774" y2="1119.4517"/><line style="stroke: #000000; stroke-width: 2.0;" x1="1195" x2="1195" y1="13.774" y2="1119.4517"/><line style="stroke: #000000; stroke-width: 2.0;" x1="1426" x2="1426" y1="13.774" y2="1119.4517"/><line style="stroke: #000000; stroke-width: 2.0;" x1="1650" x2="1650" y1="13.774" y2="1119.4517"/><line style="stroke: #000000; stroke-width: 2.0;" x1="1978" x2="1978" y1="13.774" y2="1119.4517"/><!--MD5=[9925974f0698664f9fcaf00a3a1ef83d]
@startuml Request Lifecycle Pipeline
skinparam backgroundColor white
skinparam activityArrowThickness 2

|#LightCyan|Middleware|
start
:1. **cookie-parser**
Parse cookies from request headers;

:2. **CORS**
Validate origin, set credentials headers;

:3. **RequestContextMiddleware**
Extract IP, user-agent, set request ID;

|#LightGreen|Pipe|
:4. **ValidationPipe** (global)
class-validator + class-transformer;

note right
  Returns structured error
  with errorCode on
  validation failure
end note

|#LightYellow|Guard|
:5. **Guard**
(AuthGuard / MicroserviceGuard / ApiKeyGuard);
split
  :Token/key extraction;
split again
  :JWT validation +
  Redis session check;
split again
  :@EndpointKey →
  dynamic permission check
  (Redis → DB fallback);
end split

:Sets request.user (AuthUser);

|#LightPink|Interceptor|
:6. **HttpMetricsInterceptor**
Start timing;

|#LightBlue|Handler|
:7. **Controller method execution**
Service → Repository → DB;

|#LightPink|Interceptor|
:8. **ClassSerializerInterceptor**
Entity serialization (where applied);

:HttpMetricsInterceptor
Record duration + status code;

|#Salmon|Filter|
if (Unhandled exception?) then (yes)
  :9. **AllExceptionsFilter**
  - Cause chain traversal
  - Winston structured logging
  - JSON error response;
else (no)
  :Return response;
endif

stop
@enduml

PlantUML version 1.2020.02(Sun Mar 01 07:22:07 ART 2020)
(GPL source distribution)
Java Runtime: OpenJDK Runtime Environment
JVM: OpenJDK 64-Bit Server VM
Java Version: 21.0.11-ea+5-[Ubuntu-1]
Operating System: Linux
Default Encoding: UTF-8
Language: en
Country: US
--></g></svg>