<?xml version="1.0" encoding="UTF-8" standalone="no"?><svg xmlns="http://www.w3.org/2000/svg" xmlns:xlink="http://www.w3.org/1999/xlink" contentScriptType="application/ecmascript" contentStyleType="text/css" height="662px" preserveAspectRatio="none" style="width:754px;height:662px;" version="1.1" viewBox="0 0 754 662" width="754px" zoomAndPan="magnify"><defs><filter height="300%" id="f10jeotfbm7znc" width="300%" x="-1" y="-1"><feGaussianBlur result="blurOut" stdDeviation="2.0"/><feColorMatrix in="blurOut" result="blurOut2" type="matrix" values="0 0 0 0 0 0 0 0 0 0 0 0 0 0 0 0 0 0 .4 0"/><feOffset dx="4.0" dy="4.0" in="blurOut2" result="blurOut3"/><feBlend in="SourceGraphic" in2="blurOut3" mode="normal"/></filter></defs><g><rect fill="#FFFFFF" filter="url(#f10jeotfbm7znc)" height="301.0602" style="stroke: #A80036; stroke-width: 1.0;" width="10" x="312.5" y="158.186"/><rect fill="#FFFFFF" filter="url(#f10jeotfbm7znc)" height="139.8241" style="stroke: #A80036; stroke-width: 1.0;" width="10" x="516.5" y="252.304"/><rect fill="#FFFFFF" filter="url(#f10jeotfbm7znc)" height="31.706" style="stroke: #A80036; stroke-width: 1.0;" width="10" x="699.5" y="284.01"/><line style="stroke: #A80036; stroke-width: 1.0; stroke-dasharray: 5.0,5.0;" x1="38" x2="38" y1="89.0679" y2="572.0702"/><line style="stroke: #A80036; stroke-width: 1.0; stroke-dasharray: 5.0,5.0;" x1="317" x2="317" y1="89.0679" y2="572.0702"/><line style="stroke: #A80036; stroke-width: 1.0; stroke-dasharray: 5.0,5.0;" x1="521.5" x2="521.5" y1="89.0679" y2="572.0702"/><line style="stroke: #A80036; stroke-width: 1.0; stroke-dasharray: 5.0,5.0;" x1="704.5" x2="704.5" y1="89.0679" y2="572.0702"/><text fill="#000000" font-family="sans-serif" font-size="14" lengthAdjust="spacingAndGlyphs" textLength="55" x="8" y="84.9659">Browser</text><ellipse cx="38.5" cy="13" fill="#FEFECE" filter="url(#f10jeotfbm7znc)" rx="8" ry="8" style="stroke: #A80036; stroke-width: 2.0;"/><path d="M38.5,21 L38.5,48 M25.5,29 L51.5,29 M38.5,48 L25.5,63 M38.5,48 L51.5,63 " fill="none" filter="url(#f10jeotfbm7znc)" style="stroke: #A80036; stroke-width: 2.0;"/><text fill="#000000" font-family="sans-serif" font-size="14" lengthAdjust="spacingAndGlyphs" textLength="55" x="8" y="586.0361">Browser</text><ellipse cx="38.5" cy="600.1381" fill="#FEFECE" filter="url(#f10jeotfbm7znc)" rx="8" ry="8" style="stroke: #A80036; stroke-width: 2.0;"/><path d="M38.5,608.1381 L38.5,635.1381 M25.5,616.1381 L51.5,616.1381 M38.5,635.1381 L25.5,650.1381 M38.5,635.1381 L51.5,650.1381 " fill="none" filter="url(#f10jeotfbm7znc)" style="stroke: #A80036; stroke-width: 2.0;"/><rect fill="#FEFECE" filter="url(#f10jeotfbm7znc)" height="33.0679" style="stroke: #A80036; stroke-width: 1.5;" width="119" x="256" y="51"/><text fill="#000000" font-family="sans-serif" font-size="14" lengthAdjust="spacingAndGlyphs" textLength="105" x="263" y="72.9659">UsersController</text><rect fill="#FEFECE" filter="url(#f10jeotfbm7znc)" height="33.0679" style="stroke: #A80036; stroke-width: 1.5;" width="119" x="256" y="571.0702"/><text fill="#000000" font-family="sans-serif" font-size="14" lengthAdjust="spacingAndGlyphs" textLength="105" x="263" y="593.0361">UsersController</text><rect fill="#FEFECE" filter="url(#f10jeotfbm7znc)" height="33.0679" style="stroke: #A80036; stroke-width: 1.5;" width="100" x="469.5" y="51"/><text fill="#000000" font-family="sans-serif" font-size="14" lengthAdjust="spacingAndGlyphs" textLength="86" x="476.5" y="72.9659">UsersService</text><rect fill="#FEFECE" filter="url(#f10jeotfbm7znc)" height="33.0679" style="stroke: #A80036; stroke-width: 1.5;" width="100" x="469.5" y="571.0702"/><text fill="#000000" font-family="sans-serif" font-size="14" lengthAdjust="spacingAndGlyphs" textLength="86" x="476.5" y="593.0361">UsersService</text><rect fill="#FEFECE" filter="url(#f10jeotfbm7znc)" height="33.0679" style="stroke: #A80036; stroke-width: 1.5;" width="82" x="661.5" y="51"/><text fill="#000000" font-family="sans-serif" font-size="14" lengthAdjust="spacingAndGlyphs" textLength="68" x="668.5" y="72.9659">JwtService</text><rect fill="#FEFECE" filter="url(#f10jeotfbm7znc)" height="33.0679" style="stroke: #A80036; stroke-width: 1.5;" width="82" x="661.5" y="571.0702"/><text fill="#000000" font-family="sans-serif" font-size="14" lengthAdjust="spacingAndGlyphs" textLength="68" x="668.5" y="593.0361">JwtService</text><rect fill="#FFFFFF" filter="url(#f10jeotfbm7znc)" height="301.0602" style="stroke: #A80036; stroke-width: 1.0;" width="10" x="312.5" y="158.186"/><rect fill="#FFFFFF" filter="url(#f10jeotfbm7znc)" height="139.8241" style="stroke: #A80036; stroke-width: 1.0;" width="10" x="516.5" y="252.304"/><rect fill="#FFFFFF" filter="url(#f10jeotfbm7znc)" height="31.706" style="stroke: #A80036; stroke-width: 1.0;" width="10" x="699.5" y="284.01"/><polygon fill="#A80036" points="300.5,154.186,310.5,158.186,300.5,162.186,304.5,158.186" style="stroke: #A80036; stroke-width: 1.0;"/><line style="stroke: #A80036; stroke-width: 2.0;" x1="38.5" x2="306.5" y1="158.186" y2="158.186"/><text fill="#000000" font-family="sans-serif" font-size="13" lengthAdjust="spacingAndGlyphs" textLength="149" x="45.5" y="116.9649">GET /users/refresh-token</text><text fill="#000000" font-family="sans-serif" font-size="13" lengthAdjust="spacingAndGlyphs" textLength="130" x="45.5" y="134.6709">Cookie: refresh_token</text><text fill="#000000" font-family="sans-serif" font-size="13" lengthAdjust="spacingAndGlyphs" textLength="219" x="45.5" y="152.377">(sent automatically — path matches)</text><line style="stroke: #A80036; stroke-width: 2.0;" x1="322.5" x2="364.5" y1="207.598" y2="207.598"/><line style="stroke: #A80036; stroke-width: 2.0;" x1="364.5" x2="364.5" y1="207.598" y2="220.598"/><line style="stroke: #A80036; stroke-width: 2.0;" x1="323.5" x2="364.5" y1="220.598" y2="220.598"/><polygon fill="#A80036" points="333.5,216.598,323.5,220.598,333.5,224.598,329.5,220.598" style="stroke: #A80036; stroke-width: 1.0;"/><text fill="#000000" font-family="sans-serif" font-size="13" lengthAdjust="spacingAndGlyphs" textLength="128" x="329.5" y="184.083">Extract refresh_token</text><text fill="#000000" font-family="sans-serif" font-size="13" lengthAdjust="spacingAndGlyphs" textLength="77" x="329.5" y="201.789">from cookies</text><polygon fill="#A80036" points="504.5,248.304,514.5,252.304,504.5,256.304,508.5,252.304" style="stroke: #A80036; stroke-width: 1.0;"/><line style="stroke: #A80036; stroke-width: 2.0;" x1="322.5" x2="510.5" y1="252.304" y2="252.304"/><text fill="#000000" font-family="sans-serif" font-size="13" lengthAdjust="spacingAndGlyphs" textLength="122" x="329.5" y="246.495">refreshToken(token)</text><polygon fill="#A80036" points="687.5,280.01,697.5,284.01,687.5,288.01,691.5,284.01" style="stroke: #A80036; stroke-width: 1.0;"/><line style="stroke: #A80036; stroke-width: 2.0;" x1="526.5" x2="693.5" y1="284.01" y2="284.01"/><text fill="#000000" font-family="sans-serif" font-size="13" lengthAdjust="spacingAndGlyphs" textLength="119" x="533.5" y="278.201">Validate refresh JWT</text><polygon fill="#A80036" points="537.5,311.716,527.5,315.716,537.5,319.716,533.5,315.716" style="stroke: #A80036; stroke-width: 1.0;"/><line style="stroke: #A80036; stroke-width: 2.0; stroke-dasharray: 2.0,2.0;" x1="531.5" x2="703.5" y1="315.716" y2="315.716"/><text fill="#000000" font-family="sans-serif" font-size="13" lengthAdjust="spacingAndGlyphs" textLength="48" x="543.5" y="309.907">payload</text><line style="stroke: #A80036; stroke-width: 2.0;" x1="526.5" x2="568.5" y1="347.4221" y2="347.4221"/><line style="stroke: #A80036; stroke-width: 2.0;" x1="568.5" x2="568.5" y1="347.4221" y2="360.4221"/><line style="stroke: #A80036; stroke-width: 2.0;" x1="527.5" x2="568.5" y1="360.4221" y2="360.4221"/><polygon fill="#A80036" points="537.5,356.4221,527.5,360.4221,537.5,364.4221,533.5,360.4221" style="stroke: #A80036; stroke-width: 1.0;"/><text fill="#000000" font-family="sans-serif" font-size="13" lengthAdjust="spacingAndGlyphs" textLength="159" x="533.5" y="341.6131">Conditional token rotation</text><polygon fill="#A80036" points="333.5,388.1281,323.5,392.1281,333.5,396.1281,329.5,392.1281" style="stroke: #A80036; stroke-width: 1.0;"/><line style="stroke: #A80036; stroke-width: 2.0; stroke-dasharray: 2.0,2.0;" x1="327.5" x2="520.5" y1="392.1281" y2="392.1281"/><text fill="#000000" font-family="sans-serif" font-size="13" lengthAdjust="spacingAndGlyphs" textLength="170" x="339.5" y="386.3191">{accessToken, refreshToken}</text><polygon fill="#A80036" points="49.5,455.2461,39.5,459.2461,49.5,463.2461,45.5,459.2461" style="stroke: #A80036; stroke-width: 1.0;"/><line style="stroke: #A80036; stroke-width: 2.0; stroke-dasharray: 2.0,2.0;" x1="43.5" x2="316.5" y1="459.2461" y2="459.2461"/><text fill="#000000" font-family="sans-serif" font-size="13" lengthAdjust="spacingAndGlyphs" textLength="175" x="55.5" y="418.0251">Set-Cookie: auth_token (new)</text><text fill="#000000" font-family="sans-serif" font-size="13" lengthAdjust="spacingAndGlyphs" textLength="250" x="55.5" y="435.7311">Set-Cookie: refresh_token (new, if rotated)</text><text fill="#000000" font-family="sans-serif" font-size="13" lengthAdjust="spacingAndGlyphs" textLength="176" x="55.5" y="453.4371">{message: "Token refreshed"}</text><path d="M43,472.2461 L43,552.2461 L238,552.2461 L238,482.2461 L228,472.2461 L43,472.2461 " fill="#FBFB77" filter="url(#f10jeotfbm7znc)" style="stroke: #A80036; stroke-width: 1.0;"/><path d="M228,472.2461 L228,482.2461 L238,482.2461 L228,472.2461 " fill="#FBFB77" style="stroke: #A80036; stroke-width: 1.0;"/><text fill="#000000" font-family="sans-serif" font-size="13" lengthAdjust="spacingAndGlyphs" textLength="149" x="49" y="491.1431">refresh_token cookie has</text><text fill="#000000" font-family="sans-serif" font-size="13" font-weight="bold" lengthAdjust="spacingAndGlyphs" textLength="174" x="49" y="508.8492">path: /users/refresh-token</text><text fill="#000000" font-family="sans-serif" font-size="13" lengthAdjust="spacingAndGlyphs" textLength="111" x="49" y="526.5552">so it is only sent to</text><text fill="#000000" font-family="sans-serif" font-size="13" lengthAdjust="spacingAndGlyphs" textLength="129" x="49" y="544.2612">this specific endpoint.</text><!--MD5=[73d2bc4797a7db46e153296c214b9506]
@startuml Token Refresh Flow
skinparam backgroundColor white
skinparam sequenceArrowThickness 2

actor Browser as browser
participant "UsersController" as ctrl
participant "UsersService" as svc
participant "JwtService" as jwt

browser -> ctrl : GET /users/refresh-token\nCookie: refresh_token\n(sent automatically — path matches)
activate ctrl

ctrl -> ctrl : Extract refresh_token\nfrom cookies

ctrl -> svc : refreshToken(token)
activate svc

svc -> jwt : Validate refresh JWT
activate jwt
jwt - -> svc : payload
deactivate jwt

svc -> svc : Conditional token rotation

svc - -> ctrl : {accessToken, refreshToken}
deactivate svc

ctrl - -> browser : Set-Cookie: auth_token (new)\nSet-Cookie: refresh_token (new, if rotated)\n{message: "Token refreshed"}
deactivate ctrl

note right of browser
  refresh_token cookie has
  **path: /users/refresh-token**
  so it is only sent to
  this specific endpoint.
end note
@enduml

PlantUML version 1.2020.02(Sun Mar 01 07:22:07 ART 2020)
(GPL source distribution)
Java Runtime: OpenJDK Runtime Environment
JVM: OpenJDK 64-Bit Server VM
Java Version: 21.0.11-ea+5-[Ubuntu-1]
Operating System: Linux
Default Encoding: UTF-8
Language: en
Country: US
--></g></svg>